<?xml version="1.0" encoding="utf-8" standalone="no"?>
<!DOCTYPE svg PUBLIC "-//W3C//DTD SVG 1.1//EN"
  "http://www.w3.org/Graphics/SVG/1.1/DTD/svg11.dtd">
<svg xmlns:xlink="http://www.w3.org/1999/xlink" width="1080pt" height="720pt" viewBox="0 0 1080 720" xmlns="http://www.w3.org/2000/svg" version="1.1">
 <metadata>
  <rdf:RDF xmlns:dc="http://purl.org/dc/elements/1.1/" xmlns:cc="http://creativecommons.org/ns#" xmlns:rdf="http://www.w3.org/1999/02/22-rdf-syntax-ns#">
   <cc:Work>
    <dc:type rdf:resource="http://purl.org/dc/dcmitype/StillImage"/>
    <dc:date>2024-06-17T15:40:16.401711</dc:date>
    <dc:format>image/svg+xml</dc:format>
    <dc:creator>
     <cc:Agent>
      <dc:title>Matplotlib v3.7.1, https://matplotlib.org/</dc:title>
     </cc:Agent>
    </dc:creator>
   </cc:Work>
  </rdf:RDF>
 </metadata>
 <defs>
  <style type="text/css">*{stroke-linejoin: round; stroke-linecap: butt}</style>
 </defs>
 <g id="figure_1">
  <g id="patch_1">
   <path d="M 0 720 
L 1080 720 
L 1080 0 
L 0 0 
z
" style="fill: #ffffff"/>
  </g>
  <g id="axes_1">
   <g id="patch_2">
    <path d="M 135 640.8 
L 972 640.8 
L 972 86.4 
L 135 86.4 
z
" style="fill: #ffffff"/>
   </g>
   <g id="patch_3">
    <path d="M 173.045455 640.8 
L 176.495147 640.8 
L 176.495147 639.247059 
L 173.045455 639.247059 
z
" clip-path="url(#pd0b05c8802)" style="fill: #1f77b4; stroke: #ffffff; stroke-width: 0.3; stroke-linejoin: miter"/>
   </g>
   <g id="patch_4">
    <path d="M 176.495147 640.8 
L 179.944839 640.8 
L 179.944839 640.8 
L 176.495147 640.8 
z
" clip-path="url(#pd0b05c8802)" style="fill: #1f77b4; stroke: #ffffff; stroke-width: 0.3; stroke-linejoin: miter"/>
   </g>
   <g id="patch_5">
    <path d="M 179.944839 640.8 
L 183.394531 640.8 
L 183.394531 639.247059 
L 179.944839 639.247059 
z
" clip-path="url(#pd0b05c8802)" style="fill: #1f77b4; stroke: #ffffff; stroke-width: 0.3; stroke-linejoin: miter"/>
   </g>
   <g id="patch_6">
    <path d="M 183.394531 640.8 
L 186.844223 640.8 
L 186.844223 640.8 
L 183.394531 640.8 
z
" clip-path="url(#pd0b05c8802)" style="fill: #1f77b4; stroke: #ffffff; stroke-width: 0.3; stroke-linejoin: miter"/>
   </g>
   <g id="patch_7">
    <path d="M 186.844223 640.8 
L 190.293916 640.8 
L 190.293916 640.8 
L 186.844223 640.8 
z
" clip-path="url(#pd0b05c8802)" style="fill: #1f77b4; stroke: #ffffff; stroke-width: 0.3; stroke-linejoin: miter"/>
   </g>
   <g id="patch_8">
    <path d="M 190.293916 640.8 
L 193.743608 640.8 
L 193.743608 639.247059 
L 190.293916 639.247059 
z
" clip-path="url(#pd0b05c8802)" style="fill: #1f77b4; stroke: #ffffff; stroke-width: 0.3; stroke-linejoin: miter"/>
   </g>
   <g id="patch_9">
    <path d="M 193.743608 640.8 
L 197.1933 640.8 
L 197.1933 639.247059 
L 193.743608 639.247059 
z
" clip-path="url(#pd0b05c8802)" style="fill: #1f77b4; stroke: #ffffff; stroke-width: 0.3; stroke-linejoin: miter"/>
   </g>
   <g id="patch_10">
    <path d="M 197.1933 640.8 
L 200.642992 640.8 
L 200.642992 637.694118 
L 197.1933 637.694118 
z
" clip-path="url(#pd0b05c8802)" style="fill: #1f77b4; stroke: #ffffff; stroke-width: 0.3; stroke-linejoin: miter"/>
   </g>
   <g id="patch_11">
    <path d="M 200.642992 640.8 
L 204.092684 640.8 
L 204.092684 636.141176 
L 200.642992 636.141176 
z
" clip-path="url(#pd0b05c8802)" style="fill: #1f77b4; stroke: #ffffff; stroke-width: 0.3; stroke-linejoin: miter"/>
   </g>
   <g id="patch_12">
    <path d="M 204.092684 640.8 
L 207.542376 640.8 
L 207.542376 629.929412 
L 204.092684 629.929412 
z
" clip-path="url(#pd0b05c8802)" style="fill: #1f77b4; stroke: #ffffff; stroke-width: 0.3; stroke-linejoin: miter"/>
   </g>
   <g id="patch_13">
    <path d="M 207.542376 640.8 
L 210.992069 640.8 
L 210.992069 634.588235 
L 207.542376 634.588235 
z
" clip-path="url(#pd0b05c8802)" style="fill: #1f77b4; stroke: #ffffff; stroke-width: 0.3; stroke-linejoin: miter"/>
   </g>
   <g id="patch_14">
    <path d="M 210.992069 640.8 
L 214.441761 640.8 
L 214.441761 631.482353 
L 210.992069 631.482353 
z
" clip-path="url(#pd0b05c8802)" style="fill: #1f77b4; stroke: #ffffff; stroke-width: 0.3; stroke-linejoin: miter"/>
   </g>
   <g id="patch_15">
    <path d="M 214.441761 640.8 
L 217.891453 640.8 
L 217.891453 623.717647 
L 214.441761 623.717647 
z
" clip-path="url(#pd0b05c8802)" style="fill: #1f77b4; stroke: #ffffff; stroke-width: 0.3; stroke-linejoin: miter"/>
   </g>
   <g id="patch_16">
    <path d="M 217.891453 640.8 
L 221.341145 640.8 
L 221.341145 608.188235 
L 217.891453 608.188235 
z
" clip-path="url(#pd0b05c8802)" style="fill: #1f77b4; stroke: #ffffff; stroke-width: 0.3; stroke-linejoin: miter"/>
   </g>
   <g id="patch_17">
    <path d="M 221.341145 640.8 
L 224.790837 640.8 
L 224.790837 622.164706 
L 221.341145 622.164706 
z
" clip-path="url(#pd0b05c8802)" style="fill: #1f77b4; stroke: #ffffff; stroke-width: 0.3; stroke-linejoin: miter"/>
   </g>
   <g id="patch_18">
    <path d="M 224.790837 640.8 
L 228.24053 640.8 
L 228.24053 600.423529 
L 224.790837 600.423529 
z
" clip-path="url(#pd0b05c8802)" style="fill: #1f77b4; stroke: #ffffff; stroke-width: 0.3; stroke-linejoin: miter"/>
   </g>
   <g id="patch_19">
    <path d="M 228.24053 640.8 
L 231.690222 640.8 
L 231.690222 603.529412 
L 228.24053 603.529412 
z
" clip-path="url(#pd0b05c8802)" style="fill: #1f77b4; stroke: #ffffff; stroke-width: 0.3; stroke-linejoin: miter"/>
   </g>
   <g id="patch_20">
    <path d="M 231.690222 640.8 
L 235.139914 640.8 
L 235.139914 570.917647 
L 231.690222 570.917647 
z
" clip-path="url(#pd0b05c8802)" style="fill: #1f77b4; stroke: #ffffff; stroke-width: 0.3; stroke-linejoin: miter"/>
   </g>
   <g id="patch_21">
    <path d="M 235.139914 640.8 
L 238.589606 640.8 
L 238.589606 570.917647 
L 235.139914 570.917647 
z
" clip-path="url(#pd0b05c8802)" style="fill: #1f77b4; stroke: #ffffff; stroke-width: 0.3; stroke-linejoin: miter"/>
   </g>
   <g id="patch_22">
    <path d="M 238.589606 640.8 
L 242.039298 640.8 
L 242.039298 569.364706 
L 238.589606 569.364706 
z
" clip-path="url(#pd0b05c8802)" style="fill: #1f77b4; stroke: #ffffff; stroke-width: 0.3; stroke-linejoin: miter"/>
   </g>
   <g id="patch_23">
    <path d="M 242.039298 640.8 
L 245.488991 640.8 
L 245.488991 560.047059 
L 242.039298 560.047059 
z
" clip-path="url(#pd0b05c8802)" style="fill: #1f77b4; stroke: #ffffff; stroke-width: 0.3; stroke-linejoin: miter"/>
   </g>
   <g id="patch_24">
    <path d="M 245.488991 640.8 
L 248.938683 640.8 
L 248.938683 528.988235 
L 245.488991 528.988235 
z
" clip-path="url(#pd0b05c8802)" style="fill: #1f77b4; stroke: #ffffff; stroke-width: 0.3; stroke-linejoin: miter"/>
   </g>
   <g id="patch_25">
    <path d="M 248.938683 640.8 
L 252.388375 640.8 
L 252.388375 519.670588 
L 248.938683 519.670588 
z
" clip-path="url(#pd0b05c8802)" style="fill: #1f77b4; stroke: #ffffff; stroke-width: 0.3; stroke-linejoin: miter"/>
   </g>
   <g id="patch_26">
    <path d="M 252.388375 640.8 
L 255.838067 640.8 
L 255.838067 510.352941 
L 252.388375 510.352941 
z
" clip-path="url(#pd0b05c8802)" style="fill: #1f77b4; stroke: #ffffff; stroke-width: 0.3; stroke-linejoin: miter"/>
   </g>
   <g id="patch_27">
    <path d="M 255.838067 640.8 
L 259.287759 640.8 
L 259.287759 471.529412 
L 255.838067 471.529412 
z
" clip-path="url(#pd0b05c8802)" style="fill: #1f77b4; stroke: #ffffff; stroke-width: 0.3; stroke-linejoin: miter"/>
   </g>
   <g id="patch_28">
    <path d="M 259.287759 640.8 
L 262.737452 640.8 
L 262.737452 468.423529 
L 259.287759 468.423529 
z
" clip-path="url(#pd0b05c8802)" style="fill: #1f77b4; stroke: #ffffff; stroke-width: 0.3; stroke-linejoin: miter"/>
   </g>
   <g id="patch_29">
    <path d="M 262.737452 640.8 
L 266.187144 640.8 
L 266.187144 497.929412 
L 262.737452 497.929412 
z
" clip-path="url(#pd0b05c8802)" style="fill: #1f77b4; stroke: #ffffff; stroke-width: 0.3; stroke-linejoin: miter"/>
   </g>
   <g id="patch_30">
    <path d="M 266.187144 640.8 
L 269.636836 640.8 
L 269.636836 378.352941 
L 266.187144 378.352941 
z
" clip-path="url(#pd0b05c8802)" style="fill: #1f77b4; stroke: #ffffff; stroke-width: 0.3; stroke-linejoin: miter"/>
   </g>
   <g id="patch_31">
    <path d="M 269.636836 640.8 
L 273.086528 640.8 
L 273.086528 375.247059 
L 269.636836 375.247059 
z
" clip-path="url(#pd0b05c8802)" style="fill: #1f77b4; stroke: #ffffff; stroke-width: 0.3; stroke-linejoin: miter"/>
   </g>
   <g id="patch_32">
    <path d="M 273.086528 640.8 
L 276.53622 640.8 
L 276.53622 353.505882 
L 273.086528 353.505882 
z
" clip-path="url(#pd0b05c8802)" style="fill: #1f77b4; stroke: #ffffff; stroke-width: 0.3; stroke-linejoin: miter"/>
   </g>
   <g id="patch_33">
    <path d="M 276.53622 640.8 
L 279.985913 640.8 
L 279.985913 339.529412 
L 276.53622 339.529412 
z
" clip-path="url(#pd0b05c8802)" style="fill: #1f77b4; stroke: #ffffff; stroke-width: 0.3; stroke-linejoin: miter"/>
   </g>
   <g id="patch_34">
    <path d="M 279.985913 640.8 
L 283.435605 640.8 
L 283.435605 291.388235 
L 279.985913 291.388235 
z
" clip-path="url(#pd0b05c8802)" style="fill: #1f77b4; stroke: #ffffff; stroke-width: 0.3; stroke-linejoin: miter"/>
   </g>
   <g id="patch_35">
    <path d="M 283.435605 640.8 
L 286.885297 640.8 
L 286.885297 291.388235 
L 283.435605 291.388235 
z
" clip-path="url(#pd0b05c8802)" style="fill: #1f77b4; stroke: #ffffff; stroke-width: 0.3; stroke-linejoin: miter"/>
   </g>
   <g id="patch_36">
    <path d="M 286.885297 640.8 
L 290.334989 640.8 
L 290.334989 268.094118 
L 286.885297 268.094118 
z
" clip-path="url(#pd0b05c8802)" style="fill: #1f77b4; stroke: #ffffff; stroke-width: 0.3; stroke-linejoin: miter"/>
   </g>
   <g id="patch_37">
    <path d="M 290.334989 640.8 
L 293.784681 640.8 
L 293.784681 254.117647 
L 290.334989 254.117647 
z
" clip-path="url(#pd0b05c8802)" style="fill: #1f77b4; stroke: #ffffff; stroke-width: 0.3; stroke-linejoin: miter"/>
   </g>
   <g id="patch_38">
    <path d="M 293.784681 640.8 
L 297.234374 640.8 
L 297.234374 252.564706 
L 293.784681 252.564706 
z
" clip-path="url(#pd0b05c8802)" style="fill: #1f77b4; stroke: #ffffff; stroke-width: 0.3; stroke-linejoin: miter"/>
   </g>
   <g id="patch_39">
    <path d="M 297.234374 640.8 
L 300.684066 640.8 
L 300.684066 226.164706 
L 297.234374 226.164706 
z
" clip-path="url(#pd0b05c8802)" style="fill: #1f77b4; stroke: #ffffff; stroke-width: 0.3; stroke-linejoin: miter"/>
   </g>
   <g id="patch_40">
    <path d="M 300.684066 640.8 
L 304.133758 640.8 
L 304.133758 114.352941 
L 300.684066 114.352941 
z
" clip-path="url(#pd0b05c8802)" style="fill: #1f77b4; stroke: #ffffff; stroke-width: 0.3; stroke-linejoin: miter"/>
   </g>
   <g id="patch_41">
    <path d="M 304.133758 640.8 
L 307.58345 640.8 
L 307.58345 167.152941 
L 304.133758 167.152941 
z
" clip-path="url(#pd0b05c8802)" style="fill: #1f77b4; stroke: #ffffff; stroke-width: 0.3; stroke-linejoin: miter"/>
   </g>
   <g id="patch_42">
    <path d="M 307.58345 640.8 
L 311.033142 640.8 
L 311.033142 218.4 
L 307.58345 218.4 
z
" clip-path="url(#pd0b05c8802)" style="fill: #1f77b4; stroke: #ffffff; stroke-width: 0.3; stroke-linejoin: miter"/>
   </g>
   <g id="patch_43">
    <path d="M 311.033142 640.8 
L 314.482835 640.8 
L 314.482835 157.835294 
L 311.033142 157.835294 
z
" clip-path="url(#pd0b05c8802)" style="fill: #1f77b4; stroke: #ffffff; stroke-width: 0.3; stroke-linejoin: miter"/>
   </g>
   <g id="patch_44">
    <path d="M 314.482835 640.8 
L 317.932527 640.8 
L 317.932527 157.835294 
L 314.482835 157.835294 
z
" clip-path="url(#pd0b05c8802)" style="fill: #1f77b4; stroke: #ffffff; stroke-width: 0.3; stroke-linejoin: miter"/>
   </g>
   <g id="patch_45">
    <path d="M 317.932527 640.8 
L 321.382219 640.8 
L 321.382219 154.729412 
L 317.932527 154.729412 
z
" clip-path="url(#pd0b05c8802)" style="fill: #1f77b4; stroke: #ffffff; stroke-width: 0.3; stroke-linejoin: miter"/>
   </g>
   <g id="patch_46">
    <path d="M 321.382219 640.8 
L 324.831911 640.8 
L 324.831911 112.8 
L 321.382219 112.8 
z
" clip-path="url(#pd0b05c8802)" style="fill: #1f77b4; stroke: #ffffff; stroke-width: 0.3; stroke-linejoin: miter"/>
   </g>
   <g id="patch_47">
    <path d="M 324.831911 640.8 
L 328.281603 640.8 
L 328.281603 174.917647 
L 324.831911 174.917647 
z
" clip-path="url(#pd0b05c8802)" style="fill: #1f77b4; stroke: #ffffff; stroke-width: 0.3; stroke-linejoin: miter"/>
   </g>
   <g id="patch_48">
    <path d="M 328.281603 640.8 
L 331.731295 640.8 
L 331.731295 196.658824 
L 328.281603 196.658824 
z
" clip-path="url(#pd0b05c8802)" style="fill: #1f77b4; stroke: #ffffff; stroke-width: 0.3; stroke-linejoin: miter"/>
   </g>
   <g id="patch_49">
    <path d="M 331.731295 640.8 
L 335.180988 640.8 
L 335.180988 179.576471 
L 331.731295 179.576471 
z
" clip-path="url(#pd0b05c8802)" style="fill: #1f77b4; stroke: #ffffff; stroke-width: 0.3; stroke-linejoin: miter"/>
   </g>
   <g id="patch_50">
    <path d="M 335.180988 640.8 
L 338.63068 640.8 
L 338.63068 237.035294 
L 335.180988 237.035294 
z
" clip-path="url(#pd0b05c8802)" style="fill: #1f77b4; stroke: #ffffff; stroke-width: 0.3; stroke-linejoin: miter"/>
   </g>
   <g id="patch_51">
    <path d="M 338.63068 640.8 
L 342.080372 640.8 
L 342.080372 221.505882 
L 338.63068 221.505882 
z
" clip-path="url(#pd0b05c8802)" style="fill: #1f77b4; stroke: #ffffff; stroke-width: 0.3; stroke-linejoin: miter"/>
   </g>
   <g id="patch_52">
    <path d="M 342.080372 640.8 
L 345.530064 640.8 
L 345.530064 263.435294 
L 342.080372 263.435294 
z
" clip-path="url(#pd0b05c8802)" style="fill: #1f77b4; stroke: #ffffff; stroke-width: 0.3; stroke-linejoin: miter"/>
   </g>
   <g id="patch_53">
    <path d="M 345.530064 640.8 
L 348.979756 640.8 
L 348.979756 207.529412 
L 345.530064 207.529412 
z
" clip-path="url(#pd0b05c8802)" style="fill: #1f77b4; stroke: #ffffff; stroke-width: 0.3; stroke-linejoin: miter"/>
   </g>
   <g id="patch_54">
    <path d="M 348.979756 640.8 
L 352.429449 640.8 
L 352.429449 289.835294 
L 348.979756 289.835294 
z
" clip-path="url(#pd0b05c8802)" style="fill: #1f77b4; stroke: #ffffff; stroke-width: 0.3; stroke-linejoin: miter"/>
   </g>
   <g id="patch_55">
    <path d="M 352.429449 640.8 
L 355.879141 640.8 
L 355.879141 266.541176 
L 352.429449 266.541176 
z
" clip-path="url(#pd0b05c8802)" style="fill: #1f77b4; stroke: #ffffff; stroke-width: 0.3; stroke-linejoin: miter"/>
   </g>
   <g id="patch_56">
    <path d="M 355.879141 640.8 
L 359.328833 640.8 
L 359.328833 285.176471 
L 355.879141 285.176471 
z
" clip-path="url(#pd0b05c8802)" style="fill: #1f77b4; stroke: #ffffff; stroke-width: 0.3; stroke-linejoin: miter"/>
   </g>
   <g id="patch_57">
    <path d="M 359.328833 640.8 
L 362.778525 640.8 
L 362.778525 337.976471 
L 359.328833 337.976471 
z
" clip-path="url(#pd0b05c8802)" style="fill: #1f77b4; stroke: #ffffff; stroke-width: 0.3; stroke-linejoin: miter"/>
   </g>
   <g id="patch_58">
    <path d="M 362.778525 640.8 
L 366.228217 640.8 
L 366.228217 331.764706 
L 362.778525 331.764706 
z
" clip-path="url(#pd0b05c8802)" style="fill: #1f77b4; stroke: #ffffff; stroke-width: 0.3; stroke-linejoin: miter"/>
   </g>
   <g id="patch_59">
    <path d="M 366.228217 640.8 
L 369.67791 640.8 
L 369.67791 370.588235 
L 366.228217 370.588235 
z
" clip-path="url(#pd0b05c8802)" style="fill: #1f77b4; stroke: #ffffff; stroke-width: 0.3; stroke-linejoin: miter"/>
   </g>
   <g id="patch_60">
    <path d="M 369.67791 640.8 
L 373.127602 640.8 
L 373.127602 389.223529 
L 369.67791 389.223529 
z
" clip-path="url(#pd0b05c8802)" style="fill: #1f77b4; stroke: #ffffff; stroke-width: 0.3; stroke-linejoin: miter"/>
   </g>
   <g id="patch_61">
    <path d="M 373.127602 640.8 
L 376.577294 640.8 
L 376.577294 410.964706 
L 373.127602 410.964706 
z
" clip-path="url(#pd0b05c8802)" style="fill: #1f77b4; stroke: #ffffff; stroke-width: 0.3; stroke-linejoin: miter"/>
   </g>
   <g id="patch_62">
    <path d="M 376.577294 640.8 
L 380.026986 640.8 
L 380.026986 420.282353 
L 376.577294 420.282353 
z
" clip-path="url(#pd0b05c8802)" style="fill: #1f77b4; stroke: #ffffff; stroke-width: 0.3; stroke-linejoin: miter"/>
   </g>
   <g id="patch_63">
    <path d="M 380.026986 640.8 
L 383.476678 640.8 
L 383.476678 448.235294 
L 380.026986 448.235294 
z
" clip-path="url(#pd0b05c8802)" style="fill: #1f77b4; stroke: #ffffff; stroke-width: 0.3; stroke-linejoin: miter"/>
   </g>
   <g id="patch_64">
    <path d="M 383.476678 640.8 
L 386.926371 640.8 
L 386.926371 483.952941 
L 383.476678 483.952941 
z
" clip-path="url(#pd0b05c8802)" style="fill: #1f77b4; stroke: #ffffff; stroke-width: 0.3; stroke-linejoin: miter"/>
   </g>
   <g id="patch_65">
    <path d="M 386.926371 640.8 
L 390.376063 640.8 
L 390.376063 482.4 
L 386.926371 482.4 
z
" clip-path="url(#pd0b05c8802)" style="fill: #1f77b4; stroke: #ffffff; stroke-width: 0.3; stroke-linejoin: miter"/>
   </g>
   <g id="patch_66">
    <path d="M 390.376063 640.8 
L 393.825755 640.8 
L 393.825755 490.164706 
L 390.376063 490.164706 
z
" clip-path="url(#pd0b05c8802)" style="fill: #1f77b4; stroke: #ffffff; stroke-width: 0.3; stroke-linejoin: miter"/>
   </g>
   <g id="patch_67">
    <path d="M 393.825755 640.8 
L 397.275447 640.8 
L 397.275447 507.247059 
L 393.825755 507.247059 
z
" clip-path="url(#pd0b05c8802)" style="fill: #1f77b4; stroke: #ffffff; stroke-width: 0.3; stroke-linejoin: miter"/>
   </g>
   <g id="patch_68">
    <path d="M 397.275447 640.8 
L 400.725139 640.8 
L 400.725139 518.117647 
L 397.275447 518.117647 
z
" clip-path="url(#pd0b05c8802)" style="fill: #1f77b4; stroke: #ffffff; stroke-width: 0.3; stroke-linejoin: miter"/>
   </g>
   <g id="patch_69">
    <path d="M 400.725139 640.8 
L 404.174832 640.8 
L 404.174832 541.411765 
L 400.725139 541.411765 
z
" clip-path="url(#pd0b05c8802)" style="fill: #1f77b4; stroke: #ffffff; stroke-width: 0.3; stroke-linejoin: miter"/>
   </g>
   <g id="patch_70">
    <path d="M 404.174832 640.8 
L 407.624524 640.8 
L 407.624524 560.047059 
L 404.174832 560.047059 
z
" clip-path="url(#pd0b05c8802)" style="fill: #1f77b4; stroke: #ffffff; stroke-width: 0.3; stroke-linejoin: miter"/>
   </g>
   <g id="patch_71">
    <path d="M 407.624524 640.8 
L 411.074216 640.8 
L 411.074216 561.6 
L 407.624524 561.6 
z
" clip-path="url(#pd0b05c8802)" style="fill: #1f77b4; stroke: #ffffff; stroke-width: 0.3; stroke-linejoin: miter"/>
   </g>
   <g id="patch_72">
    <path d="M 411.074216 640.8 
L 414.523908 640.8 
L 414.523908 555.388235 
L 411.074216 555.388235 
z
" clip-path="url(#pd0b05c8802)" style="fill: #1f77b4; stroke: #ffffff; stroke-width: 0.3; stroke-linejoin: miter"/>
   </g>
   <g id="patch_73">
    <path d="M 414.523908 640.8 
L 417.9736 640.8 
L 417.9736 572.470588 
L 414.523908 572.470588 
z
" clip-path="url(#pd0b05c8802)" style="fill: #1f77b4; stroke: #ffffff; stroke-width: 0.3; stroke-linejoin: miter"/>
   </g>
   <g id="patch_74">
    <path d="M 417.9736 640.8 
L 421.423293 640.8 
L 421.423293 584.894118 
L 417.9736 584.894118 
z
" clip-path="url(#pd0b05c8802)" style="fill: #1f77b4; stroke: #ffffff; stroke-width: 0.3; stroke-linejoin: miter"/>
   </g>
   <g id="patch_75">
    <path d="M 421.423293 640.8 
L 424.872985 640.8 
L 424.872985 588 
L 421.423293 588 
z
" clip-path="url(#pd0b05c8802)" style="fill: #1f77b4; stroke: #ffffff; stroke-width: 0.3; stroke-linejoin: miter"/>
   </g>
   <g id="patch_76">
    <path d="M 424.872985 640.8 
L 428.322677 640.8 
L 428.322677 601.976471 
L 424.872985 601.976471 
z
" clip-path="url(#pd0b05c8802)" style="fill: #1f77b4; stroke: #ffffff; stroke-width: 0.3; stroke-linejoin: miter"/>
   </g>
   <g id="patch_77">
    <path d="M 428.322677 640.8 
L 431.772369 640.8 
L 431.772369 592.658824 
L 428.322677 592.658824 
z
" clip-path="url(#pd0b05c8802)" style="fill: #1f77b4; stroke: #ffffff; stroke-width: 0.3; stroke-linejoin: miter"/>
   </g>
   <g id="patch_78">
    <path d="M 431.772369 640.8 
L 435.222061 640.8 
L 435.222061 598.870588 
L 431.772369 598.870588 
z
" clip-path="url(#pd0b05c8802)" style="fill: #1f77b4; stroke: #ffffff; stroke-width: 0.3; stroke-linejoin: miter"/>
   </g>
   <g id="patch_79">
    <path d="M 435.222061 640.8 
L 438.671754 640.8 
L 438.671754 619.058824 
L 435.222061 619.058824 
z
" clip-path="url(#pd0b05c8802)" style="fill: #1f77b4; stroke: #ffffff; stroke-width: 0.3; stroke-linejoin: miter"/>
   </g>
   <g id="patch_80">
    <path d="M 438.671754 640.8 
L 442.121446 640.8 
L 442.121446 611.294118 
L 438.671754 611.294118 
z
" clip-path="url(#pd0b05c8802)" style="fill: #1f77b4; stroke: #ffffff; stroke-width: 0.3; stroke-linejoin: miter"/>
   </g>
   <g id="patch_81">
    <path d="M 442.121446 640.8 
L 445.571138 640.8 
L 445.571138 617.505882 
L 442.121446 617.505882 
z
" clip-path="url(#pd0b05c8802)" style="fill: #1f77b4; stroke: #ffffff; stroke-width: 0.3; stroke-linejoin: miter"/>
   </g>
   <g id="patch_82">
    <path d="M 445.571138 640.8 
L 449.02083 640.8 
L 449.02083 608.188235 
L 445.571138 608.188235 
z
" clip-path="url(#pd0b05c8802)" style="fill: #1f77b4; stroke: #ffffff; stroke-width: 0.3; stroke-linejoin: miter"/>
   </g>
   <g id="patch_83">
    <path d="M 449.02083 640.8 
L 452.470522 640.8 
L 452.470522 620.611765 
L 449.02083 620.611765 
z
" clip-path="url(#pd0b05c8802)" style="fill: #1f77b4; stroke: #ffffff; stroke-width: 0.3; stroke-linejoin: miter"/>
   </g>
   <g id="patch_84">
    <path d="M 452.470522 640.8 
L 455.920214 640.8 
L 455.920214 634.588235 
L 452.470522 634.588235 
z
" clip-path="url(#pd0b05c8802)" style="fill: #1f77b4; stroke: #ffffff; stroke-width: 0.3; stroke-linejoin: miter"/>
   </g>
   <g id="patch_85">
    <path d="M 455.920214 640.8 
L 459.369907 640.8 
L 459.369907 625.270588 
L 455.920214 625.270588 
z
" clip-path="url(#pd0b05c8802)" style="fill: #1f77b4; stroke: #ffffff; stroke-width: 0.3; stroke-linejoin: miter"/>
   </g>
   <g id="patch_86">
    <path d="M 459.369907 640.8 
L 462.819599 640.8 
L 462.819599 634.588235 
L 459.369907 634.588235 
z
" clip-path="url(#pd0b05c8802)" style="fill: #1f77b4; stroke: #ffffff; stroke-width: 0.3; stroke-linejoin: miter"/>
   </g>
   <g id="patch_87">
    <path d="M 462.819599 640.8 
L 466.269291 640.8 
L 466.269291 634.588235 
L 462.819599 634.588235 
z
" clip-path="url(#pd0b05c8802)" style="fill: #1f77b4; stroke: #ffffff; stroke-width: 0.3; stroke-linejoin: miter"/>
   </g>
   <g id="patch_88">
    <path d="M 466.269291 640.8 
L 469.718983 640.8 
L 469.718983 637.694118 
L 466.269291 637.694118 
z
" clip-path="url(#pd0b05c8802)" style="fill: #1f77b4; stroke: #ffffff; stroke-width: 0.3; stroke-linejoin: miter"/>
   </g>
   <g id="patch_89">
    <path d="M 469.718983 640.8 
L 473.168675 640.8 
L 473.168675 637.694118 
L 469.718983 637.694118 
z
" clip-path="url(#pd0b05c8802)" style="fill: #1f77b4; stroke: #ffffff; stroke-width: 0.3; stroke-linejoin: miter"/>
   </g>
   <g id="patch_90">
    <path d="M 473.168675 640.8 
L 476.618368 640.8 
L 476.618368 636.141176 
L 473.168675 636.141176 
z
" clip-path="url(#pd0b05c8802)" style="fill: #1f77b4; stroke: #ffffff; stroke-width: 0.3; stroke-linejoin: miter"/>
   </g>
   <g id="patch_91">
    <path d="M 476.618368 640.8 
L 480.06806 640.8 
L 480.06806 640.8 
L 476.618368 640.8 
z
" clip-path="url(#pd0b05c8802)" style="fill: #1f77b4; stroke: #ffffff; stroke-width: 0.3; stroke-linejoin: miter"/>
   </g>
   <g id="patch_92">
    <path d="M 480.06806 640.8 
L 483.517752 640.8 
L 483.517752 636.141176 
L 480.06806 636.141176 
z
" clip-path="url(#pd0b05c8802)" style="fill: #1f77b4; stroke: #ffffff; stroke-width: 0.3; stroke-linejoin: miter"/>
   </g>
   <g id="patch_93">
    <path d="M 483.517752 640.8 
L 486.967444 640.8 
L 486.967444 637.694118 
L 483.517752 637.694118 
z
" clip-path="url(#pd0b05c8802)" style="fill: #1f77b4; stroke: #ffffff; stroke-width: 0.3; stroke-linejoin: miter"/>
   </g>
   <g id="patch_94">
    <path d="M 486.967444 640.8 
L 490.417136 640.8 
L 490.417136 640.8 
L 486.967444 640.8 
z
" clip-path="url(#pd0b05c8802)" style="fill: #1f77b4; stroke: #ffffff; stroke-width: 0.3; stroke-linejoin: miter"/>
   </g>
   <g id="patch_95">
    <path d="M 490.417136 640.8 
L 493.866829 640.8 
L 493.866829 640.8 
L 490.417136 640.8 
z
" clip-path="url(#pd0b05c8802)" style="fill: #1f77b4; stroke: #ffffff; stroke-width: 0.3; stroke-linejoin: miter"/>
   </g>
   <g id="patch_96">
    <path d="M 493.866829 640.8 
L 497.316521 640.8 
L 497.316521 639.247059 
L 493.866829 639.247059 
z
" clip-path="url(#pd0b05c8802)" style="fill: #1f77b4; stroke: #ffffff; stroke-width: 0.3; stroke-linejoin: miter"/>
   </g>
   <g id="patch_97">
    <path d="M 497.316521 640.8 
L 500.766213 640.8 
L 500.766213 640.8 
L 497.316521 640.8 
z
" clip-path="url(#pd0b05c8802)" style="fill: #1f77b4; stroke: #ffffff; stroke-width: 0.3; stroke-linejoin: miter"/>
   </g>
   <g id="patch_98">
    <path d="M 500.766213 640.8 
L 504.215905 640.8 
L 504.215905 640.8 
L 500.766213 640.8 
z
" clip-path="url(#pd0b05c8802)" style="fill: #1f77b4; stroke: #ffffff; stroke-width: 0.3; stroke-linejoin: miter"/>
   </g>
   <g id="patch_99">
    <path d="M 504.215905 640.8 
L 507.665597 640.8 
L 507.665597 640.8 
L 504.215905 640.8 
z
" clip-path="url(#pd0b05c8802)" style="fill: #1f77b4; stroke: #ffffff; stroke-width: 0.3; stroke-linejoin: miter"/>
   </g>
   <g id="patch_100">
    <path d="M 507.665597 640.8 
L 511.11529 640.8 
L 511.11529 639.247059 
L 507.665597 639.247059 
z
" clip-path="url(#pd0b05c8802)" style="fill: #1f77b4; stroke: #ffffff; stroke-width: 0.3; stroke-linejoin: miter"/>
   </g>
   <g id="patch_101">
    <path d="M 511.11529 640.8 
L 514.564982 640.8 
L 514.564982 640.8 
L 511.11529 640.8 
z
" clip-path="url(#pd0b05c8802)" style="fill: #1f77b4; stroke: #ffffff; stroke-width: 0.3; stroke-linejoin: miter"/>
   </g>
   <g id="patch_102">
    <path d="M 514.564982 640.8 
L 518.014674 640.8 
L 518.014674 636.141176 
L 514.564982 636.141176 
z
" clip-path="url(#pd0b05c8802)" style="fill: #1f77b4; stroke: #ffffff; stroke-width: 0.3; stroke-linejoin: miter"/>
   </g>
   <g id="matplotlib.axis_1">
    <g id="xtick_1">
     <g id="line2d_1">
      <defs>
       <path id="m34b93d2d31" d="M 0 0 
L 0 3.5 
" style="stroke: #000000; stroke-width: 0.8"/>
      </defs>
      <g>
       <use xlink:href="#m34b93d2d31" x="153.60144" y="640.8" style="stroke: #000000; stroke-width: 0.8"/>
      </g>
     </g>
     <g id="text_1">
      <!-- −100 -->
      <g transform="translate(139.867847 655.398438) scale(0.1 -0.1)">
       <defs>
        <path id="DejaVuSans-2212" d="M 678 2272 
L 4684 2272 
L 4684 1741 
L 678 1741 
L 678 2272 
z
" transform="scale(0.015625)"/>
        <path id="DejaVuSans-31" d="M 794 531 
L 1825 531 
L 1825 4091 
L 703 3866 
L 703 4441 
L 1819 4666 
L 2450 4666 
L 2450 531 
L 3481 531 
L 3481 0 
L 794 0 
L 794 531 
z
" transform="scale(0.015625)"/>
        <path id="DejaVuSans-30" d="M 2034 4250 
Q 1547 4250 1301 3770 
Q 1056 3291 1056 2328 
Q 1056 1369 1301 889 
Q 1547 409 2034 409 
Q 2525 409 2770 889 
Q 3016 1369 3016 2328 
Q 3016 3291 2770 3770 
Q 2525 4250 2034 4250 
z
M 2034 4750 
Q 2819 4750 3233 4129 
Q 3647 3509 3647 2328 
Q 3647 1150 3233 529 
Q 2819 -91 2034 -91 
Q 1250 -91 836 529 
Q 422 1150 422 2328 
Q 422 3509 836 4129 
Q 1250 4750 2034 4750 
z
" transform="scale(0.015625)"/>
       </defs>
       <use xlink:href="#DejaVuSans-2212"/>
       <use xlink:href="#DejaVuSans-31" x="83.789062"/>
       <use xlink:href="#DejaVuSans-30" x="147.412109"/>
       <use xlink:href="#DejaVuSans-30" x="211.035156"/>
      </g>
     </g>
    </g>
    <g id="xtick_2">
     <g id="line2d_2">
      <g>
       <use xlink:href="#m34b93d2d31" x="269.050275" y="640.8" style="stroke: #000000; stroke-width: 0.8"/>
      </g>
     </g>
     <g id="text_2">
      <!-- −75 -->
      <g transform="translate(258.497931 655.398438) scale(0.1 -0.1)">
       <defs>
        <path id="DejaVuSans-37" d="M 525 4666 
L 3525 4666 
L 3525 4397 
L 1831 0 
L 1172 0 
L 2766 4134 
L 525 4134 
L 525 4666 
z
" transform="scale(0.015625)"/>
        <path id="DejaVuSans-35" d="M 691 4666 
L 3169 4666 
L 3169 4134 
L 1269 4134 
L 1269 2991 
Q 1406 3038 1543 3061 
Q 1681 3084 1819 3084 
Q 2600 3084 3056 2656 
Q 3513 2228 3513 1497 
Q 3513 744 3044 326 
Q 2575 -91 1722 -91 
Q 1428 -91 1123 -41 
Q 819 9 494 109 
L 494 744 
Q 775 591 1075 516 
Q 1375 441 1709 441 
Q 2250 441 2565 725 
Q 2881 1009 2881 1497 
Q 2881 1984 2565 2268 
Q 2250 2553 1709 2553 
Q 1456 2553 1204 2497 
Q 953 2441 691 2322 
L 691 4666 
z
" transform="scale(0.015625)"/>
       </defs>
       <use xlink:href="#DejaVuSans-2212"/>
       <use xlink:href="#DejaVuSans-37" x="83.789062"/>
       <use xlink:href="#DejaVuSans-35" x="147.412109"/>
      </g>
     </g>
    </g>
    <g id="xtick_3">
     <g id="line2d_3">
      <g>
       <use xlink:href="#m34b93d2d31" x="384.499109" y="640.8" style="stroke: #000000; stroke-width: 0.8"/>
      </g>
     </g>
     <g id="text_3">
      <!-- −50 -->
      <g transform="translate(373.946766 655.398438) scale(0.1 -0.1)">
       <use xlink:href="#DejaVuSans-2212"/>
       <use xlink:href="#DejaVuSans-35" x="83.789062"/>
       <use xlink:href="#DejaVuSans-30" x="147.412109"/>
      </g>
     </g>
    </g>
    <g id="xtick_4">
     <g id="line2d_4">
      <g>
       <use xlink:href="#m34b93d2d31" x="499.947944" y="640.8" style="stroke: #000000; stroke-width: 0.8"/>
      </g>
     </g>
     <g id="text_4">
      <!-- −25 -->
      <g transform="translate(489.3956 655.398438) scale(0.1 -0.1)">
       <defs>
        <path id="DejaVuSans-32" d="M 1228 531 
L 3431 531 
L 3431 0 
L 469 0 
L 469 531 
Q 828 903 1448 1529 
Q 2069 2156 2228 2338 
Q 2531 2678 2651 2914 
Q 2772 3150 2772 3378 
Q 2772 3750 2511 3984 
Q 2250 4219 1831 4219 
Q 1534 4219 1204 4116 
Q 875 4013 500 3803 
L 500 4441 
Q 881 4594 1212 4672 
Q 1544 4750 1819 4750 
Q 2544 4750 2975 4387 
Q 3406 4025 3406 3419 
Q 3406 3131 3298 2873 
Q 3191 2616 2906 2266 
Q 2828 2175 2409 1742 
Q 1991 1309 1228 531 
z
" transform="scale(0.015625)"/>
       </defs>
       <use xlink:href="#DejaVuSans-2212"/>
       <use xlink:href="#DejaVuSans-32" x="83.789062"/>
       <use xlink:href="#DejaVuSans-35" x="147.412109"/>
      </g>
     </g>
    </g>
    <g id="xtick_5">
     <g id="line2d_5">
      <g>
       <use xlink:href="#m34b93d2d31" x="615.396779" y="640.8" style="stroke: #000000; stroke-width: 0.8"/>
      </g>
     </g>
     <g id="text_5">
      <!-- 0 -->
      <g transform="translate(612.215529 655.398438) scale(0.1 -0.1)">
       <use xlink:href="#DejaVuSans-30"/>
      </g>
     </g>
    </g>
    <g id="xtick_6">
     <g id="line2d_6">
      <g>
       <use xlink:href="#m34b93d2d31" x="730.845613" y="640.8" style="stroke: #000000; stroke-width: 0.8"/>
      </g>
     </g>
     <g id="text_6">
      <!-- 25 -->
      <g transform="translate(724.483113 655.398438) scale(0.1 -0.1)">
       <use xlink:href="#DejaVuSans-32"/>
       <use xlink:href="#DejaVuSans-35" x="63.623047"/>
      </g>
     </g>
    </g>
    <g id="xtick_7">
     <g id="line2d_7">
      <g>
       <use xlink:href="#m34b93d2d31" x="846.294448" y="640.8" style="stroke: #000000; stroke-width: 0.8"/>
      </g>
     </g>
     <g id="text_7">
      <!-- 50 -->
      <g transform="translate(839.931948 655.398438) scale(0.1 -0.1)">
       <use xlink:href="#DejaVuSans-35"/>
       <use xlink:href="#DejaVuSans-30" x="63.623047"/>
      </g>
     </g>
    </g>
    <g id="xtick_8">
     <g id="line2d_8">
      <g>
       <use xlink:href="#m34b93d2d31" x="961.743282" y="640.8" style="stroke: #000000; stroke-width: 0.8"/>
      </g>
     </g>
     <g id="text_8">
      <!-- 75 -->
      <g transform="translate(955.380782 655.398438) scale(0.1 -0.1)">
       <use xlink:href="#DejaVuSans-37"/>
       <use xlink:href="#DejaVuSans-35" x="63.623047"/>
      </g>
     </g>
    </g>
    <g id="text_9">
     <!-- Code cost -->
     <g transform="translate(528.735937 669.076563) scale(0.1 -0.1)">
      <defs>
       <path id="DejaVuSans-43" d="M 4122 4306 
L 4122 3641 
Q 3803 3938 3442 4084 
Q 3081 4231 2675 4231 
Q 1875 4231 1450 3742 
Q 1025 3253 1025 2328 
Q 1025 1406 1450 917 
Q 1875 428 2675 428 
Q 3081 428 3442 575 
Q 3803 722 4122 1019 
L 4122 359 
Q 3791 134 3420 21 
Q 3050 -91 2638 -91 
Q 1578 -91 968 557 
Q 359 1206 359 2328 
Q 359 3453 968 4101 
Q 1578 4750 2638 4750 
Q 3056 4750 3426 4639 
Q 3797 4528 4122 4306 
z
" transform="scale(0.015625)"/>
       <path id="DejaVuSans-6f" d="M 1959 3097 
Q 1497 3097 1228 2736 
Q 959 2375 959 1747 
Q 959 1119 1226 758 
Q 1494 397 1959 397 
Q 2419 397 2687 759 
Q 2956 1122 2956 1747 
Q 2956 2369 2687 2733 
Q 2419 3097 1959 3097 
z
M 1959 3584 
Q 2709 3584 3137 3096 
Q 3566 2609 3566 1747 
Q 3566 888 3137 398 
Q 2709 -91 1959 -91 
Q 1206 -91 779 398 
Q 353 888 353 1747 
Q 353 2609 779 3096 
Q 1206 3584 1959 3584 
z
" transform="scale(0.015625)"/>
       <path id="DejaVuSans-64" d="M 2906 2969 
L 2906 4863 
L 3481 4863 
L 3481 0 
L 2906 0 
L 2906 525 
Q 2725 213 2448 61 
Q 2172 -91 1784 -91 
Q 1150 -91 751 415 
Q 353 922 353 1747 
Q 353 2572 751 3078 
Q 1150 3584 1784 3584 
Q 2172 3584 2448 3432 
Q 2725 3281 2906 2969 
z
M 947 1747 
Q 947 1113 1208 752 
Q 1469 391 1925 391 
Q 2381 391 2643 752 
Q 2906 1113 2906 1747 
Q 2906 2381 2643 2742 
Q 2381 3103 1925 3103 
Q 1469 3103 1208 2742 
Q 947 2381 947 1747 
z
" transform="scale(0.015625)"/>
       <path id="DejaVuSans-65" d="M 3597 1894 
L 3597 1613 
L 953 1613 
Q 991 1019 1311 708 
Q 1631 397 2203 397 
Q 2534 397 2845 478 
Q 3156 559 3463 722 
L 3463 178 
Q 3153 47 2828 -22 
Q 2503 -91 2169 -91 
Q 1331 -91 842 396 
Q 353 884 353 1716 
Q 353 2575 817 3079 
Q 1281 3584 2069 3584 
Q 2775 3584 3186 3129 
Q 3597 2675 3597 1894 
z
M 3022 2063 
Q 3016 2534 2758 2815 
Q 2500 3097 2075 3097 
Q 1594 3097 1305 2825 
Q 1016 2553 972 2059 
L 3022 2063 
z
" transform="scale(0.015625)"/>
       <path id="DejaVuSans-20" transform="scale(0.015625)"/>
       <path id="DejaVuSans-63" d="M 3122 3366 
L 3122 2828 
Q 2878 2963 2633 3030 
Q 2388 3097 2138 3097 
Q 1578 3097 1268 2742 
Q 959 2388 959 1747 
Q 959 1106 1268 751 
Q 1578 397 2138 397 
Q 2388 397 2633 464 
Q 2878 531 3122 666 
L 3122 134 
Q 2881 22 2623 -34 
Q 2366 -91 2075 -91 
Q 1284 -91 818 406 
Q 353 903 353 1747 
Q 353 2603 823 3093 
Q 1294 3584 2113 3584 
Q 2378 3584 2631 3529 
Q 2884 3475 3122 3366 
z
" transform="scale(0.015625)"/>
       <path id="DejaVuSans-73" d="M 2834 3397 
L 2834 2853 
Q 2591 2978 2328 3040 
Q 2066 3103 1784 3103 
Q 1356 3103 1142 2972 
Q 928 2841 928 2578 
Q 928 2378 1081 2264 
Q 1234 2150 1697 2047 
L 1894 2003 
Q 2506 1872 2764 1633 
Q 3022 1394 3022 966 
Q 3022 478 2636 193 
Q 2250 -91 1575 -91 
Q 1294 -91 989 -36 
Q 684 19 347 128 
L 347 722 
Q 666 556 975 473 
Q 1284 391 1588 391 
Q 1994 391 2212 530 
Q 2431 669 2431 922 
Q 2431 1156 2273 1281 
Q 2116 1406 1581 1522 
L 1381 1569 
Q 847 1681 609 1914 
Q 372 2147 372 2553 
Q 372 3047 722 3315 
Q 1072 3584 1716 3584 
Q 2034 3584 2315 3537 
Q 2597 3491 2834 3397 
z
" transform="scale(0.015625)"/>
       <path id="DejaVuSans-74" d="M 1172 4494 
L 1172 3500 
L 2356 3500 
L 2356 3053 
L 1172 3053 
L 1172 1153 
Q 1172 725 1289 603 
Q 1406 481 1766 481 
L 2356 481 
L 2356 0 
L 1766 0 
Q 1100 0 847 248 
Q 594 497 594 1153 
L 594 3053 
L 172 3053 
L 172 3500 
L 594 3500 
L 594 4494 
L 1172 4494 
z
" transform="scale(0.015625)"/>
      </defs>
      <use xlink:href="#DejaVuSans-43"/>
      <use xlink:href="#DejaVuSans-6f" x="69.824219"/>
      <use xlink:href="#DejaVuSans-64" x="131.005859"/>
      <use xlink:href="#DejaVuSans-65" x="194.482422"/>
      <use xlink:href="#DejaVuSans-20" x="256.005859"/>
      <use xlink:href="#DejaVuSans-63" x="287.792969"/>
      <use xlink:href="#DejaVuSans-6f" x="342.773438"/>
      <use xlink:href="#DejaVuSans-73" x="403.955078"/>
      <use xlink:href="#DejaVuSans-74" x="456.054688"/>
     </g>
    </g>
   </g>
   <g id="matplotlib.axis_2">
    <g id="ytick_1">
     <g id="line2d_9">
      <defs>
       <path id="ma69c8f23ea" d="M 0 0 
L -3.5 0 
" style="stroke: #000000; stroke-width: 0.8"/>
      </defs>
      <g>
       <use xlink:href="#ma69c8f23ea" x="135" y="640.8" style="stroke: #000000; stroke-width: 0.8"/>
      </g>
     </g>
     <g id="text_10">
      <!-- 0 -->
      <g transform="translate(121.6375 644.599219) scale(0.1 -0.1)">
       <use xlink:href="#DejaVuSans-30"/>
      </g>
     </g>
    </g>
    <g id="ytick_2">
     <g id="line2d_10">
      <g>
       <use xlink:href="#ma69c8f23ea" x="135" y="563.152941" style="stroke: #000000; stroke-width: 0.8"/>
      </g>
     </g>
     <g id="text_11">
      <!-- 50 -->
      <g transform="translate(115.275 566.95216) scale(0.1 -0.1)">
       <use xlink:href="#DejaVuSans-35"/>
       <use xlink:href="#DejaVuSans-30" x="63.623047"/>
      </g>
     </g>
    </g>
    <g id="ytick_3">
     <g id="line2d_11">
      <g>
       <use xlink:href="#ma69c8f23ea" x="135" y="485.505882" style="stroke: #000000; stroke-width: 0.8"/>
      </g>
     </g>
     <g id="text_12">
      <!-- 100 -->
      <g transform="translate(108.9125 489.305101) scale(0.1 -0.1)">
       <use xlink:href="#DejaVuSans-31"/>
       <use xlink:href="#DejaVuSans-30" x="63.623047"/>
       <use xlink:href="#DejaVuSans-30" x="127.246094"/>
      </g>
     </g>
    </g>
    <g id="ytick_4">
     <g id="line2d_12">
      <g>
       <use xlink:href="#ma69c8f23ea" x="135" y="407.858824" style="stroke: #000000; stroke-width: 0.8"/>
      </g>
     </g>
     <g id="text_13">
      <!-- 150 -->
      <g transform="translate(108.9125 411.658042) scale(0.1 -0.1)">
       <use xlink:href="#DejaVuSans-31"/>
       <use xlink:href="#DejaVuSans-35" x="63.623047"/>
       <use xlink:href="#DejaVuSans-30" x="127.246094"/>
      </g>
     </g>
    </g>
    <g id="ytick_5">
     <g id="line2d_13">
      <g>
       <use xlink:href="#ma69c8f23ea" x="135" y="330.211765" style="stroke: #000000; stroke-width: 0.8"/>
      </g>
     </g>
     <g id="text_14">
      <!-- 200 -->
      <g transform="translate(108.9125 334.010983) scale(0.1 -0.1)">
       <use xlink:href="#DejaVuSans-32"/>
       <use xlink:href="#DejaVuSans-30" x="63.623047"/>
       <use xlink:href="#DejaVuSans-30" x="127.246094"/>
      </g>
     </g>
    </g>
    <g id="ytick_6">
     <g id="line2d_14">
      <g>
       <use xlink:href="#ma69c8f23ea" x="135" y="252.564706" style="stroke: #000000; stroke-width: 0.8"/>
      </g>
     </g>
     <g id="text_15">
      <!-- 250 -->
      <g transform="translate(108.9125 256.363925) scale(0.1 -0.1)">
       <use xlink:href="#DejaVuSans-32"/>
       <use xlink:href="#DejaVuSans-35" x="63.623047"/>
       <use xlink:href="#DejaVuSans-30" x="127.246094"/>
      </g>
     </g>
    </g>
    <g id="ytick_7">
     <g id="line2d_15">
      <g>
       <use xlink:href="#ma69c8f23ea" x="135" y="174.917647" style="stroke: #000000; stroke-width: 0.8"/>
      </g>
     </g>
     <g id="text_16">
      <!-- 300 -->
      <g transform="translate(108.9125 178.716866) scale(0.1 -0.1)">
       <defs>
        <path id="DejaVuSans-33" d="M 2597 2516 
Q 3050 2419 3304 2112 
Q 3559 1806 3559 1356 
Q 3559 666 3084 287 
Q 2609 -91 1734 -91 
Q 1441 -91 1130 -33 
Q 819 25 488 141 
L 488 750 
Q 750 597 1062 519 
Q 1375 441 1716 441 
Q 2309 441 2620 675 
Q 2931 909 2931 1356 
Q 2931 1769 2642 2001 
Q 2353 2234 1838 2234 
L 1294 2234 
L 1294 2753 
L 1863 2753 
Q 2328 2753 2575 2939 
Q 2822 3125 2822 3475 
Q 2822 3834 2567 4026 
Q 2313 4219 1838 4219 
Q 1578 4219 1281 4162 
Q 984 4106 628 3988 
L 628 4550 
Q 988 4650 1302 4700 
Q 1616 4750 1894 4750 
Q 2613 4750 3031 4423 
Q 3450 4097 3450 3541 
Q 3450 3153 3228 2886 
Q 3006 2619 2597 2516 
z
" transform="scale(0.015625)"/>
       </defs>
       <use xlink:href="#DejaVuSans-33"/>
       <use xlink:href="#DejaVuSans-30" x="63.623047"/>
       <use xlink:href="#DejaVuSans-30" x="127.246094"/>
      </g>
     </g>
    </g>
    <g id="ytick_8">
     <g id="line2d_16">
      <g>
       <use xlink:href="#ma69c8f23ea" x="135" y="97.270588" style="stroke: #000000; stroke-width: 0.8"/>
      </g>
     </g>
     <g id="text_17">
      <!-- 350 -->
      <g transform="translate(108.9125 101.069807) scale(0.1 -0.1)">
       <use xlink:href="#DejaVuSans-33"/>
       <use xlink:href="#DejaVuSans-35" x="63.623047"/>
       <use xlink:href="#DejaVuSans-30" x="127.246094"/>
      </g>
     </g>
    </g>
    <g id="text_18">
     <!-- Number of occurrences -->
     <g transform="translate(102.832812 421.996875) rotate(-90) scale(0.1 -0.1)">
      <defs>
       <path id="DejaVuSans-4e" d="M 628 4666 
L 1478 4666 
L 3547 763 
L 3547 4666 
L 4159 4666 
L 4159 0 
L 3309 0 
L 1241 3903 
L 1241 0 
L 628 0 
L 628 4666 
z
" transform="scale(0.015625)"/>
       <path id="DejaVuSans-75" d="M 544 1381 
L 544 3500 
L 1119 3500 
L 1119 1403 
Q 1119 906 1312 657 
Q 1506 409 1894 409 
Q 2359 409 2629 706 
Q 2900 1003 2900 1516 
L 2900 3500 
L 3475 3500 
L 3475 0 
L 2900 0 
L 2900 538 
Q 2691 219 2414 64 
Q 2138 -91 1772 -91 
Q 1169 -91 856 284 
Q 544 659 544 1381 
z
M 1991 3584 
L 1991 3584 
z
" transform="scale(0.015625)"/>
       <path id="DejaVuSans-6d" d="M 3328 2828 
Q 3544 3216 3844 3400 
Q 4144 3584 4550 3584 
Q 5097 3584 5394 3201 
Q 5691 2819 5691 2113 
L 5691 0 
L 5113 0 
L 5113 2094 
Q 5113 2597 4934 2840 
Q 4756 3084 4391 3084 
Q 3944 3084 3684 2787 
Q 3425 2491 3425 1978 
L 3425 0 
L 2847 0 
L 2847 2094 
Q 2847 2600 2669 2842 
Q 2491 3084 2119 3084 
Q 1678 3084 1418 2786 
Q 1159 2488 1159 1978 
L 1159 0 
L 581 0 
L 581 3500 
L 1159 3500 
L 1159 2956 
Q 1356 3278 1631 3431 
Q 1906 3584 2284 3584 
Q 2666 3584 2933 3390 
Q 3200 3197 3328 2828 
z
" transform="scale(0.015625)"/>
       <path id="DejaVuSans-62" d="M 3116 1747 
Q 3116 2381 2855 2742 
Q 2594 3103 2138 3103 
Q 1681 3103 1420 2742 
Q 1159 2381 1159 1747 
Q 1159 1113 1420 752 
Q 1681 391 2138 391 
Q 2594 391 2855 752 
Q 3116 1113 3116 1747 
z
M 1159 2969 
Q 1341 3281 1617 3432 
Q 1894 3584 2278 3584 
Q 2916 3584 3314 3078 
Q 3713 2572 3713 1747 
Q 3713 922 3314 415 
Q 2916 -91 2278 -91 
Q 1894 -91 1617 61 
Q 1341 213 1159 525 
L 1159 0 
L 581 0 
L 581 4863 
L 1159 4863 
L 1159 2969 
z
" transform="scale(0.015625)"/>
       <path id="DejaVuSans-72" d="M 2631 2963 
Q 2534 3019 2420 3045 
Q 2306 3072 2169 3072 
Q 1681 3072 1420 2755 
Q 1159 2438 1159 1844 
L 1159 0 
L 581 0 
L 581 3500 
L 1159 3500 
L 1159 2956 
Q 1341 3275 1631 3429 
Q 1922 3584 2338 3584 
Q 2397 3584 2469 3576 
Q 2541 3569 2628 3553 
L 2631 2963 
z
" transform="scale(0.015625)"/>
       <path id="DejaVuSans-66" d="M 2375 4863 
L 2375 4384 
L 1825 4384 
Q 1516 4384 1395 4259 
Q 1275 4134 1275 3809 
L 1275 3500 
L 2222 3500 
L 2222 3053 
L 1275 3053 
L 1275 0 
L 697 0 
L 697 3053 
L 147 3053 
L 147 3500 
L 697 3500 
L 697 3744 
Q 697 4328 969 4595 
Q 1241 4863 1831 4863 
L 2375 4863 
z
" transform="scale(0.015625)"/>
       <path id="DejaVuSans-6e" d="M 3513 2113 
L 3513 0 
L 2938 0 
L 2938 2094 
Q 2938 2591 2744 2837 
Q 2550 3084 2163 3084 
Q 1697 3084 1428 2787 
Q 1159 2491 1159 1978 
L 1159 0 
L 581 0 
L 581 3500 
L 1159 3500 
L 1159 2956 
Q 1366 3272 1645 3428 
Q 1925 3584 2291 3584 
Q 2894 3584 3203 3211 
Q 3513 2838 3513 2113 
z
" transform="scale(0.015625)"/>
      </defs>
      <use xlink:href="#DejaVuSans-4e"/>
      <use xlink:href="#DejaVuSans-75" x="74.804688"/>
      <use xlink:href="#DejaVuSans-6d" x="138.183594"/>
      <use xlink:href="#DejaVuSans-62" x="235.595703"/>
      <use xlink:href="#DejaVuSans-65" x="299.072266"/>
      <use xlink:href="#DejaVuSans-72" x="360.595703"/>
      <use xlink:href="#DejaVuSans-20" x="401.708984"/>
      <use xlink:href="#DejaVuSans-6f" x="433.496094"/>
      <use xlink:href="#DejaVuSans-66" x="494.677734"/>
      <use xlink:href="#DejaVuSans-20" x="529.882812"/>
      <use xlink:href="#DejaVuSans-6f" x="561.669922"/>
      <use xlink:href="#DejaVuSans-63" x="622.851562"/>
      <use xlink:href="#DejaVuSans-63" x="677.832031"/>
      <use xlink:href="#DejaVuSans-75" x="732.8125"/>
      <use xlink:href="#DejaVuSans-72" x="796.191406"/>
      <use xlink:href="#DejaVuSans-72" x="835.554688"/>
      <use xlink:href="#DejaVuSans-65" x="874.417969"/>
      <use xlink:href="#DejaVuSans-6e" x="935.941406"/>
      <use xlink:href="#DejaVuSans-63" x="999.320312"/>
      <use xlink:href="#DejaVuSans-65" x="1054.300781"/>
      <use xlink:href="#DejaVuSans-73" x="1115.824219"/>
     </g>
    </g>
   </g>
   <g id="line2d_17">
    <path d="M 933.954545 640.8 
L 933.954545 86.4 
" clip-path="url(#pd0b05c8802)" style="fill: none; stroke-dasharray: 5.55,2.4; stroke-dashoffset: 0; stroke: #ff0000; stroke-width: 1.5"/>
   </g>
   <g id="line2d_18">
    <path d="M 885.668577 640.8 
L 885.668577 86.4 
" clip-path="url(#pd0b05c8802)" style="fill: none; stroke-dasharray: 5.55,2.4; stroke-dashoffset: 0; stroke: #008000; stroke-width: 1.5"/>
   </g>
   <g id="patch_103">
    <path d="M 135 640.8 
L 135 86.4 
" style="fill: none; stroke: #000000; stroke-width: 0.8; stroke-linejoin: miter; stroke-linecap: square"/>
   </g>
   <g id="patch_104">
    <path d="M 972 640.8 
L 972 86.4 
" style="fill: none; stroke: #000000; stroke-width: 0.8; stroke-linejoin: miter; stroke-linecap: square"/>
   </g>
   <g id="patch_105">
    <path d="M 135 640.8 
L 972 640.8 
" style="fill: none; stroke: #000000; stroke-width: 0.8; stroke-linejoin: miter; stroke-linecap: square"/>
   </g>
   <g id="patch_106">
    <path d="M 135 86.4 
L 972 86.4 
" style="fill: none; stroke: #000000; stroke-width: 0.8; stroke-linejoin: miter; stroke-linecap: square"/>
   </g>
   <g id="text_19">
    <!-- Pam250 standard code cost -->
    <g transform="translate(945.002675 466.879687) rotate(-90) scale(0.1 -0.1)">
     <defs>
      <path id="DejaVuSans-50" d="M 1259 4147 
L 1259 2394 
L 2053 2394 
Q 2494 2394 2734 2622 
Q 2975 2850 2975 3272 
Q 2975 3691 2734 3919 
Q 2494 4147 2053 4147 
L 1259 4147 
z
M 628 4666 
L 2053 4666 
Q 2838 4666 3239 4311 
Q 3641 3956 3641 3272 
Q 3641 2581 3239 2228 
Q 2838 1875 2053 1875 
L 1259 1875 
L 1259 0 
L 628 0 
L 628 4666 
z
" transform="scale(0.015625)"/>
      <path id="DejaVuSans-61" d="M 2194 1759 
Q 1497 1759 1228 1600 
Q 959 1441 959 1056 
Q 959 750 1161 570 
Q 1363 391 1709 391 
Q 2188 391 2477 730 
Q 2766 1069 2766 1631 
L 2766 1759 
L 2194 1759 
z
M 3341 1997 
L 3341 0 
L 2766 0 
L 2766 531 
Q 2569 213 2275 61 
Q 1981 -91 1556 -91 
Q 1019 -91 701 211 
Q 384 513 384 1019 
Q 384 1609 779 1909 
Q 1175 2209 1959 2209 
L 2766 2209 
L 2766 2266 
Q 2766 2663 2505 2880 
Q 2244 3097 1772 3097 
Q 1472 3097 1187 3025 
Q 903 2953 641 2809 
L 641 3341 
Q 956 3463 1253 3523 
Q 1550 3584 1831 3584 
Q 2591 3584 2966 3190 
Q 3341 2797 3341 1997 
z
" transform="scale(0.015625)"/>
     </defs>
     <use xlink:href="#DejaVuSans-50"/>
     <use xlink:href="#DejaVuSans-61" x="55.802734"/>
     <use xlink:href="#DejaVuSans-6d" x="117.082031"/>
     <use xlink:href="#DejaVuSans-32" x="214.494141"/>
     <use xlink:href="#DejaVuSans-35" x="278.117188"/>
     <use xlink:href="#DejaVuSans-30" x="341.740234"/>
     <use xlink:href="#DejaVuSans-20" x="405.363281"/>
     <use xlink:href="#DejaVuSans-73" x="437.150391"/>
     <use xlink:href="#DejaVuSans-74" x="489.25"/>
     <use xlink:href="#DejaVuSans-61" x="528.458984"/>
     <use xlink:href="#DejaVuSans-6e" x="589.738281"/>
     <use xlink:href="#DejaVuSans-64" x="653.117188"/>
     <use xlink:href="#DejaVuSans-61" x="716.59375"/>
     <use xlink:href="#DejaVuSans-72" x="777.873047"/>
     <use xlink:href="#DejaVuSans-64" x="817.236328"/>
     <use xlink:href="#DejaVuSans-20" x="880.712891"/>
     <use xlink:href="#DejaVuSans-63" x="912.5"/>
     <use xlink:href="#DejaVuSans-6f" x="967.480469"/>
     <use xlink:href="#DejaVuSans-64" x="1028.662109"/>
     <use xlink:href="#DejaVuSans-65" x="1092.138672"/>
     <use xlink:href="#DejaVuSans-20" x="1153.662109"/>
     <use xlink:href="#DejaVuSans-63" x="1185.449219"/>
     <use xlink:href="#DejaVuSans-6f" x="1240.429688"/>
     <use xlink:href="#DejaVuSans-73" x="1301.611328"/>
     <use xlink:href="#DejaVuSans-74" x="1353.710938"/>
    </g>
   </g>
   <g id="text_20">
    <!-- Neutral substitutions standard code cost -->
    <g transform="translate(896.716706 466.879687) rotate(-90) scale(0.1 -0.1)">
     <defs>
      <path id="DejaVuSans-6c" d="M 603 4863 
L 1178 4863 
L 1178 0 
L 603 0 
L 603 4863 
z
" transform="scale(0.015625)"/>
      <path id="DejaVuSans-69" d="M 603 3500 
L 1178 3500 
L 1178 0 
L 603 0 
L 603 3500 
z
M 603 4863 
L 1178 4863 
L 1178 4134 
L 603 4134 
L 603 4863 
z
" transform="scale(0.015625)"/>
     </defs>
     <use xlink:href="#DejaVuSans-4e"/>
     <use xlink:href="#DejaVuSans-65" x="74.804688"/>
     <use xlink:href="#DejaVuSans-75" x="136.328125"/>
     <use xlink:href="#DejaVuSans-74" x="199.707031"/>
     <use xlink:href="#DejaVuSans-72" x="238.916016"/>
     <use xlink:href="#DejaVuSans-61" x="280.029297"/>
     <use xlink:href="#DejaVuSans-6c" x="341.308594"/>
     <use xlink:href="#DejaVuSans-20" x="369.091797"/>
     <use xlink:href="#DejaVuSans-73" x="400.878906"/>
     <use xlink:href="#DejaVuSans-75" x="452.978516"/>
     <use xlink:href="#DejaVuSans-62" x="516.357422"/>
     <use xlink:href="#DejaVuSans-73" x="579.833984"/>
     <use xlink:href="#DejaVuSans-74" x="631.933594"/>
     <use xlink:href="#DejaVuSans-69" x="671.142578"/>
     <use xlink:href="#DejaVuSans-74" x="698.925781"/>
     <use xlink:href="#DejaVuSans-75" x="738.134766"/>
     <use xlink:href="#DejaVuSans-74" x="801.513672"/>
     <use xlink:href="#DejaVuSans-69" x="840.722656"/>
     <use xlink:href="#DejaVuSans-6f" x="868.505859"/>
     <use xlink:href="#DejaVuSans-6e" x="929.6875"/>
     <use xlink:href="#DejaVuSans-73" x="993.066406"/>
     <use xlink:href="#DejaVuSans-20" x="1045.166016"/>
     <use xlink:href="#DejaVuSans-73" x="1076.953125"/>
     <use xlink:href="#DejaVuSans-74" x="1129.052734"/>
     <use xlink:href="#DejaVuSans-61" x="1168.261719"/>
     <use xlink:href="#DejaVuSans-6e" x="1229.541016"/>
     <use xlink:href="#DejaVuSans-64" x="1292.919922"/>
     <use xlink:href="#DejaVuSans-61" x="1356.396484"/>
     <use xlink:href="#DejaVuSans-72" x="1417.675781"/>
     <use xlink:href="#DejaVuSans-64" x="1457.039062"/>
     <use xlink:href="#DejaVuSans-20" x="1520.515625"/>
     <use xlink:href="#DejaVuSans-63" x="1552.302734"/>
     <use xlink:href="#DejaVuSans-6f" x="1607.283203"/>
     <use xlink:href="#DejaVuSans-64" x="1668.464844"/>
     <use xlink:href="#DejaVuSans-65" x="1731.941406"/>
     <use xlink:href="#DejaVuSans-20" x="1793.464844"/>
     <use xlink:href="#DejaVuSans-63" x="1825.251953"/>
     <use xlink:href="#DejaVuSans-6f" x="1880.232422"/>
     <use xlink:href="#DejaVuSans-73" x="1941.414062"/>
     <use xlink:href="#DejaVuSans-74" x="1993.513672"/>
    </g>
   </g>
   <g id="text_21">
    <!-- Number of occurrences of randomly simulated code costs per bracket for models generated using the PAM250 method -->
    <g transform="translate(196.009688 66.962625) scale(0.12 -0.12)">
     <defs>
      <path id="DejaVuSans-79" d="M 2059 -325 
Q 1816 -950 1584 -1140 
Q 1353 -1331 966 -1331 
L 506 -1331 
L 506 -850 
L 844 -850 
Q 1081 -850 1212 -737 
Q 1344 -625 1503 -206 
L 1606 56 
L 191 3500 
L 800 3500 
L 1894 763 
L 2988 3500 
L 3597 3500 
L 2059 -325 
z
" transform="scale(0.015625)"/>
      <path id="DejaVuSans-70" d="M 1159 525 
L 1159 -1331 
L 581 -1331 
L 581 3500 
L 1159 3500 
L 1159 2969 
Q 1341 3281 1617 3432 
Q 1894 3584 2278 3584 
Q 2916 3584 3314 3078 
Q 3713 2572 3713 1747 
Q 3713 922 3314 415 
Q 2916 -91 2278 -91 
Q 1894 -91 1617 61 
Q 1341 213 1159 525 
z
M 3116 1747 
Q 3116 2381 2855 2742 
Q 2594 3103 2138 3103 
Q 1681 3103 1420 2742 
Q 1159 2381 1159 1747 
Q 1159 1113 1420 752 
Q 1681 391 2138 391 
Q 2594 391 2855 752 
Q 3116 1113 3116 1747 
z
" transform="scale(0.015625)"/>
      <path id="DejaVuSans-6b" d="M 581 4863 
L 1159 4863 
L 1159 1991 
L 2875 3500 
L 3609 3500 
L 1753 1863 
L 3688 0 
L 2938 0 
L 1159 1709 
L 1159 0 
L 581 0 
L 581 4863 
z
" transform="scale(0.015625)"/>
      <path id="DejaVuSans-67" d="M 2906 1791 
Q 2906 2416 2648 2759 
Q 2391 3103 1925 3103 
Q 1463 3103 1205 2759 
Q 947 2416 947 1791 
Q 947 1169 1205 825 
Q 1463 481 1925 481 
Q 2391 481 2648 825 
Q 2906 1169 2906 1791 
z
M 3481 434 
Q 3481 -459 3084 -895 
Q 2688 -1331 1869 -1331 
Q 1566 -1331 1297 -1286 
Q 1028 -1241 775 -1147 
L 775 -588 
Q 1028 -725 1275 -790 
Q 1522 -856 1778 -856 
Q 2344 -856 2625 -561 
Q 2906 -266 2906 331 
L 2906 616 
Q 2728 306 2450 153 
Q 2172 0 1784 0 
Q 1141 0 747 490 
Q 353 981 353 1791 
Q 353 2603 747 3093 
Q 1141 3584 1784 3584 
Q 2172 3584 2450 3431 
Q 2728 3278 2906 2969 
L 2906 3500 
L 3481 3500 
L 3481 434 
z
" transform="scale(0.015625)"/>
      <path id="DejaVuSans-68" d="M 3513 2113 
L 3513 0 
L 2938 0 
L 2938 2094 
Q 2938 2591 2744 2837 
Q 2550 3084 2163 3084 
Q 1697 3084 1428 2787 
Q 1159 2491 1159 1978 
L 1159 0 
L 581 0 
L 581 4863 
L 1159 4863 
L 1159 2956 
Q 1366 3272 1645 3428 
Q 1925 3584 2291 3584 
Q 2894 3584 3203 3211 
Q 3513 2838 3513 2113 
z
" transform="scale(0.015625)"/>
      <path id="DejaVuSans-41" d="M 2188 4044 
L 1331 1722 
L 3047 1722 
L 2188 4044 
z
M 1831 4666 
L 2547 4666 
L 4325 0 
L 3669 0 
L 3244 1197 
L 1141 1197 
L 716 0 
L 50 0 
L 1831 4666 
z
" transform="scale(0.015625)"/>
      <path id="DejaVuSans-4d" d="M 628 4666 
L 1569 4666 
L 2759 1491 
L 3956 4666 
L 4897 4666 
L 4897 0 
L 4281 0 
L 4281 4097 
L 3078 897 
L 2444 897 
L 1241 4097 
L 1241 0 
L 628 0 
L 628 4666 
z
" transform="scale(0.015625)"/>
     </defs>
     <use xlink:href="#DejaVuSans-4e"/>
     <use xlink:href="#DejaVuSans-75" x="74.804688"/>
     <use xlink:href="#DejaVuSans-6d" x="138.183594"/>
     <use xlink:href="#DejaVuSans-62" x="235.595703"/>
     <use xlink:href="#DejaVuSans-65" x="299.072266"/>
     <use xlink:href="#DejaVuSans-72" x="360.595703"/>
     <use xlink:href="#DejaVuSans-20" x="401.708984"/>
     <use xlink:href="#DejaVuSans-6f" x="433.496094"/>
     <use xlink:href="#DejaVuSans-66" x="494.677734"/>
     <use xlink:href="#DejaVuSans-20" x="529.882812"/>
     <use xlink:href="#DejaVuSans-6f" x="561.669922"/>
     <use xlink:href="#DejaVuSans-63" x="622.851562"/>
     <use xlink:href="#DejaVuSans-63" x="677.832031"/>
     <use xlink:href="#DejaVuSans-75" x="732.8125"/>
     <use xlink:href="#DejaVuSans-72" x="796.191406"/>
     <use xlink:href="#DejaVuSans-72" x="835.554688"/>
     <use xlink:href="#DejaVuSans-65" x="874.417969"/>
     <use xlink:href="#DejaVuSans-6e" x="935.941406"/>
     <use xlink:href="#DejaVuSans-63" x="999.320312"/>
     <use xlink:href="#DejaVuSans-65" x="1054.300781"/>
     <use xlink:href="#DejaVuSans-73" x="1115.824219"/>
     <use xlink:href="#DejaVuSans-20" x="1167.923828"/>
     <use xlink:href="#DejaVuSans-6f" x="1199.710938"/>
     <use xlink:href="#DejaVuSans-66" x="1260.892578"/>
     <use xlink:href="#DejaVuSans-20" x="1296.097656"/>
     <use xlink:href="#DejaVuSans-72" x="1327.884766"/>
     <use xlink:href="#DejaVuSans-61" x="1368.998047"/>
     <use xlink:href="#DejaVuSans-6e" x="1430.277344"/>
     <use xlink:href="#DejaVuSans-64" x="1493.65625"/>
     <use xlink:href="#DejaVuSans-6f" x="1557.132812"/>
     <use xlink:href="#DejaVuSans-6d" x="1618.314453"/>
     <use xlink:href="#DejaVuSans-6c" x="1715.726562"/>
     <use xlink:href="#DejaVuSans-79" x="1743.509766"/>
     <use xlink:href="#DejaVuSans-20" x="1802.689453"/>
     <use xlink:href="#DejaVuSans-73" x="1834.476562"/>
     <use xlink:href="#DejaVuSans-69" x="1886.576172"/>
     <use xlink:href="#DejaVuSans-6d" x="1914.359375"/>
     <use xlink:href="#DejaVuSans-75" x="2011.771484"/>
     <use xlink:href="#DejaVuSans-6c" x="2075.150391"/>
     <use xlink:href="#DejaVuSans-61" x="2102.933594"/>
     <use xlink:href="#DejaVuSans-74" x="2164.212891"/>
     <use xlink:href="#DejaVuSans-65" x="2203.421875"/>
     <use xlink:href="#DejaVuSans-64" x="2264.945312"/>
     <use xlink:href="#DejaVuSans-20" x="2328.421875"/>
     <use xlink:href="#DejaVuSans-63" x="2360.208984"/>
     <use xlink:href="#DejaVuSans-6f" x="2415.189453"/>
     <use xlink:href="#DejaVuSans-64" x="2476.371094"/>
     <use xlink:href="#DejaVuSans-65" x="2539.847656"/>
     <use xlink:href="#DejaVuSans-20" x="2601.371094"/>
     <use xlink:href="#DejaVuSans-63" x="2633.158203"/>
     <use xlink:href="#DejaVuSans-6f" x="2688.138672"/>
     <use xlink:href="#DejaVuSans-73" x="2749.320312"/>
     <use xlink:href="#DejaVuSans-74" x="2801.419922"/>
     <use xlink:href="#DejaVuSans-73" x="2840.628906"/>
     <use xlink:href="#DejaVuSans-20" x="2892.728516"/>
     <use xlink:href="#DejaVuSans-70" x="2924.515625"/>
     <use xlink:href="#DejaVuSans-65" x="2987.992188"/>
     <use xlink:href="#DejaVuSans-72" x="3049.515625"/>
     <use xlink:href="#DejaVuSans-20" x="3090.628906"/>
     <use xlink:href="#DejaVuSans-62" x="3122.416016"/>
     <use xlink:href="#DejaVuSans-72" x="3185.892578"/>
     <use xlink:href="#DejaVuSans-61" x="3227.005859"/>
     <use xlink:href="#DejaVuSans-63" x="3288.285156"/>
     <use xlink:href="#DejaVuSans-6b" x="3343.265625"/>
     <use xlink:href="#DejaVuSans-65" x="3397.550781"/>
     <use xlink:href="#DejaVuSans-74" x="3459.074219"/>
     <use xlink:href="#DejaVuSans-20" x="3498.283203"/>
     <use xlink:href="#DejaVuSans-66" x="3530.070312"/>
     <use xlink:href="#DejaVuSans-6f" x="3565.275391"/>
     <use xlink:href="#DejaVuSans-72" x="3626.457031"/>
     <use xlink:href="#DejaVuSans-20" x="3667.570312"/>
     <use xlink:href="#DejaVuSans-6d" x="3699.357422"/>
     <use xlink:href="#DejaVuSans-6f" x="3796.769531"/>
     <use xlink:href="#DejaVuSans-64" x="3857.951172"/>
     <use xlink:href="#DejaVuSans-65" x="3921.427734"/>
     <use xlink:href="#DejaVuSans-6c" x="3982.951172"/>
     <use xlink:href="#DejaVuSans-73" x="4010.734375"/>
     <use xlink:href="#DejaVuSans-20" x="4062.833984"/>
     <use xlink:href="#DejaVuSans-67" x="4094.621094"/>
     <use xlink:href="#DejaVuSans-65" x="4158.097656"/>
     <use xlink:href="#DejaVuSans-6e" x="4219.621094"/>
     <use xlink:href="#DejaVuSans-65" x="4283"/>
     <use xlink:href="#DejaVuSans-72" x="4344.523438"/>
     <use xlink:href="#DejaVuSans-61" x="4385.636719"/>
     <use xlink:href="#DejaVuSans-74" x="4446.916016"/>
     <use xlink:href="#DejaVuSans-65" x="4486.125"/>
     <use xlink:href="#DejaVuSans-64" x="4547.648438"/>
     <use xlink:href="#DejaVuSans-20" x="4611.125"/>
     <use xlink:href="#DejaVuSans-75" x="4642.912109"/>
     <use xlink:href="#DejaVuSans-73" x="4706.291016"/>
     <use xlink:href="#DejaVuSans-69" x="4758.390625"/>
     <use xlink:href="#DejaVuSans-6e" x="4786.173828"/>
     <use xlink:href="#DejaVuSans-67" x="4849.552734"/>
     <use xlink:href="#DejaVuSans-20" x="4913.029297"/>
     <use xlink:href="#DejaVuSans-74" x="4944.816406"/>
     <use xlink:href="#DejaVuSans-68" x="4984.025391"/>
     <use xlink:href="#DejaVuSans-65" x="5047.404297"/>
     <use xlink:href="#DejaVuSans-20" x="5108.927734"/>
     <use xlink:href="#DejaVuSans-50" x="5140.714844"/>
     <use xlink:href="#DejaVuSans-41" x="5194.642578"/>
     <use xlink:href="#DejaVuSans-4d" x="5263.050781"/>
     <use xlink:href="#DejaVuSans-32" x="5349.330078"/>
     <use xlink:href="#DejaVuSans-35" x="5412.953125"/>
     <use xlink:href="#DejaVuSans-30" x="5476.576172"/>
     <use xlink:href="#DejaVuSans-20" x="5540.199219"/>
     <use xlink:href="#DejaVuSans-6d" x="5571.986328"/>
     <use xlink:href="#DejaVuSans-65" x="5669.398438"/>
     <use xlink:href="#DejaVuSans-74" x="5730.921875"/>
     <use xlink:href="#DejaVuSans-68" x="5770.130859"/>
     <use xlink:href="#DejaVuSans-6f" x="5833.509766"/>
     <use xlink:href="#DejaVuSans-64" x="5894.691406"/>
    </g>
    <!--  Sample size = 10000 -->
    <g transform="translate(487.625625 80.4) scale(0.12 -0.12)">
     <defs>
      <path id="DejaVuSans-53" d="M 3425 4513 
L 3425 3897 
Q 3066 4069 2747 4153 
Q 2428 4238 2131 4238 
Q 1616 4238 1336 4038 
Q 1056 3838 1056 3469 
Q 1056 3159 1242 3001 
Q 1428 2844 1947 2747 
L 2328 2669 
Q 3034 2534 3370 2195 
Q 3706 1856 3706 1288 
Q 3706 609 3251 259 
Q 2797 -91 1919 -91 
Q 1588 -91 1214 -16 
Q 841 59 441 206 
L 441 856 
Q 825 641 1194 531 
Q 1563 422 1919 422 
Q 2459 422 2753 634 
Q 3047 847 3047 1241 
Q 3047 1584 2836 1778 
Q 2625 1972 2144 2069 
L 1759 2144 
Q 1053 2284 737 2584 
Q 422 2884 422 3419 
Q 422 4038 858 4394 
Q 1294 4750 2059 4750 
Q 2388 4750 2728 4690 
Q 3069 4631 3425 4513 
z
" transform="scale(0.015625)"/>
      <path id="DejaVuSans-7a" d="M 353 3500 
L 3084 3500 
L 3084 2975 
L 922 459 
L 3084 459 
L 3084 0 
L 275 0 
L 275 525 
L 2438 3041 
L 353 3041 
L 353 3500 
z
" transform="scale(0.015625)"/>
      <path id="DejaVuSans-3d" d="M 678 2906 
L 4684 2906 
L 4684 2381 
L 678 2381 
L 678 2906 
z
M 678 1631 
L 4684 1631 
L 4684 1100 
L 678 1100 
L 678 1631 
z
" transform="scale(0.015625)"/>
     </defs>
     <use xlink:href="#DejaVuSans-20"/>
     <use xlink:href="#DejaVuSans-53" x="31.787109"/>
     <use xlink:href="#DejaVuSans-61" x="95.263672"/>
     <use xlink:href="#DejaVuSans-6d" x="156.542969"/>
     <use xlink:href="#DejaVuSans-70" x="253.955078"/>
     <use xlink:href="#DejaVuSans-6c" x="317.431641"/>
     <use xlink:href="#DejaVuSans-65" x="345.214844"/>
     <use xlink:href="#DejaVuSans-20" x="406.738281"/>
     <use xlink:href="#DejaVuSans-73" x="438.525391"/>
     <use xlink:href="#DejaVuSans-69" x="490.625"/>
     <use xlink:href="#DejaVuSans-7a" x="518.408203"/>
     <use xlink:href="#DejaVuSans-65" x="570.898438"/>
     <use xlink:href="#DejaVuSans-20" x="632.421875"/>
     <use xlink:href="#DejaVuSans-3d" x="664.208984"/>
     <use xlink:href="#DejaVuSans-20" x="747.998047"/>
     <use xlink:href="#DejaVuSans-31" x="779.785156"/>
     <use xlink:href="#DejaVuSans-30" x="843.408203"/>
     <use xlink:href="#DejaVuSans-30" x="907.03125"/>
     <use xlink:href="#DejaVuSans-30" x="970.654297"/>
     <use xlink:href="#DejaVuSans-30" x="1034.277344"/>
    </g>
   </g>
  </g>
 </g>
 <defs>
  <clipPath id="pd0b05c8802">
   <rect x="135" y="86.4" width="837" height="554.4"/>
  </clipPath>
 </defs>
</svg>
