<?xml version="1.0" encoding="utf-8" standalone="no"?>
<!DOCTYPE svg PUBLIC "-//W3C//DTD SVG 1.1//EN"
  "http://www.w3.org/Graphics/SVG/1.1/DTD/svg11.dtd">
<svg xmlns:xlink="http://www.w3.org/1999/xlink" width="1080pt" height="720pt" viewBox="0 0 1080 720" xmlns="http://www.w3.org/2000/svg" version="1.1">
 <metadata>
  <rdf:RDF xmlns:dc="http://purl.org/dc/elements/1.1/" xmlns:cc="http://creativecommons.org/ns#" xmlns:rdf="http://www.w3.org/1999/02/22-rdf-syntax-ns#">
   <cc:Work>
    <dc:type rdf:resource="http://purl.org/dc/dcmitype/StillImage"/>
    <dc:date>2024-06-17T15:21:37.994728</dc:date>
    <dc:format>image/svg+xml</dc:format>
    <dc:creator>
     <cc:Agent>
      <dc:title>Matplotlib v3.7.1, https://matplotlib.org/</dc:title>
     </cc:Agent>
    </dc:creator>
   </cc:Work>
  </rdf:RDF>
 </metadata>
 <defs>
  <style type="text/css">*{stroke-linejoin: round; stroke-linecap: butt}</style>
 </defs>
 <g id="figure_1">
  <g id="patch_1">
   <path d="M 0 720 
L 1080 720 
L 1080 0 
L 0 0 
z
" style="fill: #ffffff"/>
  </g>
  <g id="axes_1">
   <g id="patch_2">
    <path d="M 135 640.8 
L 972 640.8 
L 972 86.4 
L 135 86.4 
z
" style="fill: #ffffff"/>
   </g>
   <g id="patch_3">
    <path d="M 173.045455 640.8 
L 180.654545 640.8 
L 180.654545 634.933333 
L 173.045455 634.933333 
z
" clip-path="url(#pa1ee19e384)" style="fill: #1f77b4; stroke: #ffffff; stroke-width: 0.3; stroke-linejoin: miter"/>
   </g>
   <g id="patch_4">
    <path d="M 180.654545 640.8 
L 188.263636 640.8 
L 188.263636 638.844444 
L 180.654545 638.844444 
z
" clip-path="url(#pa1ee19e384)" style="fill: #1f77b4; stroke: #ffffff; stroke-width: 0.3; stroke-linejoin: miter"/>
   </g>
   <g id="patch_5">
    <path d="M 188.263636 640.8 
L 195.872727 640.8 
L 195.872727 640.8 
L 188.263636 640.8 
z
" clip-path="url(#pa1ee19e384)" style="fill: #1f77b4; stroke: #ffffff; stroke-width: 0.3; stroke-linejoin: miter"/>
   </g>
   <g id="patch_6">
    <path d="M 195.872727 640.8 
L 203.481818 640.8 
L 203.481818 632.977778 
L 195.872727 632.977778 
z
" clip-path="url(#pa1ee19e384)" style="fill: #1f77b4; stroke: #ffffff; stroke-width: 0.3; stroke-linejoin: miter"/>
   </g>
   <g id="patch_7">
    <path d="M 203.481818 640.8 
L 211.090909 640.8 
L 211.090909 638.844444 
L 203.481818 638.844444 
z
" clip-path="url(#pa1ee19e384)" style="fill: #1f77b4; stroke: #ffffff; stroke-width: 0.3; stroke-linejoin: miter"/>
   </g>
   <g id="patch_8">
    <path d="M 211.090909 640.8 
L 218.7 640.8 
L 218.7 634.933333 
L 211.090909 634.933333 
z
" clip-path="url(#pa1ee19e384)" style="fill: #1f77b4; stroke: #ffffff; stroke-width: 0.3; stroke-linejoin: miter"/>
   </g>
   <g id="patch_9">
    <path d="M 218.7 640.8 
L 226.309091 640.8 
L 226.309091 625.155556 
L 218.7 625.155556 
z
" clip-path="url(#pa1ee19e384)" style="fill: #1f77b4; stroke: #ffffff; stroke-width: 0.3; stroke-linejoin: miter"/>
   </g>
   <g id="patch_10">
    <path d="M 226.309091 640.8 
L 233.918182 640.8 
L 233.918182 632.977778 
L 226.309091 632.977778 
z
" clip-path="url(#pa1ee19e384)" style="fill: #1f77b4; stroke: #ffffff; stroke-width: 0.3; stroke-linejoin: miter"/>
   </g>
   <g id="patch_11">
    <path d="M 233.918182 640.8 
L 241.527273 640.8 
L 241.527273 619.288889 
L 233.918182 619.288889 
z
" clip-path="url(#pa1ee19e384)" style="fill: #1f77b4; stroke: #ffffff; stroke-width: 0.3; stroke-linejoin: miter"/>
   </g>
   <g id="patch_12">
    <path d="M 241.527273 640.8 
L 249.136364 640.8 
L 249.136364 631.022222 
L 241.527273 631.022222 
z
" clip-path="url(#pa1ee19e384)" style="fill: #1f77b4; stroke: #ffffff; stroke-width: 0.3; stroke-linejoin: miter"/>
   </g>
   <g id="patch_13">
    <path d="M 249.136364 640.8 
L 256.745455 640.8 
L 256.745455 621.244444 
L 249.136364 621.244444 
z
" clip-path="url(#pa1ee19e384)" style="fill: #1f77b4; stroke: #ffffff; stroke-width: 0.3; stroke-linejoin: miter"/>
   </g>
   <g id="patch_14">
    <path d="M 256.745455 640.8 
L 264.354545 640.8 
L 264.354545 631.022222 
L 256.745455 631.022222 
z
" clip-path="url(#pa1ee19e384)" style="fill: #1f77b4; stroke: #ffffff; stroke-width: 0.3; stroke-linejoin: miter"/>
   </g>
   <g id="patch_15">
    <path d="M 264.354545 640.8 
L 271.963636 640.8 
L 271.963636 613.422222 
L 264.354545 613.422222 
z
" clip-path="url(#pa1ee19e384)" style="fill: #1f77b4; stroke: #ffffff; stroke-width: 0.3; stroke-linejoin: miter"/>
   </g>
   <g id="patch_16">
    <path d="M 271.963636 640.8 
L 279.572727 640.8 
L 279.572727 605.6 
L 271.963636 605.6 
z
" clip-path="url(#pa1ee19e384)" style="fill: #1f77b4; stroke: #ffffff; stroke-width: 0.3; stroke-linejoin: miter"/>
   </g>
   <g id="patch_17">
    <path d="M 279.572727 640.8 
L 287.181818 640.8 
L 287.181818 576.266667 
L 279.572727 576.266667 
z
" clip-path="url(#pa1ee19e384)" style="fill: #1f77b4; stroke: #ffffff; stroke-width: 0.3; stroke-linejoin: miter"/>
   </g>
   <g id="patch_18">
    <path d="M 287.181818 640.8 
L 294.790909 640.8 
L 294.790909 582.133333 
L 287.181818 582.133333 
z
" clip-path="url(#pa1ee19e384)" style="fill: #1f77b4; stroke: #ffffff; stroke-width: 0.3; stroke-linejoin: miter"/>
   </g>
   <g id="patch_19">
    <path d="M 294.790909 640.8 
L 302.4 640.8 
L 302.4 574.311111 
L 294.790909 574.311111 
z
" clip-path="url(#pa1ee19e384)" style="fill: #1f77b4; stroke: #ffffff; stroke-width: 0.3; stroke-linejoin: miter"/>
   </g>
   <g id="patch_20">
    <path d="M 302.4 640.8 
L 310.009091 640.8 
L 310.009091 562.577778 
L 302.4 562.577778 
z
" clip-path="url(#pa1ee19e384)" style="fill: #1f77b4; stroke: #ffffff; stroke-width: 0.3; stroke-linejoin: miter"/>
   </g>
   <g id="patch_21">
    <path d="M 310.009091 640.8 
L 317.618182 640.8 
L 317.618182 586.044444 
L 310.009091 586.044444 
z
" clip-path="url(#pa1ee19e384)" style="fill: #1f77b4; stroke: #ffffff; stroke-width: 0.3; stroke-linejoin: miter"/>
   </g>
   <g id="patch_22">
    <path d="M 317.618182 640.8 
L 325.227273 640.8 
L 325.227273 584.088889 
L 317.618182 584.088889 
z
" clip-path="url(#pa1ee19e384)" style="fill: #1f77b4; stroke: #ffffff; stroke-width: 0.3; stroke-linejoin: miter"/>
   </g>
   <g id="patch_23">
    <path d="M 325.227273 640.8 
L 332.836364 640.8 
L 332.836364 570.4 
L 325.227273 570.4 
z
" clip-path="url(#pa1ee19e384)" style="fill: #1f77b4; stroke: #ffffff; stroke-width: 0.3; stroke-linejoin: miter"/>
   </g>
   <g id="patch_24">
    <path d="M 332.836364 640.8 
L 340.445455 640.8 
L 340.445455 580.177778 
L 332.836364 580.177778 
z
" clip-path="url(#pa1ee19e384)" style="fill: #1f77b4; stroke: #ffffff; stroke-width: 0.3; stroke-linejoin: miter"/>
   </g>
   <g id="patch_25">
    <path d="M 340.445455 640.8 
L 348.054545 640.8 
L 348.054545 572.355556 
L 340.445455 572.355556 
z
" clip-path="url(#pa1ee19e384)" style="fill: #1f77b4; stroke: #ffffff; stroke-width: 0.3; stroke-linejoin: miter"/>
   </g>
   <g id="patch_26">
    <path d="M 348.054545 640.8 
L 355.663636 640.8 
L 355.663636 541.066667 
L 348.054545 541.066667 
z
" clip-path="url(#pa1ee19e384)" style="fill: #1f77b4; stroke: #ffffff; stroke-width: 0.3; stroke-linejoin: miter"/>
   </g>
   <g id="patch_27">
    <path d="M 355.663636 640.8 
L 363.272727 640.8 
L 363.272727 537.155556 
L 355.663636 537.155556 
z
" clip-path="url(#pa1ee19e384)" style="fill: #1f77b4; stroke: #ffffff; stroke-width: 0.3; stroke-linejoin: miter"/>
   </g>
   <g id="patch_28">
    <path d="M 363.272727 640.8 
L 370.881818 640.8 
L 370.881818 521.511111 
L 363.272727 521.511111 
z
" clip-path="url(#pa1ee19e384)" style="fill: #1f77b4; stroke: #ffffff; stroke-width: 0.3; stroke-linejoin: miter"/>
   </g>
   <g id="patch_29">
    <path d="M 370.881818 640.8 
L 378.490909 640.8 
L 378.490909 511.733333 
L 370.881818 511.733333 
z
" clip-path="url(#pa1ee19e384)" style="fill: #1f77b4; stroke: #ffffff; stroke-width: 0.3; stroke-linejoin: miter"/>
   </g>
   <g id="patch_30">
    <path d="M 378.490909 640.8 
L 386.1 640.8 
L 386.1 513.688889 
L 378.490909 513.688889 
z
" clip-path="url(#pa1ee19e384)" style="fill: #1f77b4; stroke: #ffffff; stroke-width: 0.3; stroke-linejoin: miter"/>
   </g>
   <g id="patch_31">
    <path d="M 386.1 640.8 
L 393.709091 640.8 
L 393.709091 484.355556 
L 386.1 484.355556 
z
" clip-path="url(#pa1ee19e384)" style="fill: #1f77b4; stroke: #ffffff; stroke-width: 0.3; stroke-linejoin: miter"/>
   </g>
   <g id="patch_32">
    <path d="M 393.709091 640.8 
L 401.318182 640.8 
L 401.318182 511.733333 
L 393.709091 511.733333 
z
" clip-path="url(#pa1ee19e384)" style="fill: #1f77b4; stroke: #ffffff; stroke-width: 0.3; stroke-linejoin: miter"/>
   </g>
   <g id="patch_33">
    <path d="M 401.318182 640.8 
L 408.927273 640.8 
L 408.927273 453.066667 
L 401.318182 453.066667 
z
" clip-path="url(#pa1ee19e384)" style="fill: #1f77b4; stroke: #ffffff; stroke-width: 0.3; stroke-linejoin: miter"/>
   </g>
   <g id="patch_34">
    <path d="M 408.927273 640.8 
L 416.536364 640.8 
L 416.536364 415.911111 
L 408.927273 415.911111 
z
" clip-path="url(#pa1ee19e384)" style="fill: #1f77b4; stroke: #ffffff; stroke-width: 0.3; stroke-linejoin: miter"/>
   </g>
   <g id="patch_35">
    <path d="M 416.536364 640.8 
L 424.145455 640.8 
L 424.145455 412 
L 416.536364 412 
z
" clip-path="url(#pa1ee19e384)" style="fill: #1f77b4; stroke: #ffffff; stroke-width: 0.3; stroke-linejoin: miter"/>
   </g>
   <g id="patch_36">
    <path d="M 424.145455 640.8 
L 431.754545 640.8 
L 431.754545 384.622222 
L 424.145455 384.622222 
z
" clip-path="url(#pa1ee19e384)" style="fill: #1f77b4; stroke: #ffffff; stroke-width: 0.3; stroke-linejoin: miter"/>
   </g>
   <g id="patch_37">
    <path d="M 431.754545 640.8 
L 439.363636 640.8 
L 439.363636 372.888889 
L 431.754545 372.888889 
z
" clip-path="url(#pa1ee19e384)" style="fill: #1f77b4; stroke: #ffffff; stroke-width: 0.3; stroke-linejoin: miter"/>
   </g>
   <g id="patch_38">
    <path d="M 439.363636 640.8 
L 446.972727 640.8 
L 446.972727 280.977778 
L 439.363636 280.977778 
z
" clip-path="url(#pa1ee19e384)" style="fill: #1f77b4; stroke: #ffffff; stroke-width: 0.3; stroke-linejoin: miter"/>
   </g>
   <g id="patch_39">
    <path d="M 446.972727 640.8 
L 454.581818 640.8 
L 454.581818 370.933333 
L 446.972727 370.933333 
z
" clip-path="url(#pa1ee19e384)" style="fill: #1f77b4; stroke: #ffffff; stroke-width: 0.3; stroke-linejoin: miter"/>
   </g>
   <g id="patch_40">
    <path d="M 454.581818 640.8 
L 462.190909 640.8 
L 462.190909 370.933333 
L 454.581818 370.933333 
z
" clip-path="url(#pa1ee19e384)" style="fill: #1f77b4; stroke: #ffffff; stroke-width: 0.3; stroke-linejoin: miter"/>
   </g>
   <g id="patch_41">
    <path d="M 462.190909 640.8 
L 469.8 640.8 
L 469.8 355.288889 
L 462.190909 355.288889 
z
" clip-path="url(#pa1ee19e384)" style="fill: #1f77b4; stroke: #ffffff; stroke-width: 0.3; stroke-linejoin: miter"/>
   </g>
   <g id="patch_42">
    <path d="M 469.8 640.8 
L 477.409091 640.8 
L 477.409091 386.577778 
L 469.8 386.577778 
z
" clip-path="url(#pa1ee19e384)" style="fill: #1f77b4; stroke: #ffffff; stroke-width: 0.3; stroke-linejoin: miter"/>
   </g>
   <g id="patch_43">
    <path d="M 477.409091 640.8 
L 485.018182 640.8 
L 485.018182 435.466667 
L 477.409091 435.466667 
z
" clip-path="url(#pa1ee19e384)" style="fill: #1f77b4; stroke: #ffffff; stroke-width: 0.3; stroke-linejoin: miter"/>
   </g>
   <g id="patch_44">
    <path d="M 485.018182 640.8 
L 492.627273 640.8 
L 492.627273 384.622222 
L 485.018182 384.622222 
z
" clip-path="url(#pa1ee19e384)" style="fill: #1f77b4; stroke: #ffffff; stroke-width: 0.3; stroke-linejoin: miter"/>
   </g>
   <g id="patch_45">
    <path d="M 492.627273 640.8 
L 500.236364 640.8 
L 500.236364 353.333333 
L 492.627273 353.333333 
z
" clip-path="url(#pa1ee19e384)" style="fill: #1f77b4; stroke: #ffffff; stroke-width: 0.3; stroke-linejoin: miter"/>
   </g>
   <g id="patch_46">
    <path d="M 500.236364 640.8 
L 507.845455 640.8 
L 507.845455 363.111111 
L 500.236364 363.111111 
z
" clip-path="url(#pa1ee19e384)" style="fill: #1f77b4; stroke: #ffffff; stroke-width: 0.3; stroke-linejoin: miter"/>
   </g>
   <g id="patch_47">
    <path d="M 507.845455 640.8 
L 515.454545 640.8 
L 515.454545 263.377778 
L 507.845455 263.377778 
z
" clip-path="url(#pa1ee19e384)" style="fill: #1f77b4; stroke: #ffffff; stroke-width: 0.3; stroke-linejoin: miter"/>
   </g>
   <g id="patch_48">
    <path d="M 515.454545 640.8 
L 523.063636 640.8 
L 523.063636 286.844444 
L 515.454545 286.844444 
z
" clip-path="url(#pa1ee19e384)" style="fill: #1f77b4; stroke: #ffffff; stroke-width: 0.3; stroke-linejoin: miter"/>
   </g>
   <g id="patch_49">
    <path d="M 523.063636 640.8 
L 530.672727 640.8 
L 530.672727 263.377778 
L 523.063636 263.377778 
z
" clip-path="url(#pa1ee19e384)" style="fill: #1f77b4; stroke: #ffffff; stroke-width: 0.3; stroke-linejoin: miter"/>
   </g>
   <g id="patch_50">
    <path d="M 530.672727 640.8 
L 538.281818 640.8 
L 538.281818 324 
L 530.672727 324 
z
" clip-path="url(#pa1ee19e384)" style="fill: #1f77b4; stroke: #ffffff; stroke-width: 0.3; stroke-linejoin: miter"/>
   </g>
   <g id="patch_51">
    <path d="M 538.281818 640.8 
L 545.890909 640.8 
L 545.890909 294.666667 
L 538.281818 294.666667 
z
" clip-path="url(#pa1ee19e384)" style="fill: #1f77b4; stroke: #ffffff; stroke-width: 0.3; stroke-linejoin: miter"/>
   </g>
   <g id="patch_52">
    <path d="M 545.890909 640.8 
L 553.5 640.8 
L 553.5 300.533333 
L 545.890909 300.533333 
z
" clip-path="url(#pa1ee19e384)" style="fill: #1f77b4; stroke: #ffffff; stroke-width: 0.3; stroke-linejoin: miter"/>
   </g>
   <g id="patch_53">
    <path d="M 553.5 640.8 
L 561.109091 640.8 
L 561.109091 275.111111 
L 553.5 275.111111 
z
" clip-path="url(#pa1ee19e384)" style="fill: #1f77b4; stroke: #ffffff; stroke-width: 0.3; stroke-linejoin: miter"/>
   </g>
   <g id="patch_54">
    <path d="M 561.109091 640.8 
L 568.718182 640.8 
L 568.718182 365.066667 
L 561.109091 365.066667 
z
" clip-path="url(#pa1ee19e384)" style="fill: #1f77b4; stroke: #ffffff; stroke-width: 0.3; stroke-linejoin: miter"/>
   </g>
   <g id="patch_55">
    <path d="M 568.718182 640.8 
L 576.327273 640.8 
L 576.327273 320.088889 
L 568.718182 320.088889 
z
" clip-path="url(#pa1ee19e384)" style="fill: #1f77b4; stroke: #ffffff; stroke-width: 0.3; stroke-linejoin: miter"/>
   </g>
   <g id="patch_56">
    <path d="M 576.327273 640.8 
L 583.936364 640.8 
L 583.936364 294.666667 
L 576.327273 294.666667 
z
" clip-path="url(#pa1ee19e384)" style="fill: #1f77b4; stroke: #ffffff; stroke-width: 0.3; stroke-linejoin: miter"/>
   </g>
   <g id="patch_57">
    <path d="M 583.936364 640.8 
L 591.545455 640.8 
L 591.545455 189.066667 
L 583.936364 189.066667 
z
" clip-path="url(#pa1ee19e384)" style="fill: #1f77b4; stroke: #ffffff; stroke-width: 0.3; stroke-linejoin: miter"/>
   </g>
   <g id="patch_58">
    <path d="M 591.545455 640.8 
L 599.154545 640.8 
L 599.154545 200.8 
L 591.545455 200.8 
z
" clip-path="url(#pa1ee19e384)" style="fill: #1f77b4; stroke: #ffffff; stroke-width: 0.3; stroke-linejoin: miter"/>
   </g>
   <g id="patch_59">
    <path d="M 599.154545 640.8 
L 606.763636 640.8 
L 606.763636 146.044444 
L 599.154545 146.044444 
z
" clip-path="url(#pa1ee19e384)" style="fill: #1f77b4; stroke: #ffffff; stroke-width: 0.3; stroke-linejoin: miter"/>
   </g>
   <g id="patch_60">
    <path d="M 606.763636 640.8 
L 614.372727 640.8 
L 614.372727 130.4 
L 606.763636 130.4 
z
" clip-path="url(#pa1ee19e384)" style="fill: #1f77b4; stroke: #ffffff; stroke-width: 0.3; stroke-linejoin: miter"/>
   </g>
   <g id="patch_61">
    <path d="M 614.372727 640.8 
L 621.981818 640.8 
L 621.981818 194.933333 
L 614.372727 194.933333 
z
" clip-path="url(#pa1ee19e384)" style="fill: #1f77b4; stroke: #ffffff; stroke-width: 0.3; stroke-linejoin: miter"/>
   </g>
   <g id="patch_62">
    <path d="M 621.981818 640.8 
L 629.590909 640.8 
L 629.590909 112.8 
L 621.981818 112.8 
z
" clip-path="url(#pa1ee19e384)" style="fill: #1f77b4; stroke: #ffffff; stroke-width: 0.3; stroke-linejoin: miter"/>
   </g>
   <g id="patch_63">
    <path d="M 629.590909 640.8 
L 637.2 640.8 
L 637.2 226.222222 
L 629.590909 226.222222 
z
" clip-path="url(#pa1ee19e384)" style="fill: #1f77b4; stroke: #ffffff; stroke-width: 0.3; stroke-linejoin: miter"/>
   </g>
   <g id="patch_64">
    <path d="M 637.2 640.8 
L 644.809091 640.8 
L 644.809091 234.044444 
L 637.2 234.044444 
z
" clip-path="url(#pa1ee19e384)" style="fill: #1f77b4; stroke: #ffffff; stroke-width: 0.3; stroke-linejoin: miter"/>
   </g>
   <g id="patch_65">
    <path d="M 644.809091 640.8 
L 652.418182 640.8 
L 652.418182 245.777778 
L 644.809091 245.777778 
z
" clip-path="url(#pa1ee19e384)" style="fill: #1f77b4; stroke: #ffffff; stroke-width: 0.3; stroke-linejoin: miter"/>
   </g>
   <g id="patch_66">
    <path d="M 652.418182 640.8 
L 660.027273 640.8 
L 660.027273 331.822222 
L 652.418182 331.822222 
z
" clip-path="url(#pa1ee19e384)" style="fill: #1f77b4; stroke: #ffffff; stroke-width: 0.3; stroke-linejoin: miter"/>
   </g>
   <g id="patch_67">
    <path d="M 660.027273 640.8 
L 667.636364 640.8 
L 667.636364 275.111111 
L 660.027273 275.111111 
z
" clip-path="url(#pa1ee19e384)" style="fill: #1f77b4; stroke: #ffffff; stroke-width: 0.3; stroke-linejoin: miter"/>
   </g>
   <g id="patch_68">
    <path d="M 667.636364 640.8 
L 675.245455 640.8 
L 675.245455 296.622222 
L 667.636364 296.622222 
z
" clip-path="url(#pa1ee19e384)" style="fill: #1f77b4; stroke: #ffffff; stroke-width: 0.3; stroke-linejoin: miter"/>
   </g>
   <g id="patch_69">
    <path d="M 675.245455 640.8 
L 682.854545 640.8 
L 682.854545 200.8 
L 675.245455 200.8 
z
" clip-path="url(#pa1ee19e384)" style="fill: #1f77b4; stroke: #ffffff; stroke-width: 0.3; stroke-linejoin: miter"/>
   </g>
   <g id="patch_70">
    <path d="M 682.854545 640.8 
L 690.463636 640.8 
L 690.463636 255.555556 
L 682.854545 255.555556 
z
" clip-path="url(#pa1ee19e384)" style="fill: #1f77b4; stroke: #ffffff; stroke-width: 0.3; stroke-linejoin: miter"/>
   </g>
   <g id="patch_71">
    <path d="M 690.463636 640.8 
L 698.072727 640.8 
L 698.072727 175.377778 
L 690.463636 175.377778 
z
" clip-path="url(#pa1ee19e384)" style="fill: #1f77b4; stroke: #ffffff; stroke-width: 0.3; stroke-linejoin: miter"/>
   </g>
   <g id="patch_72">
    <path d="M 698.072727 640.8 
L 705.681818 640.8 
L 705.681818 210.577778 
L 698.072727 210.577778 
z
" clip-path="url(#pa1ee19e384)" style="fill: #1f77b4; stroke: #ffffff; stroke-width: 0.3; stroke-linejoin: miter"/>
   </g>
   <g id="patch_73">
    <path d="M 705.681818 640.8 
L 713.290909 640.8 
L 713.290909 241.866667 
L 705.681818 241.866667 
z
" clip-path="url(#pa1ee19e384)" style="fill: #1f77b4; stroke: #ffffff; stroke-width: 0.3; stroke-linejoin: miter"/>
   </g>
   <g id="patch_74">
    <path d="M 713.290909 640.8 
L 720.9 640.8 
L 720.9 308.355556 
L 713.290909 308.355556 
z
" clip-path="url(#pa1ee19e384)" style="fill: #1f77b4; stroke: #ffffff; stroke-width: 0.3; stroke-linejoin: miter"/>
   </g>
   <g id="patch_75">
    <path d="M 720.9 640.8 
L 728.509091 640.8 
L 728.509091 359.2 
L 720.9 359.2 
z
" clip-path="url(#pa1ee19e384)" style="fill: #1f77b4; stroke: #ffffff; stroke-width: 0.3; stroke-linejoin: miter"/>
   </g>
   <g id="patch_76">
    <path d="M 728.509091 640.8 
L 736.118182 640.8 
L 736.118182 329.866667 
L 728.509091 329.866667 
z
" clip-path="url(#pa1ee19e384)" style="fill: #1f77b4; stroke: #ffffff; stroke-width: 0.3; stroke-linejoin: miter"/>
   </g>
   <g id="patch_77">
    <path d="M 736.118182 640.8 
L 743.727273 640.8 
L 743.727273 327.911111 
L 736.118182 327.911111 
z
" clip-path="url(#pa1ee19e384)" style="fill: #1f77b4; stroke: #ffffff; stroke-width: 0.3; stroke-linejoin: miter"/>
   </g>
   <g id="patch_78">
    <path d="M 743.727273 640.8 
L 751.336364 640.8 
L 751.336364 335.733333 
L 743.727273 335.733333 
z
" clip-path="url(#pa1ee19e384)" style="fill: #1f77b4; stroke: #ffffff; stroke-width: 0.3; stroke-linejoin: miter"/>
   </g>
   <g id="patch_79">
    <path d="M 751.336364 640.8 
L 758.945455 640.8 
L 758.945455 355.288889 
L 751.336364 355.288889 
z
" clip-path="url(#pa1ee19e384)" style="fill: #1f77b4; stroke: #ffffff; stroke-width: 0.3; stroke-linejoin: miter"/>
   </g>
   <g id="patch_80">
    <path d="M 758.945455 640.8 
L 766.554545 640.8 
L 766.554545 331.822222 
L 758.945455 331.822222 
z
" clip-path="url(#pa1ee19e384)" style="fill: #1f77b4; stroke: #ffffff; stroke-width: 0.3; stroke-linejoin: miter"/>
   </g>
   <g id="patch_81">
    <path d="M 766.554545 640.8 
L 774.163636 640.8 
L 774.163636 386.577778 
L 766.554545 386.577778 
z
" clip-path="url(#pa1ee19e384)" style="fill: #1f77b4; stroke: #ffffff; stroke-width: 0.3; stroke-linejoin: miter"/>
   </g>
   <g id="patch_82">
    <path d="M 774.163636 640.8 
L 781.772727 640.8 
L 781.772727 453.066667 
L 774.163636 453.066667 
z
" clip-path="url(#pa1ee19e384)" style="fill: #1f77b4; stroke: #ffffff; stroke-width: 0.3; stroke-linejoin: miter"/>
   </g>
   <g id="patch_83">
    <path d="M 781.772727 640.8 
L 789.381818 640.8 
L 789.381818 511.733333 
L 781.772727 511.733333 
z
" clip-path="url(#pa1ee19e384)" style="fill: #1f77b4; stroke: #ffffff; stroke-width: 0.3; stroke-linejoin: miter"/>
   </g>
   <g id="patch_84">
    <path d="M 789.381818 640.8 
L 796.990909 640.8 
L 796.990909 496.088889 
L 789.381818 496.088889 
z
" clip-path="url(#pa1ee19e384)" style="fill: #1f77b4; stroke: #ffffff; stroke-width: 0.3; stroke-linejoin: miter"/>
   </g>
   <g id="patch_85">
    <path d="M 796.990909 640.8 
L 804.6 640.8 
L 804.6 507.822222 
L 796.990909 507.822222 
z
" clip-path="url(#pa1ee19e384)" style="fill: #1f77b4; stroke: #ffffff; stroke-width: 0.3; stroke-linejoin: miter"/>
   </g>
   <g id="patch_86">
    <path d="M 804.6 640.8 
L 812.209091 640.8 
L 812.209091 517.6 
L 804.6 517.6 
z
" clip-path="url(#pa1ee19e384)" style="fill: #1f77b4; stroke: #ffffff; stroke-width: 0.3; stroke-linejoin: miter"/>
   </g>
   <g id="patch_87">
    <path d="M 812.209091 640.8 
L 819.818182 640.8 
L 819.818182 548.888889 
L 812.209091 548.888889 
z
" clip-path="url(#pa1ee19e384)" style="fill: #1f77b4; stroke: #ffffff; stroke-width: 0.3; stroke-linejoin: miter"/>
   </g>
   <g id="patch_88">
    <path d="M 819.818182 640.8 
L 827.427273 640.8 
L 827.427273 550.844444 
L 819.818182 550.844444 
z
" clip-path="url(#pa1ee19e384)" style="fill: #1f77b4; stroke: #ffffff; stroke-width: 0.3; stroke-linejoin: miter"/>
   </g>
   <g id="patch_89">
    <path d="M 827.427273 640.8 
L 835.036364 640.8 
L 835.036364 546.933333 
L 827.427273 546.933333 
z
" clip-path="url(#pa1ee19e384)" style="fill: #1f77b4; stroke: #ffffff; stroke-width: 0.3; stroke-linejoin: miter"/>
   </g>
   <g id="patch_90">
    <path d="M 835.036364 640.8 
L 842.645455 640.8 
L 842.645455 582.133333 
L 835.036364 582.133333 
z
" clip-path="url(#pa1ee19e384)" style="fill: #1f77b4; stroke: #ffffff; stroke-width: 0.3; stroke-linejoin: miter"/>
   </g>
   <g id="patch_91">
    <path d="M 842.645455 640.8 
L 850.254545 640.8 
L 850.254545 593.866667 
L 842.645455 593.866667 
z
" clip-path="url(#pa1ee19e384)" style="fill: #1f77b4; stroke: #ffffff; stroke-width: 0.3; stroke-linejoin: miter"/>
   </g>
   <g id="patch_92">
    <path d="M 850.254545 640.8 
L 857.863636 640.8 
L 857.863636 586.044444 
L 850.254545 586.044444 
z
" clip-path="url(#pa1ee19e384)" style="fill: #1f77b4; stroke: #ffffff; stroke-width: 0.3; stroke-linejoin: miter"/>
   </g>
   <g id="patch_93">
    <path d="M 857.863636 640.8 
L 865.472727 640.8 
L 865.472727 619.288889 
L 857.863636 619.288889 
z
" clip-path="url(#pa1ee19e384)" style="fill: #1f77b4; stroke: #ffffff; stroke-width: 0.3; stroke-linejoin: miter"/>
   </g>
   <g id="patch_94">
    <path d="M 865.472727 640.8 
L 873.081818 640.8 
L 873.081818 615.377778 
L 865.472727 615.377778 
z
" clip-path="url(#pa1ee19e384)" style="fill: #1f77b4; stroke: #ffffff; stroke-width: 0.3; stroke-linejoin: miter"/>
   </g>
   <g id="patch_95">
    <path d="M 873.081818 640.8 
L 880.690909 640.8 
L 880.690909 619.288889 
L 873.081818 619.288889 
z
" clip-path="url(#pa1ee19e384)" style="fill: #1f77b4; stroke: #ffffff; stroke-width: 0.3; stroke-linejoin: miter"/>
   </g>
   <g id="patch_96">
    <path d="M 880.690909 640.8 
L 888.3 640.8 
L 888.3 627.111111 
L 880.690909 627.111111 
z
" clip-path="url(#pa1ee19e384)" style="fill: #1f77b4; stroke: #ffffff; stroke-width: 0.3; stroke-linejoin: miter"/>
   </g>
   <g id="patch_97">
    <path d="M 888.3 640.8 
L 895.909091 640.8 
L 895.909091 629.066667 
L 888.3 629.066667 
z
" clip-path="url(#pa1ee19e384)" style="fill: #1f77b4; stroke: #ffffff; stroke-width: 0.3; stroke-linejoin: miter"/>
   </g>
   <g id="patch_98">
    <path d="M 895.909091 640.8 
L 903.518182 640.8 
L 903.518182 631.022222 
L 895.909091 631.022222 
z
" clip-path="url(#pa1ee19e384)" style="fill: #1f77b4; stroke: #ffffff; stroke-width: 0.3; stroke-linejoin: miter"/>
   </g>
   <g id="patch_99">
    <path d="M 903.518182 640.8 
L 911.127273 640.8 
L 911.127273 634.933333 
L 903.518182 634.933333 
z
" clip-path="url(#pa1ee19e384)" style="fill: #1f77b4; stroke: #ffffff; stroke-width: 0.3; stroke-linejoin: miter"/>
   </g>
   <g id="patch_100">
    <path d="M 911.127273 640.8 
L 918.736364 640.8 
L 918.736364 638.844444 
L 911.127273 638.844444 
z
" clip-path="url(#pa1ee19e384)" style="fill: #1f77b4; stroke: #ffffff; stroke-width: 0.3; stroke-linejoin: miter"/>
   </g>
   <g id="patch_101">
    <path d="M 918.736364 640.8 
L 926.345455 640.8 
L 926.345455 636.888889 
L 918.736364 636.888889 
z
" clip-path="url(#pa1ee19e384)" style="fill: #1f77b4; stroke: #ffffff; stroke-width: 0.3; stroke-linejoin: miter"/>
   </g>
   <g id="patch_102">
    <path d="M 926.345455 640.8 
L 933.954545 640.8 
L 933.954545 636.888889 
L 926.345455 636.888889 
z
" clip-path="url(#pa1ee19e384)" style="fill: #1f77b4; stroke: #ffffff; stroke-width: 0.3; stroke-linejoin: miter"/>
   </g>
   <g id="matplotlib.axis_1">
    <g id="xtick_1">
     <g id="line2d_1">
      <defs>
       <path id="m52bac74a82" d="M 0 0 
L 0 3.5 
" style="stroke: #000000; stroke-width: 0.8"/>
      </defs>
      <g>
       <use xlink:href="#m52bac74a82" x="202.285629" y="640.8" style="stroke: #000000; stroke-width: 0.8"/>
      </g>
     </g>
     <g id="text_1">
      <!-- 2000 -->
      <g transform="translate(189.560629 655.398438) scale(0.1 -0.1)">
       <defs>
        <path id="DejaVuSans-32" d="M 1228 531 
L 3431 531 
L 3431 0 
L 469 0 
L 469 531 
Q 828 903 1448 1529 
Q 2069 2156 2228 2338 
Q 2531 2678 2651 2914 
Q 2772 3150 2772 3378 
Q 2772 3750 2511 3984 
Q 2250 4219 1831 4219 
Q 1534 4219 1204 4116 
Q 875 4013 500 3803 
L 500 4441 
Q 881 4594 1212 4672 
Q 1544 4750 1819 4750 
Q 2544 4750 2975 4387 
Q 3406 4025 3406 3419 
Q 3406 3131 3298 2873 
Q 3191 2616 2906 2266 
Q 2828 2175 2409 1742 
Q 1991 1309 1228 531 
z
" transform="scale(0.015625)"/>
        <path id="DejaVuSans-30" d="M 2034 4250 
Q 1547 4250 1301 3770 
Q 1056 3291 1056 2328 
Q 1056 1369 1301 889 
Q 1547 409 2034 409 
Q 2525 409 2770 889 
Q 3016 1369 3016 2328 
Q 3016 3291 2770 3770 
Q 2525 4250 2034 4250 
z
M 2034 4750 
Q 2819 4750 3233 4129 
Q 3647 3509 3647 2328 
Q 3647 1150 3233 529 
Q 2819 -91 2034 -91 
Q 1250 -91 836 529 
Q 422 1150 422 2328 
Q 422 3509 836 4129 
Q 1250 4750 2034 4750 
z
" transform="scale(0.015625)"/>
       </defs>
       <use xlink:href="#DejaVuSans-32"/>
       <use xlink:href="#DejaVuSans-30" x="63.623047"/>
       <use xlink:href="#DejaVuSans-30" x="127.246094"/>
       <use xlink:href="#DejaVuSans-30" x="190.869141"/>
      </g>
     </g>
    </g>
    <g id="xtick_2">
     <g id="line2d_2">
      <g>
       <use xlink:href="#m52bac74a82" x="385.036721" y="640.8" style="stroke: #000000; stroke-width: 0.8"/>
      </g>
     </g>
     <g id="text_2">
      <!-- 3000 -->
      <g transform="translate(372.311721 655.398438) scale(0.1 -0.1)">
       <defs>
        <path id="DejaVuSans-33" d="M 2597 2516 
Q 3050 2419 3304 2112 
Q 3559 1806 3559 1356 
Q 3559 666 3084 287 
Q 2609 -91 1734 -91 
Q 1441 -91 1130 -33 
Q 819 25 488 141 
L 488 750 
Q 750 597 1062 519 
Q 1375 441 1716 441 
Q 2309 441 2620 675 
Q 2931 909 2931 1356 
Q 2931 1769 2642 2001 
Q 2353 2234 1838 2234 
L 1294 2234 
L 1294 2753 
L 1863 2753 
Q 2328 2753 2575 2939 
Q 2822 3125 2822 3475 
Q 2822 3834 2567 4026 
Q 2313 4219 1838 4219 
Q 1578 4219 1281 4162 
Q 984 4106 628 3988 
L 628 4550 
Q 988 4650 1302 4700 
Q 1616 4750 1894 4750 
Q 2613 4750 3031 4423 
Q 3450 4097 3450 3541 
Q 3450 3153 3228 2886 
Q 3006 2619 2597 2516 
z
" transform="scale(0.015625)"/>
       </defs>
       <use xlink:href="#DejaVuSans-33"/>
       <use xlink:href="#DejaVuSans-30" x="63.623047"/>
       <use xlink:href="#DejaVuSans-30" x="127.246094"/>
       <use xlink:href="#DejaVuSans-30" x="190.869141"/>
      </g>
     </g>
    </g>
    <g id="xtick_3">
     <g id="line2d_3">
      <g>
       <use xlink:href="#m52bac74a82" x="567.787813" y="640.8" style="stroke: #000000; stroke-width: 0.8"/>
      </g>
     </g>
     <g id="text_3">
      <!-- 4000 -->
      <g transform="translate(555.062813 655.398438) scale(0.1 -0.1)">
       <defs>
        <path id="DejaVuSans-34" d="M 2419 4116 
L 825 1625 
L 2419 1625 
L 2419 4116 
z
M 2253 4666 
L 3047 4666 
L 3047 1625 
L 3713 1625 
L 3713 1100 
L 3047 1100 
L 3047 0 
L 2419 0 
L 2419 1100 
L 313 1100 
L 313 1709 
L 2253 4666 
z
" transform="scale(0.015625)"/>
       </defs>
       <use xlink:href="#DejaVuSans-34"/>
       <use xlink:href="#DejaVuSans-30" x="63.623047"/>
       <use xlink:href="#DejaVuSans-30" x="127.246094"/>
       <use xlink:href="#DejaVuSans-30" x="190.869141"/>
      </g>
     </g>
    </g>
    <g id="xtick_4">
     <g id="line2d_4">
      <g>
       <use xlink:href="#m52bac74a82" x="750.538904" y="640.8" style="stroke: #000000; stroke-width: 0.8"/>
      </g>
     </g>
     <g id="text_4">
      <!-- 5000 -->
      <g transform="translate(737.813904 655.398438) scale(0.1 -0.1)">
       <defs>
        <path id="DejaVuSans-35" d="M 691 4666 
L 3169 4666 
L 3169 4134 
L 1269 4134 
L 1269 2991 
Q 1406 3038 1543 3061 
Q 1681 3084 1819 3084 
Q 2600 3084 3056 2656 
Q 3513 2228 3513 1497 
Q 3513 744 3044 326 
Q 2575 -91 1722 -91 
Q 1428 -91 1123 -41 
Q 819 9 494 109 
L 494 744 
Q 775 591 1075 516 
Q 1375 441 1709 441 
Q 2250 441 2565 725 
Q 2881 1009 2881 1497 
Q 2881 1984 2565 2268 
Q 2250 2553 1709 2553 
Q 1456 2553 1204 2497 
Q 953 2441 691 2322 
L 691 4666 
z
" transform="scale(0.015625)"/>
       </defs>
       <use xlink:href="#DejaVuSans-35"/>
       <use xlink:href="#DejaVuSans-30" x="63.623047"/>
       <use xlink:href="#DejaVuSans-30" x="127.246094"/>
       <use xlink:href="#DejaVuSans-30" x="190.869141"/>
      </g>
     </g>
    </g>
    <g id="xtick_5">
     <g id="line2d_5">
      <g>
       <use xlink:href="#m52bac74a82" x="933.289996" y="640.8" style="stroke: #000000; stroke-width: 0.8"/>
      </g>
     </g>
     <g id="text_5">
      <!-- 6000 -->
      <g transform="translate(920.564996 655.398438) scale(0.1 -0.1)">
       <defs>
        <path id="DejaVuSans-36" d="M 2113 2584 
Q 1688 2584 1439 2293 
Q 1191 2003 1191 1497 
Q 1191 994 1439 701 
Q 1688 409 2113 409 
Q 2538 409 2786 701 
Q 3034 994 3034 1497 
Q 3034 2003 2786 2293 
Q 2538 2584 2113 2584 
z
M 3366 4563 
L 3366 3988 
Q 3128 4100 2886 4159 
Q 2644 4219 2406 4219 
Q 1781 4219 1451 3797 
Q 1122 3375 1075 2522 
Q 1259 2794 1537 2939 
Q 1816 3084 2150 3084 
Q 2853 3084 3261 2657 
Q 3669 2231 3669 1497 
Q 3669 778 3244 343 
Q 2819 -91 2113 -91 
Q 1303 -91 875 529 
Q 447 1150 447 2328 
Q 447 3434 972 4092 
Q 1497 4750 2381 4750 
Q 2619 4750 2861 4703 
Q 3103 4656 3366 4563 
z
" transform="scale(0.015625)"/>
       </defs>
       <use xlink:href="#DejaVuSans-36"/>
       <use xlink:href="#DejaVuSans-30" x="63.623047"/>
       <use xlink:href="#DejaVuSans-30" x="127.246094"/>
       <use xlink:href="#DejaVuSans-30" x="190.869141"/>
      </g>
     </g>
    </g>
    <g id="text_6">
     <!-- Code cost -->
     <g transform="translate(528.735937 669.076563) scale(0.1 -0.1)">
      <defs>
       <path id="DejaVuSans-43" d="M 4122 4306 
L 4122 3641 
Q 3803 3938 3442 4084 
Q 3081 4231 2675 4231 
Q 1875 4231 1450 3742 
Q 1025 3253 1025 2328 
Q 1025 1406 1450 917 
Q 1875 428 2675 428 
Q 3081 428 3442 575 
Q 3803 722 4122 1019 
L 4122 359 
Q 3791 134 3420 21 
Q 3050 -91 2638 -91 
Q 1578 -91 968 557 
Q 359 1206 359 2328 
Q 359 3453 968 4101 
Q 1578 4750 2638 4750 
Q 3056 4750 3426 4639 
Q 3797 4528 4122 4306 
z
" transform="scale(0.015625)"/>
       <path id="DejaVuSans-6f" d="M 1959 3097 
Q 1497 3097 1228 2736 
Q 959 2375 959 1747 
Q 959 1119 1226 758 
Q 1494 397 1959 397 
Q 2419 397 2687 759 
Q 2956 1122 2956 1747 
Q 2956 2369 2687 2733 
Q 2419 3097 1959 3097 
z
M 1959 3584 
Q 2709 3584 3137 3096 
Q 3566 2609 3566 1747 
Q 3566 888 3137 398 
Q 2709 -91 1959 -91 
Q 1206 -91 779 398 
Q 353 888 353 1747 
Q 353 2609 779 3096 
Q 1206 3584 1959 3584 
z
" transform="scale(0.015625)"/>
       <path id="DejaVuSans-64" d="M 2906 2969 
L 2906 4863 
L 3481 4863 
L 3481 0 
L 2906 0 
L 2906 525 
Q 2725 213 2448 61 
Q 2172 -91 1784 -91 
Q 1150 -91 751 415 
Q 353 922 353 1747 
Q 353 2572 751 3078 
Q 1150 3584 1784 3584 
Q 2172 3584 2448 3432 
Q 2725 3281 2906 2969 
z
M 947 1747 
Q 947 1113 1208 752 
Q 1469 391 1925 391 
Q 2381 391 2643 752 
Q 2906 1113 2906 1747 
Q 2906 2381 2643 2742 
Q 2381 3103 1925 3103 
Q 1469 3103 1208 2742 
Q 947 2381 947 1747 
z
" transform="scale(0.015625)"/>
       <path id="DejaVuSans-65" d="M 3597 1894 
L 3597 1613 
L 953 1613 
Q 991 1019 1311 708 
Q 1631 397 2203 397 
Q 2534 397 2845 478 
Q 3156 559 3463 722 
L 3463 178 
Q 3153 47 2828 -22 
Q 2503 -91 2169 -91 
Q 1331 -91 842 396 
Q 353 884 353 1716 
Q 353 2575 817 3079 
Q 1281 3584 2069 3584 
Q 2775 3584 3186 3129 
Q 3597 2675 3597 1894 
z
M 3022 2063 
Q 3016 2534 2758 2815 
Q 2500 3097 2075 3097 
Q 1594 3097 1305 2825 
Q 1016 2553 972 2059 
L 3022 2063 
z
" transform="scale(0.015625)"/>
       <path id="DejaVuSans-20" transform="scale(0.015625)"/>
       <path id="DejaVuSans-63" d="M 3122 3366 
L 3122 2828 
Q 2878 2963 2633 3030 
Q 2388 3097 2138 3097 
Q 1578 3097 1268 2742 
Q 959 2388 959 1747 
Q 959 1106 1268 751 
Q 1578 397 2138 397 
Q 2388 397 2633 464 
Q 2878 531 3122 666 
L 3122 134 
Q 2881 22 2623 -34 
Q 2366 -91 2075 -91 
Q 1284 -91 818 406 
Q 353 903 353 1747 
Q 353 2603 823 3093 
Q 1294 3584 2113 3584 
Q 2378 3584 2631 3529 
Q 2884 3475 3122 3366 
z
" transform="scale(0.015625)"/>
       <path id="DejaVuSans-73" d="M 2834 3397 
L 2834 2853 
Q 2591 2978 2328 3040 
Q 2066 3103 1784 3103 
Q 1356 3103 1142 2972 
Q 928 2841 928 2578 
Q 928 2378 1081 2264 
Q 1234 2150 1697 2047 
L 1894 2003 
Q 2506 1872 2764 1633 
Q 3022 1394 3022 966 
Q 3022 478 2636 193 
Q 2250 -91 1575 -91 
Q 1294 -91 989 -36 
Q 684 19 347 128 
L 347 722 
Q 666 556 975 473 
Q 1284 391 1588 391 
Q 1994 391 2212 530 
Q 2431 669 2431 922 
Q 2431 1156 2273 1281 
Q 2116 1406 1581 1522 
L 1381 1569 
Q 847 1681 609 1914 
Q 372 2147 372 2553 
Q 372 3047 722 3315 
Q 1072 3584 1716 3584 
Q 2034 3584 2315 3537 
Q 2597 3491 2834 3397 
z
" transform="scale(0.015625)"/>
       <path id="DejaVuSans-74" d="M 1172 4494 
L 1172 3500 
L 2356 3500 
L 2356 3053 
L 1172 3053 
L 1172 1153 
Q 1172 725 1289 603 
Q 1406 481 1766 481 
L 2356 481 
L 2356 0 
L 1766 0 
Q 1100 0 847 248 
Q 594 497 594 1153 
L 594 3053 
L 172 3053 
L 172 3500 
L 594 3500 
L 594 4494 
L 1172 4494 
z
" transform="scale(0.015625)"/>
      </defs>
      <use xlink:href="#DejaVuSans-43"/>
      <use xlink:href="#DejaVuSans-6f" x="69.824219"/>
      <use xlink:href="#DejaVuSans-64" x="131.005859"/>
      <use xlink:href="#DejaVuSans-65" x="194.482422"/>
      <use xlink:href="#DejaVuSans-20" x="256.005859"/>
      <use xlink:href="#DejaVuSans-63" x="287.792969"/>
      <use xlink:href="#DejaVuSans-6f" x="342.773438"/>
      <use xlink:href="#DejaVuSans-73" x="403.955078"/>
      <use xlink:href="#DejaVuSans-74" x="456.054688"/>
     </g>
    </g>
   </g>
   <g id="matplotlib.axis_2">
    <g id="ytick_1">
     <g id="line2d_6">
      <defs>
       <path id="m2a5d7b87ce" d="M 0 0 
L -3.5 0 
" style="stroke: #000000; stroke-width: 0.8"/>
      </defs>
      <g>
       <use xlink:href="#m2a5d7b87ce" x="135" y="640.8" style="stroke: #000000; stroke-width: 0.8"/>
      </g>
     </g>
     <g id="text_7">
      <!-- 0 -->
      <g transform="translate(121.6375 644.599219) scale(0.1 -0.1)">
       <use xlink:href="#DejaVuSans-30"/>
      </g>
     </g>
    </g>
    <g id="ytick_2">
     <g id="line2d_7">
      <g>
       <use xlink:href="#m2a5d7b87ce" x="135" y="543.022222" style="stroke: #000000; stroke-width: 0.8"/>
      </g>
     </g>
     <g id="text_8">
      <!-- 50 -->
      <g transform="translate(115.275 546.821441) scale(0.1 -0.1)">
       <use xlink:href="#DejaVuSans-35"/>
       <use xlink:href="#DejaVuSans-30" x="63.623047"/>
      </g>
     </g>
    </g>
    <g id="ytick_3">
     <g id="line2d_8">
      <g>
       <use xlink:href="#m2a5d7b87ce" x="135" y="445.244444" style="stroke: #000000; stroke-width: 0.8"/>
      </g>
     </g>
     <g id="text_9">
      <!-- 100 -->
      <g transform="translate(108.9125 449.043663) scale(0.1 -0.1)">
       <defs>
        <path id="DejaVuSans-31" d="M 794 531 
L 1825 531 
L 1825 4091 
L 703 3866 
L 703 4441 
L 1819 4666 
L 2450 4666 
L 2450 531 
L 3481 531 
L 3481 0 
L 794 0 
L 794 531 
z
" transform="scale(0.015625)"/>
       </defs>
       <use xlink:href="#DejaVuSans-31"/>
       <use xlink:href="#DejaVuSans-30" x="63.623047"/>
       <use xlink:href="#DejaVuSans-30" x="127.246094"/>
      </g>
     </g>
    </g>
    <g id="ytick_4">
     <g id="line2d_9">
      <g>
       <use xlink:href="#m2a5d7b87ce" x="135" y="347.466667" style="stroke: #000000; stroke-width: 0.8"/>
      </g>
     </g>
     <g id="text_10">
      <!-- 150 -->
      <g transform="translate(108.9125 351.265885) scale(0.1 -0.1)">
       <use xlink:href="#DejaVuSans-31"/>
       <use xlink:href="#DejaVuSans-35" x="63.623047"/>
       <use xlink:href="#DejaVuSans-30" x="127.246094"/>
      </g>
     </g>
    </g>
    <g id="ytick_5">
     <g id="line2d_10">
      <g>
       <use xlink:href="#m2a5d7b87ce" x="135" y="249.688889" style="stroke: #000000; stroke-width: 0.8"/>
      </g>
     </g>
     <g id="text_11">
      <!-- 200 -->
      <g transform="translate(108.9125 253.488108) scale(0.1 -0.1)">
       <use xlink:href="#DejaVuSans-32"/>
       <use xlink:href="#DejaVuSans-30" x="63.623047"/>
       <use xlink:href="#DejaVuSans-30" x="127.246094"/>
      </g>
     </g>
    </g>
    <g id="ytick_6">
     <g id="line2d_11">
      <g>
       <use xlink:href="#m2a5d7b87ce" x="135" y="151.911111" style="stroke: #000000; stroke-width: 0.8"/>
      </g>
     </g>
     <g id="text_12">
      <!-- 250 -->
      <g transform="translate(108.9125 155.71033) scale(0.1 -0.1)">
       <use xlink:href="#DejaVuSans-32"/>
       <use xlink:href="#DejaVuSans-35" x="63.623047"/>
       <use xlink:href="#DejaVuSans-30" x="127.246094"/>
      </g>
     </g>
    </g>
    <g id="text_13">
     <!-- Number of occurrences -->
     <g transform="translate(102.832812 421.996875) rotate(-90) scale(0.1 -0.1)">
      <defs>
       <path id="DejaVuSans-4e" d="M 628 4666 
L 1478 4666 
L 3547 763 
L 3547 4666 
L 4159 4666 
L 4159 0 
L 3309 0 
L 1241 3903 
L 1241 0 
L 628 0 
L 628 4666 
z
" transform="scale(0.015625)"/>
       <path id="DejaVuSans-75" d="M 544 1381 
L 544 3500 
L 1119 3500 
L 1119 1403 
Q 1119 906 1312 657 
Q 1506 409 1894 409 
Q 2359 409 2629 706 
Q 2900 1003 2900 1516 
L 2900 3500 
L 3475 3500 
L 3475 0 
L 2900 0 
L 2900 538 
Q 2691 219 2414 64 
Q 2138 -91 1772 -91 
Q 1169 -91 856 284 
Q 544 659 544 1381 
z
M 1991 3584 
L 1991 3584 
z
" transform="scale(0.015625)"/>
       <path id="DejaVuSans-6d" d="M 3328 2828 
Q 3544 3216 3844 3400 
Q 4144 3584 4550 3584 
Q 5097 3584 5394 3201 
Q 5691 2819 5691 2113 
L 5691 0 
L 5113 0 
L 5113 2094 
Q 5113 2597 4934 2840 
Q 4756 3084 4391 3084 
Q 3944 3084 3684 2787 
Q 3425 2491 3425 1978 
L 3425 0 
L 2847 0 
L 2847 2094 
Q 2847 2600 2669 2842 
Q 2491 3084 2119 3084 
Q 1678 3084 1418 2786 
Q 1159 2488 1159 1978 
L 1159 0 
L 581 0 
L 581 3500 
L 1159 3500 
L 1159 2956 
Q 1356 3278 1631 3431 
Q 1906 3584 2284 3584 
Q 2666 3584 2933 3390 
Q 3200 3197 3328 2828 
z
" transform="scale(0.015625)"/>
       <path id="DejaVuSans-62" d="M 3116 1747 
Q 3116 2381 2855 2742 
Q 2594 3103 2138 3103 
Q 1681 3103 1420 2742 
Q 1159 2381 1159 1747 
Q 1159 1113 1420 752 
Q 1681 391 2138 391 
Q 2594 391 2855 752 
Q 3116 1113 3116 1747 
z
M 1159 2969 
Q 1341 3281 1617 3432 
Q 1894 3584 2278 3584 
Q 2916 3584 3314 3078 
Q 3713 2572 3713 1747 
Q 3713 922 3314 415 
Q 2916 -91 2278 -91 
Q 1894 -91 1617 61 
Q 1341 213 1159 525 
L 1159 0 
L 581 0 
L 581 4863 
L 1159 4863 
L 1159 2969 
z
" transform="scale(0.015625)"/>
       <path id="DejaVuSans-72" d="M 2631 2963 
Q 2534 3019 2420 3045 
Q 2306 3072 2169 3072 
Q 1681 3072 1420 2755 
Q 1159 2438 1159 1844 
L 1159 0 
L 581 0 
L 581 3500 
L 1159 3500 
L 1159 2956 
Q 1341 3275 1631 3429 
Q 1922 3584 2338 3584 
Q 2397 3584 2469 3576 
Q 2541 3569 2628 3553 
L 2631 2963 
z
" transform="scale(0.015625)"/>
       <path id="DejaVuSans-66" d="M 2375 4863 
L 2375 4384 
L 1825 4384 
Q 1516 4384 1395 4259 
Q 1275 4134 1275 3809 
L 1275 3500 
L 2222 3500 
L 2222 3053 
L 1275 3053 
L 1275 0 
L 697 0 
L 697 3053 
L 147 3053 
L 147 3500 
L 697 3500 
L 697 3744 
Q 697 4328 969 4595 
Q 1241 4863 1831 4863 
L 2375 4863 
z
" transform="scale(0.015625)"/>
       <path id="DejaVuSans-6e" d="M 3513 2113 
L 3513 0 
L 2938 0 
L 2938 2094 
Q 2938 2591 2744 2837 
Q 2550 3084 2163 3084 
Q 1697 3084 1428 2787 
Q 1159 2491 1159 1978 
L 1159 0 
L 581 0 
L 581 3500 
L 1159 3500 
L 1159 2956 
Q 1366 3272 1645 3428 
Q 1925 3584 2291 3584 
Q 2894 3584 3203 3211 
Q 3513 2838 3513 2113 
z
" transform="scale(0.015625)"/>
      </defs>
      <use xlink:href="#DejaVuSans-4e"/>
      <use xlink:href="#DejaVuSans-75" x="74.804688"/>
      <use xlink:href="#DejaVuSans-6d" x="138.183594"/>
      <use xlink:href="#DejaVuSans-62" x="235.595703"/>
      <use xlink:href="#DejaVuSans-65" x="299.072266"/>
      <use xlink:href="#DejaVuSans-72" x="360.595703"/>
      <use xlink:href="#DejaVuSans-20" x="401.708984"/>
      <use xlink:href="#DejaVuSans-6f" x="433.496094"/>
      <use xlink:href="#DejaVuSans-66" x="494.677734"/>
      <use xlink:href="#DejaVuSans-20" x="529.882812"/>
      <use xlink:href="#DejaVuSans-6f" x="561.669922"/>
      <use xlink:href="#DejaVuSans-63" x="622.851562"/>
      <use xlink:href="#DejaVuSans-63" x="677.832031"/>
      <use xlink:href="#DejaVuSans-75" x="732.8125"/>
      <use xlink:href="#DejaVuSans-72" x="796.191406"/>
      <use xlink:href="#DejaVuSans-72" x="835.554688"/>
      <use xlink:href="#DejaVuSans-65" x="874.417969"/>
      <use xlink:href="#DejaVuSans-6e" x="935.941406"/>
      <use xlink:href="#DejaVuSans-63" x="999.320312"/>
      <use xlink:href="#DejaVuSans-65" x="1054.300781"/>
      <use xlink:href="#DejaVuSans-73" x="1115.824219"/>
     </g>
    </g>
   </g>
   <g id="line2d_12">
    <path d="M 677.925804 640.8 
L 677.925804 86.4 
" clip-path="url(#pa1ee19e384)" style="fill: none; stroke-dasharray: 5.55,2.4; stroke-dashoffset: 0; stroke: #ff0000; stroke-width: 1.5"/>
   </g>
   <g id="line2d_13">
    <path d="M 364.731044 640.8 
L 364.731044 86.4 
" clip-path="url(#pa1ee19e384)" style="fill: none; stroke-dasharray: 5.55,2.4; stroke-dashoffset: 0; stroke: #008000; stroke-width: 1.5"/>
   </g>
   <g id="patch_103">
    <path d="M 135 640.8 
L 135 86.4 
" style="fill: none; stroke: #000000; stroke-width: 0.8; stroke-linejoin: miter; stroke-linecap: square"/>
   </g>
   <g id="patch_104">
    <path d="M 972 640.8 
L 972 86.4 
" style="fill: none; stroke: #000000; stroke-width: 0.8; stroke-linejoin: miter; stroke-linecap: square"/>
   </g>
   <g id="patch_105">
    <path d="M 135 640.8 
L 972 640.8 
" style="fill: none; stroke: #000000; stroke-width: 0.8; stroke-linejoin: miter; stroke-linecap: square"/>
   </g>
   <g id="patch_106">
    <path d="M 135 86.4 
L 972 86.4 
" style="fill: none; stroke: #000000; stroke-width: 0.8; stroke-linejoin: miter; stroke-linecap: square"/>
   </g>
   <g id="text_14">
    <!-- Pam250 standard code cost -->
    <g transform="translate(693.133332 466.879688) rotate(-90) scale(0.1 -0.1)">
     <defs>
      <path id="DejaVuSans-50" d="M 1259 4147 
L 1259 2394 
L 2053 2394 
Q 2494 2394 2734 2622 
Q 2975 2850 2975 3272 
Q 2975 3691 2734 3919 
Q 2494 4147 2053 4147 
L 1259 4147 
z
M 628 4666 
L 2053 4666 
Q 2838 4666 3239 4311 
Q 3641 3956 3641 3272 
Q 3641 2581 3239 2228 
Q 2838 1875 2053 1875 
L 1259 1875 
L 1259 0 
L 628 0 
L 628 4666 
z
" transform="scale(0.015625)"/>
      <path id="DejaVuSans-61" d="M 2194 1759 
Q 1497 1759 1228 1600 
Q 959 1441 959 1056 
Q 959 750 1161 570 
Q 1363 391 1709 391 
Q 2188 391 2477 730 
Q 2766 1069 2766 1631 
L 2766 1759 
L 2194 1759 
z
M 3341 1997 
L 3341 0 
L 2766 0 
L 2766 531 
Q 2569 213 2275 61 
Q 1981 -91 1556 -91 
Q 1019 -91 701 211 
Q 384 513 384 1019 
Q 384 1609 779 1909 
Q 1175 2209 1959 2209 
L 2766 2209 
L 2766 2266 
Q 2766 2663 2505 2880 
Q 2244 3097 1772 3097 
Q 1472 3097 1187 3025 
Q 903 2953 641 2809 
L 641 3341 
Q 956 3463 1253 3523 
Q 1550 3584 1831 3584 
Q 2591 3584 2966 3190 
Q 3341 2797 3341 1997 
z
" transform="scale(0.015625)"/>
     </defs>
     <use xlink:href="#DejaVuSans-50"/>
     <use xlink:href="#DejaVuSans-61" x="55.802734"/>
     <use xlink:href="#DejaVuSans-6d" x="117.082031"/>
     <use xlink:href="#DejaVuSans-32" x="214.494141"/>
     <use xlink:href="#DejaVuSans-35" x="278.117188"/>
     <use xlink:href="#DejaVuSans-30" x="341.740234"/>
     <use xlink:href="#DejaVuSans-20" x="405.363281"/>
     <use xlink:href="#DejaVuSans-73" x="437.150391"/>
     <use xlink:href="#DejaVuSans-74" x="489.25"/>
     <use xlink:href="#DejaVuSans-61" x="528.458984"/>
     <use xlink:href="#DejaVuSans-6e" x="589.738281"/>
     <use xlink:href="#DejaVuSans-64" x="653.117188"/>
     <use xlink:href="#DejaVuSans-61" x="716.59375"/>
     <use xlink:href="#DejaVuSans-72" x="777.873047"/>
     <use xlink:href="#DejaVuSans-64" x="817.236328"/>
     <use xlink:href="#DejaVuSans-20" x="880.712891"/>
     <use xlink:href="#DejaVuSans-63" x="912.5"/>
     <use xlink:href="#DejaVuSans-6f" x="967.480469"/>
     <use xlink:href="#DejaVuSans-64" x="1028.662109"/>
     <use xlink:href="#DejaVuSans-65" x="1092.138672"/>
     <use xlink:href="#DejaVuSans-20" x="1153.662109"/>
     <use xlink:href="#DejaVuSans-63" x="1185.449219"/>
     <use xlink:href="#DejaVuSans-6f" x="1240.429688"/>
     <use xlink:href="#DejaVuSans-73" x="1301.611328"/>
     <use xlink:href="#DejaVuSans-74" x="1353.710938"/>
    </g>
   </g>
   <g id="text_15">
    <!-- Neutral substitutions standard code cost -->
    <g transform="translate(379.938572 466.879688) rotate(-90) scale(0.1 -0.1)">
     <defs>
      <path id="DejaVuSans-6c" d="M 603 4863 
L 1178 4863 
L 1178 0 
L 603 0 
L 603 4863 
z
" transform="scale(0.015625)"/>
      <path id="DejaVuSans-69" d="M 603 3500 
L 1178 3500 
L 1178 0 
L 603 0 
L 603 3500 
z
M 603 4863 
L 1178 4863 
L 1178 4134 
L 603 4134 
L 603 4863 
z
" transform="scale(0.015625)"/>
     </defs>
     <use xlink:href="#DejaVuSans-4e"/>
     <use xlink:href="#DejaVuSans-65" x="74.804688"/>
     <use xlink:href="#DejaVuSans-75" x="136.328125"/>
     <use xlink:href="#DejaVuSans-74" x="199.707031"/>
     <use xlink:href="#DejaVuSans-72" x="238.916016"/>
     <use xlink:href="#DejaVuSans-61" x="280.029297"/>
     <use xlink:href="#DejaVuSans-6c" x="341.308594"/>
     <use xlink:href="#DejaVuSans-20" x="369.091797"/>
     <use xlink:href="#DejaVuSans-73" x="400.878906"/>
     <use xlink:href="#DejaVuSans-75" x="452.978516"/>
     <use xlink:href="#DejaVuSans-62" x="516.357422"/>
     <use xlink:href="#DejaVuSans-73" x="579.833984"/>
     <use xlink:href="#DejaVuSans-74" x="631.933594"/>
     <use xlink:href="#DejaVuSans-69" x="671.142578"/>
     <use xlink:href="#DejaVuSans-74" x="698.925781"/>
     <use xlink:href="#DejaVuSans-75" x="738.134766"/>
     <use xlink:href="#DejaVuSans-74" x="801.513672"/>
     <use xlink:href="#DejaVuSans-69" x="840.722656"/>
     <use xlink:href="#DejaVuSans-6f" x="868.505859"/>
     <use xlink:href="#DejaVuSans-6e" x="929.6875"/>
     <use xlink:href="#DejaVuSans-73" x="993.066406"/>
     <use xlink:href="#DejaVuSans-20" x="1045.166016"/>
     <use xlink:href="#DejaVuSans-73" x="1076.953125"/>
     <use xlink:href="#DejaVuSans-74" x="1129.052734"/>
     <use xlink:href="#DejaVuSans-61" x="1168.261719"/>
     <use xlink:href="#DejaVuSans-6e" x="1229.541016"/>
     <use xlink:href="#DejaVuSans-64" x="1292.919922"/>
     <use xlink:href="#DejaVuSans-61" x="1356.396484"/>
     <use xlink:href="#DejaVuSans-72" x="1417.675781"/>
     <use xlink:href="#DejaVuSans-64" x="1457.039062"/>
     <use xlink:href="#DejaVuSans-20" x="1520.515625"/>
     <use xlink:href="#DejaVuSans-63" x="1552.302734"/>
     <use xlink:href="#DejaVuSans-6f" x="1607.283203"/>
     <use xlink:href="#DejaVuSans-64" x="1668.464844"/>
     <use xlink:href="#DejaVuSans-65" x="1731.941406"/>
     <use xlink:href="#DejaVuSans-20" x="1793.464844"/>
     <use xlink:href="#DejaVuSans-63" x="1825.251953"/>
     <use xlink:href="#DejaVuSans-6f" x="1880.232422"/>
     <use xlink:href="#DejaVuSans-73" x="1941.414062"/>
     <use xlink:href="#DejaVuSans-74" x="1993.513672"/>
    </g>
   </g>
   <g id="text_16">
    <!-- Number of occurrences of randomly simulated code costs per bracket for NORMALISED models generated using the PAM250 method -->
    <g transform="translate(154.107188 66.962625) scale(0.12 -0.12)">
     <defs>
      <path id="DejaVuSans-79" d="M 2059 -325 
Q 1816 -950 1584 -1140 
Q 1353 -1331 966 -1331 
L 506 -1331 
L 506 -850 
L 844 -850 
Q 1081 -850 1212 -737 
Q 1344 -625 1503 -206 
L 1606 56 
L 191 3500 
L 800 3500 
L 1894 763 
L 2988 3500 
L 3597 3500 
L 2059 -325 
z
" transform="scale(0.015625)"/>
      <path id="DejaVuSans-70" d="M 1159 525 
L 1159 -1331 
L 581 -1331 
L 581 3500 
L 1159 3500 
L 1159 2969 
Q 1341 3281 1617 3432 
Q 1894 3584 2278 3584 
Q 2916 3584 3314 3078 
Q 3713 2572 3713 1747 
Q 3713 922 3314 415 
Q 2916 -91 2278 -91 
Q 1894 -91 1617 61 
Q 1341 213 1159 525 
z
M 3116 1747 
Q 3116 2381 2855 2742 
Q 2594 3103 2138 3103 
Q 1681 3103 1420 2742 
Q 1159 2381 1159 1747 
Q 1159 1113 1420 752 
Q 1681 391 2138 391 
Q 2594 391 2855 752 
Q 3116 1113 3116 1747 
z
" transform="scale(0.015625)"/>
      <path id="DejaVuSans-6b" d="M 581 4863 
L 1159 4863 
L 1159 1991 
L 2875 3500 
L 3609 3500 
L 1753 1863 
L 3688 0 
L 2938 0 
L 1159 1709 
L 1159 0 
L 581 0 
L 581 4863 
z
" transform="scale(0.015625)"/>
      <path id="DejaVuSans-4f" d="M 2522 4238 
Q 1834 4238 1429 3725 
Q 1025 3213 1025 2328 
Q 1025 1447 1429 934 
Q 1834 422 2522 422 
Q 3209 422 3611 934 
Q 4013 1447 4013 2328 
Q 4013 3213 3611 3725 
Q 3209 4238 2522 4238 
z
M 2522 4750 
Q 3503 4750 4090 4092 
Q 4678 3434 4678 2328 
Q 4678 1225 4090 567 
Q 3503 -91 2522 -91 
Q 1538 -91 948 565 
Q 359 1222 359 2328 
Q 359 3434 948 4092 
Q 1538 4750 2522 4750 
z
" transform="scale(0.015625)"/>
      <path id="DejaVuSans-52" d="M 2841 2188 
Q 3044 2119 3236 1894 
Q 3428 1669 3622 1275 
L 4263 0 
L 3584 0 
L 2988 1197 
Q 2756 1666 2539 1819 
Q 2322 1972 1947 1972 
L 1259 1972 
L 1259 0 
L 628 0 
L 628 4666 
L 2053 4666 
Q 2853 4666 3247 4331 
Q 3641 3997 3641 3322 
Q 3641 2881 3436 2590 
Q 3231 2300 2841 2188 
z
M 1259 4147 
L 1259 2491 
L 2053 2491 
Q 2509 2491 2742 2702 
Q 2975 2913 2975 3322 
Q 2975 3731 2742 3939 
Q 2509 4147 2053 4147 
L 1259 4147 
z
" transform="scale(0.015625)"/>
      <path id="DejaVuSans-4d" d="M 628 4666 
L 1569 4666 
L 2759 1491 
L 3956 4666 
L 4897 4666 
L 4897 0 
L 4281 0 
L 4281 4097 
L 3078 897 
L 2444 897 
L 1241 4097 
L 1241 0 
L 628 0 
L 628 4666 
z
" transform="scale(0.015625)"/>
      <path id="DejaVuSans-41" d="M 2188 4044 
L 1331 1722 
L 3047 1722 
L 2188 4044 
z
M 1831 4666 
L 2547 4666 
L 4325 0 
L 3669 0 
L 3244 1197 
L 1141 1197 
L 716 0 
L 50 0 
L 1831 4666 
z
" transform="scale(0.015625)"/>
      <path id="DejaVuSans-4c" d="M 628 4666 
L 1259 4666 
L 1259 531 
L 3531 531 
L 3531 0 
L 628 0 
L 628 4666 
z
" transform="scale(0.015625)"/>
      <path id="DejaVuSans-49" d="M 628 4666 
L 1259 4666 
L 1259 0 
L 628 0 
L 628 4666 
z
" transform="scale(0.015625)"/>
      <path id="DejaVuSans-53" d="M 3425 4513 
L 3425 3897 
Q 3066 4069 2747 4153 
Q 2428 4238 2131 4238 
Q 1616 4238 1336 4038 
Q 1056 3838 1056 3469 
Q 1056 3159 1242 3001 
Q 1428 2844 1947 2747 
L 2328 2669 
Q 3034 2534 3370 2195 
Q 3706 1856 3706 1288 
Q 3706 609 3251 259 
Q 2797 -91 1919 -91 
Q 1588 -91 1214 -16 
Q 841 59 441 206 
L 441 856 
Q 825 641 1194 531 
Q 1563 422 1919 422 
Q 2459 422 2753 634 
Q 3047 847 3047 1241 
Q 3047 1584 2836 1778 
Q 2625 1972 2144 2069 
L 1759 2144 
Q 1053 2284 737 2584 
Q 422 2884 422 3419 
Q 422 4038 858 4394 
Q 1294 4750 2059 4750 
Q 2388 4750 2728 4690 
Q 3069 4631 3425 4513 
z
" transform="scale(0.015625)"/>
      <path id="DejaVuSans-45" d="M 628 4666 
L 3578 4666 
L 3578 4134 
L 1259 4134 
L 1259 2753 
L 3481 2753 
L 3481 2222 
L 1259 2222 
L 1259 531 
L 3634 531 
L 3634 0 
L 628 0 
L 628 4666 
z
" transform="scale(0.015625)"/>
      <path id="DejaVuSans-44" d="M 1259 4147 
L 1259 519 
L 2022 519 
Q 2988 519 3436 956 
Q 3884 1394 3884 2338 
Q 3884 3275 3436 3711 
Q 2988 4147 2022 4147 
L 1259 4147 
z
M 628 4666 
L 1925 4666 
Q 3281 4666 3915 4102 
Q 4550 3538 4550 2338 
Q 4550 1131 3912 565 
Q 3275 0 1925 0 
L 628 0 
L 628 4666 
z
" transform="scale(0.015625)"/>
      <path id="DejaVuSans-67" d="M 2906 1791 
Q 2906 2416 2648 2759 
Q 2391 3103 1925 3103 
Q 1463 3103 1205 2759 
Q 947 2416 947 1791 
Q 947 1169 1205 825 
Q 1463 481 1925 481 
Q 2391 481 2648 825 
Q 2906 1169 2906 1791 
z
M 3481 434 
Q 3481 -459 3084 -895 
Q 2688 -1331 1869 -1331 
Q 1566 -1331 1297 -1286 
Q 1028 -1241 775 -1147 
L 775 -588 
Q 1028 -725 1275 -790 
Q 1522 -856 1778 -856 
Q 2344 -856 2625 -561 
Q 2906 -266 2906 331 
L 2906 616 
Q 2728 306 2450 153 
Q 2172 0 1784 0 
Q 1141 0 747 490 
Q 353 981 353 1791 
Q 353 2603 747 3093 
Q 1141 3584 1784 3584 
Q 2172 3584 2450 3431 
Q 2728 3278 2906 2969 
L 2906 3500 
L 3481 3500 
L 3481 434 
z
" transform="scale(0.015625)"/>
      <path id="DejaVuSans-68" d="M 3513 2113 
L 3513 0 
L 2938 0 
L 2938 2094 
Q 2938 2591 2744 2837 
Q 2550 3084 2163 3084 
Q 1697 3084 1428 2787 
Q 1159 2491 1159 1978 
L 1159 0 
L 581 0 
L 581 4863 
L 1159 4863 
L 1159 2956 
Q 1366 3272 1645 3428 
Q 1925 3584 2291 3584 
Q 2894 3584 3203 3211 
Q 3513 2838 3513 2113 
z
" transform="scale(0.015625)"/>
     </defs>
     <use xlink:href="#DejaVuSans-4e"/>
     <use xlink:href="#DejaVuSans-75" x="74.804688"/>
     <use xlink:href="#DejaVuSans-6d" x="138.183594"/>
     <use xlink:href="#DejaVuSans-62" x="235.595703"/>
     <use xlink:href="#DejaVuSans-65" x="299.072266"/>
     <use xlink:href="#DejaVuSans-72" x="360.595703"/>
     <use xlink:href="#DejaVuSans-20" x="401.708984"/>
     <use xlink:href="#DejaVuSans-6f" x="433.496094"/>
     <use xlink:href="#DejaVuSans-66" x="494.677734"/>
     <use xlink:href="#DejaVuSans-20" x="529.882812"/>
     <use xlink:href="#DejaVuSans-6f" x="561.669922"/>
     <use xlink:href="#DejaVuSans-63" x="622.851562"/>
     <use xlink:href="#DejaVuSans-63" x="677.832031"/>
     <use xlink:href="#DejaVuSans-75" x="732.8125"/>
     <use xlink:href="#DejaVuSans-72" x="796.191406"/>
     <use xlink:href="#DejaVuSans-72" x="835.554688"/>
     <use xlink:href="#DejaVuSans-65" x="874.417969"/>
     <use xlink:href="#DejaVuSans-6e" x="935.941406"/>
     <use xlink:href="#DejaVuSans-63" x="999.320312"/>
     <use xlink:href="#DejaVuSans-65" x="1054.300781"/>
     <use xlink:href="#DejaVuSans-73" x="1115.824219"/>
     <use xlink:href="#DejaVuSans-20" x="1167.923828"/>
     <use xlink:href="#DejaVuSans-6f" x="1199.710938"/>
     <use xlink:href="#DejaVuSans-66" x="1260.892578"/>
     <use xlink:href="#DejaVuSans-20" x="1296.097656"/>
     <use xlink:href="#DejaVuSans-72" x="1327.884766"/>
     <use xlink:href="#DejaVuSans-61" x="1368.998047"/>
     <use xlink:href="#DejaVuSans-6e" x="1430.277344"/>
     <use xlink:href="#DejaVuSans-64" x="1493.65625"/>
     <use xlink:href="#DejaVuSans-6f" x="1557.132812"/>
     <use xlink:href="#DejaVuSans-6d" x="1618.314453"/>
     <use xlink:href="#DejaVuSans-6c" x="1715.726562"/>
     <use xlink:href="#DejaVuSans-79" x="1743.509766"/>
     <use xlink:href="#DejaVuSans-20" x="1802.689453"/>
     <use xlink:href="#DejaVuSans-73" x="1834.476562"/>
     <use xlink:href="#DejaVuSans-69" x="1886.576172"/>
     <use xlink:href="#DejaVuSans-6d" x="1914.359375"/>
     <use xlink:href="#DejaVuSans-75" x="2011.771484"/>
     <use xlink:href="#DejaVuSans-6c" x="2075.150391"/>
     <use xlink:href="#DejaVuSans-61" x="2102.933594"/>
     <use xlink:href="#DejaVuSans-74" x="2164.212891"/>
     <use xlink:href="#DejaVuSans-65" x="2203.421875"/>
     <use xlink:href="#DejaVuSans-64" x="2264.945312"/>
     <use xlink:href="#DejaVuSans-20" x="2328.421875"/>
     <use xlink:href="#DejaVuSans-63" x="2360.208984"/>
     <use xlink:href="#DejaVuSans-6f" x="2415.189453"/>
     <use xlink:href="#DejaVuSans-64" x="2476.371094"/>
     <use xlink:href="#DejaVuSans-65" x="2539.847656"/>
     <use xlink:href="#DejaVuSans-20" x="2601.371094"/>
     <use xlink:href="#DejaVuSans-63" x="2633.158203"/>
     <use xlink:href="#DejaVuSans-6f" x="2688.138672"/>
     <use xlink:href="#DejaVuSans-73" x="2749.320312"/>
     <use xlink:href="#DejaVuSans-74" x="2801.419922"/>
     <use xlink:href="#DejaVuSans-73" x="2840.628906"/>
     <use xlink:href="#DejaVuSans-20" x="2892.728516"/>
     <use xlink:href="#DejaVuSans-70" x="2924.515625"/>
     <use xlink:href="#DejaVuSans-65" x="2987.992188"/>
     <use xlink:href="#DejaVuSans-72" x="3049.515625"/>
     <use xlink:href="#DejaVuSans-20" x="3090.628906"/>
     <use xlink:href="#DejaVuSans-62" x="3122.416016"/>
     <use xlink:href="#DejaVuSans-72" x="3185.892578"/>
     <use xlink:href="#DejaVuSans-61" x="3227.005859"/>
     <use xlink:href="#DejaVuSans-63" x="3288.285156"/>
     <use xlink:href="#DejaVuSans-6b" x="3343.265625"/>
     <use xlink:href="#DejaVuSans-65" x="3397.550781"/>
     <use xlink:href="#DejaVuSans-74" x="3459.074219"/>
     <use xlink:href="#DejaVuSans-20" x="3498.283203"/>
     <use xlink:href="#DejaVuSans-66" x="3530.070312"/>
     <use xlink:href="#DejaVuSans-6f" x="3565.275391"/>
     <use xlink:href="#DejaVuSans-72" x="3626.457031"/>
     <use xlink:href="#DejaVuSans-20" x="3667.570312"/>
     <use xlink:href="#DejaVuSans-4e" x="3699.357422"/>
     <use xlink:href="#DejaVuSans-4f" x="3774.162109"/>
     <use xlink:href="#DejaVuSans-52" x="3852.873047"/>
     <use xlink:href="#DejaVuSans-4d" x="3922.355469"/>
     <use xlink:href="#DejaVuSans-41" x="4008.634766"/>
     <use xlink:href="#DejaVuSans-4c" x="4077.042969"/>
     <use xlink:href="#DejaVuSans-49" x="4132.755859"/>
     <use xlink:href="#DejaVuSans-53" x="4162.248047"/>
     <use xlink:href="#DejaVuSans-45" x="4225.724609"/>
     <use xlink:href="#DejaVuSans-44" x="4288.908203"/>
     <use xlink:href="#DejaVuSans-20" x="4365.910156"/>
     <use xlink:href="#DejaVuSans-6d" x="4397.697266"/>
     <use xlink:href="#DejaVuSans-6f" x="4495.109375"/>
     <use xlink:href="#DejaVuSans-64" x="4556.291016"/>
     <use xlink:href="#DejaVuSans-65" x="4619.767578"/>
     <use xlink:href="#DejaVuSans-6c" x="4681.291016"/>
     <use xlink:href="#DejaVuSans-73" x="4709.074219"/>
     <use xlink:href="#DejaVuSans-20" x="4761.173828"/>
     <use xlink:href="#DejaVuSans-67" x="4792.960938"/>
     <use xlink:href="#DejaVuSans-65" x="4856.4375"/>
     <use xlink:href="#DejaVuSans-6e" x="4917.960938"/>
     <use xlink:href="#DejaVuSans-65" x="4981.339844"/>
     <use xlink:href="#DejaVuSans-72" x="5042.863281"/>
     <use xlink:href="#DejaVuSans-61" x="5083.976562"/>
     <use xlink:href="#DejaVuSans-74" x="5145.255859"/>
     <use xlink:href="#DejaVuSans-65" x="5184.464844"/>
     <use xlink:href="#DejaVuSans-64" x="5245.988281"/>
     <use xlink:href="#DejaVuSans-20" x="5309.464844"/>
     <use xlink:href="#DejaVuSans-75" x="5341.251953"/>
     <use xlink:href="#DejaVuSans-73" x="5404.630859"/>
     <use xlink:href="#DejaVuSans-69" x="5456.730469"/>
     <use xlink:href="#DejaVuSans-6e" x="5484.513672"/>
     <use xlink:href="#DejaVuSans-67" x="5547.892578"/>
     <use xlink:href="#DejaVuSans-20" x="5611.369141"/>
     <use xlink:href="#DejaVuSans-74" x="5643.15625"/>
     <use xlink:href="#DejaVuSans-68" x="5682.365234"/>
     <use xlink:href="#DejaVuSans-65" x="5745.744141"/>
     <use xlink:href="#DejaVuSans-20" x="5807.267578"/>
     <use xlink:href="#DejaVuSans-50" x="5839.054688"/>
     <use xlink:href="#DejaVuSans-41" x="5892.982422"/>
     <use xlink:href="#DejaVuSans-4d" x="5961.390625"/>
     <use xlink:href="#DejaVuSans-32" x="6047.669922"/>
     <use xlink:href="#DejaVuSans-35" x="6111.292969"/>
     <use xlink:href="#DejaVuSans-30" x="6174.916016"/>
     <use xlink:href="#DejaVuSans-20" x="6238.539062"/>
     <use xlink:href="#DejaVuSans-6d" x="6270.326172"/>
     <use xlink:href="#DejaVuSans-65" x="6367.738281"/>
     <use xlink:href="#DejaVuSans-74" x="6429.261719"/>
     <use xlink:href="#DejaVuSans-68" x="6468.470703"/>
     <use xlink:href="#DejaVuSans-6f" x="6531.849609"/>
     <use xlink:href="#DejaVuSans-64" x="6593.03125"/>
    </g>
    <!--  Sample size = 10000 -->
    <g transform="translate(487.625625 80.4) scale(0.12 -0.12)">
     <defs>
      <path id="DejaVuSans-7a" d="M 353 3500 
L 3084 3500 
L 3084 2975 
L 922 459 
L 3084 459 
L 3084 0 
L 275 0 
L 275 525 
L 2438 3041 
L 353 3041 
L 353 3500 
z
" transform="scale(0.015625)"/>
      <path id="DejaVuSans-3d" d="M 678 2906 
L 4684 2906 
L 4684 2381 
L 678 2381 
L 678 2906 
z
M 678 1631 
L 4684 1631 
L 4684 1100 
L 678 1100 
L 678 1631 
z
" transform="scale(0.015625)"/>
     </defs>
     <use xlink:href="#DejaVuSans-20"/>
     <use xlink:href="#DejaVuSans-53" x="31.787109"/>
     <use xlink:href="#DejaVuSans-61" x="95.263672"/>
     <use xlink:href="#DejaVuSans-6d" x="156.542969"/>
     <use xlink:href="#DejaVuSans-70" x="253.955078"/>
     <use xlink:href="#DejaVuSans-6c" x="317.431641"/>
     <use xlink:href="#DejaVuSans-65" x="345.214844"/>
     <use xlink:href="#DejaVuSans-20" x="406.738281"/>
     <use xlink:href="#DejaVuSans-73" x="438.525391"/>
     <use xlink:href="#DejaVuSans-69" x="490.625"/>
     <use xlink:href="#DejaVuSans-7a" x="518.408203"/>
     <use xlink:href="#DejaVuSans-65" x="570.898438"/>
     <use xlink:href="#DejaVuSans-20" x="632.421875"/>
     <use xlink:href="#DejaVuSans-3d" x="664.208984"/>
     <use xlink:href="#DejaVuSans-20" x="747.998047"/>
     <use xlink:href="#DejaVuSans-31" x="779.785156"/>
     <use xlink:href="#DejaVuSans-30" x="843.408203"/>
     <use xlink:href="#DejaVuSans-30" x="907.03125"/>
     <use xlink:href="#DejaVuSans-30" x="970.654297"/>
     <use xlink:href="#DejaVuSans-30" x="1034.277344"/>
    </g>
   </g>
  </g>
 </g>
 <defs>
  <clipPath id="pa1ee19e384">
   <rect x="135" y="86.4" width="837" height="554.4"/>
  </clipPath>
 </defs>
</svg>
