<?xml version="1.0" encoding="utf-8" standalone="no"?>
<!DOCTYPE svg PUBLIC "-//W3C//DTD SVG 1.1//EN"
  "http://www.w3.org/Graphics/SVG/1.1/DTD/svg11.dtd">
<svg xmlns:xlink="http://www.w3.org/1999/xlink" width="1080pt" height="720pt" viewBox="0 0 1080 720" xmlns="http://www.w3.org/2000/svg" version="1.1">
 <metadata>
  <rdf:RDF xmlns:dc="http://purl.org/dc/elements/1.1/" xmlns:cc="http://creativecommons.org/ns#" xmlns:rdf="http://www.w3.org/1999/02/22-rdf-syntax-ns#">
   <cc:Work>
    <dc:type rdf:resource="http://purl.org/dc/dcmitype/StillImage"/>
    <dc:date>2024-06-17T15:29:16.489563</dc:date>
    <dc:format>image/svg+xml</dc:format>
    <dc:creator>
     <cc:Agent>
      <dc:title>Matplotlib v3.7.1, https://matplotlib.org/</dc:title>
     </cc:Agent>
    </dc:creator>
   </cc:Work>
  </rdf:RDF>
 </metadata>
 <defs>
  <style type="text/css">*{stroke-linejoin: round; stroke-linecap: butt}</style>
 </defs>
 <g id="figure_1">
  <g id="patch_1">
   <path d="M 0 720 
L 1080 720 
L 1080 0 
L 0 0 
z
" style="fill: #ffffff"/>
  </g>
  <g id="axes_1">
   <g id="patch_2">
    <path d="M 135 640.8 
L 972 640.8 
L 972 86.4 
L 135 86.4 
z
" style="fill: #ffffff"/>
   </g>
   <g id="patch_3">
    <path d="M 173.045455 640.8 
L 180.218789 640.8 
L 180.218789 635.710843 
L 173.045455 635.710843 
z
" clip-path="url(#p29c09bddee)" style="fill: #1f77b4; stroke: #ffffff; stroke-width: 0.3; stroke-linejoin: miter"/>
   </g>
   <g id="patch_4">
    <path d="M 180.218789 640.8 
L 187.392124 640.8 
L 187.392124 611.537349 
L 180.218789 611.537349 
z
" clip-path="url(#p29c09bddee)" style="fill: #1f77b4; stroke: #ffffff; stroke-width: 0.3; stroke-linejoin: miter"/>
   </g>
   <g id="patch_5">
    <path d="M 187.392124 640.8 
L 194.565459 640.8 
L 194.565459 569.551807 
L 187.392124 569.551807 
z
" clip-path="url(#p29c09bddee)" style="fill: #1f77b4; stroke: #ffffff; stroke-width: 0.3; stroke-linejoin: miter"/>
   </g>
   <g id="patch_6">
    <path d="M 194.565459 640.8 
L 201.738794 640.8 
L 201.738794 519.93253 
L 194.565459 519.93253 
z
" clip-path="url(#p29c09bddee)" style="fill: #1f77b4; stroke: #ffffff; stroke-width: 0.3; stroke-linejoin: miter"/>
   </g>
   <g id="patch_7">
    <path d="M 201.738794 640.8 
L 208.912129 640.8 
L 208.912129 518.660241 
L 201.738794 518.660241 
z
" clip-path="url(#p29c09bddee)" style="fill: #1f77b4; stroke: #ffffff; stroke-width: 0.3; stroke-linejoin: miter"/>
   </g>
   <g id="patch_8">
    <path d="M 208.912129 640.8 
L 216.085464 640.8 
L 216.085464 512.298795 
L 208.912129 512.298795 
z
" clip-path="url(#p29c09bddee)" style="fill: #1f77b4; stroke: #ffffff; stroke-width: 0.3; stroke-linejoin: miter"/>
   </g>
   <g id="patch_9">
    <path d="M 216.085464 640.8 
L 223.258799 640.8 
L 223.258799 514.843373 
L 216.085464 514.843373 
z
" clip-path="url(#p29c09bddee)" style="fill: #1f77b4; stroke: #ffffff; stroke-width: 0.3; stroke-linejoin: miter"/>
   </g>
   <g id="patch_10">
    <path d="M 223.258799 640.8 
L 230.432134 640.8 
L 230.432134 518.660241 
L 223.258799 518.660241 
z
" clip-path="url(#p29c09bddee)" style="fill: #1f77b4; stroke: #ffffff; stroke-width: 0.3; stroke-linejoin: miter"/>
   </g>
   <g id="patch_11">
    <path d="M 230.432134 640.8 
L 237.605469 640.8 
L 237.605469 519.93253 
L 230.432134 519.93253 
z
" clip-path="url(#p29c09bddee)" style="fill: #1f77b4; stroke: #ffffff; stroke-width: 0.3; stroke-linejoin: miter"/>
   </g>
   <g id="patch_12">
    <path d="M 237.605469 640.8 
L 244.778804 640.8 
L 244.778804 481.763855 
L 237.605469 481.763855 
z
" clip-path="url(#p29c09bddee)" style="fill: #1f77b4; stroke: #ffffff; stroke-width: 0.3; stroke-linejoin: miter"/>
   </g>
   <g id="patch_13">
    <path d="M 244.778804 640.8 
L 251.952139 640.8 
L 251.952139 407.971084 
L 244.778804 407.971084 
z
" clip-path="url(#p29c09bddee)" style="fill: #1f77b4; stroke: #ffffff; stroke-width: 0.3; stroke-linejoin: miter"/>
   </g>
   <g id="patch_14">
    <path d="M 251.952139 640.8 
L 259.125474 640.8 
L 259.125474 359.624096 
L 251.952139 359.624096 
z
" clip-path="url(#p29c09bddee)" style="fill: #1f77b4; stroke: #ffffff; stroke-width: 0.3; stroke-linejoin: miter"/>
   </g>
   <g id="patch_15">
    <path d="M 259.125474 640.8 
L 266.298809 640.8 
L 266.298809 301.098795 
L 259.125474 301.098795 
z
" clip-path="url(#p29c09bddee)" style="fill: #1f77b4; stroke: #ffffff; stroke-width: 0.3; stroke-linejoin: miter"/>
   </g>
   <g id="patch_16">
    <path d="M 266.298809 640.8 
L 273.472144 640.8 
L 273.472144 237.484337 
L 266.298809 237.484337 
z
" clip-path="url(#p29c09bddee)" style="fill: #1f77b4; stroke: #ffffff; stroke-width: 0.3; stroke-linejoin: miter"/>
   </g>
   <g id="patch_17">
    <path d="M 273.472144 640.8 
L 280.645479 640.8 
L 280.645479 176.414458 
L 273.472144 176.414458 
z
" clip-path="url(#p29c09bddee)" style="fill: #1f77b4; stroke: #ffffff; stroke-width: 0.3; stroke-linejoin: miter"/>
   </g>
   <g id="patch_18">
    <path d="M 280.645479 640.8 
L 287.818813 640.8 
L 287.818813 158.60241 
L 280.645479 158.60241 
z
" clip-path="url(#p29c09bddee)" style="fill: #1f77b4; stroke: #ffffff; stroke-width: 0.3; stroke-linejoin: miter"/>
   </g>
   <g id="patch_19">
    <path d="M 287.818813 640.8 
L 294.992148 640.8 
L 294.992148 152.240964 
L 287.818813 152.240964 
z
" clip-path="url(#p29c09bddee)" style="fill: #1f77b4; stroke: #ffffff; stroke-width: 0.3; stroke-linejoin: miter"/>
   </g>
   <g id="patch_20">
    <path d="M 294.992148 640.8 
L 302.165483 640.8 
L 302.165483 112.8 
L 294.992148 112.8 
z
" clip-path="url(#p29c09bddee)" style="fill: #1f77b4; stroke: #ffffff; stroke-width: 0.3; stroke-linejoin: miter"/>
   </g>
   <g id="patch_21">
    <path d="M 302.165483 640.8 
L 309.338818 640.8 
L 309.338818 139.518072 
L 302.165483 139.518072 
z
" clip-path="url(#p29c09bddee)" style="fill: #1f77b4; stroke: #ffffff; stroke-width: 0.3; stroke-linejoin: miter"/>
   </g>
   <g id="patch_22">
    <path d="M 309.338818 640.8 
L 316.512153 640.8 
L 316.512153 143.33494 
L 309.338818 143.33494 
z
" clip-path="url(#p29c09bddee)" style="fill: #1f77b4; stroke: #ffffff; stroke-width: 0.3; stroke-linejoin: miter"/>
   </g>
   <g id="patch_23">
    <path d="M 316.512153 640.8 
L 323.685488 640.8 
L 323.685488 126.795181 
L 316.512153 126.795181 
z
" clip-path="url(#p29c09bddee)" style="fill: #1f77b4; stroke: #ffffff; stroke-width: 0.3; stroke-linejoin: miter"/>
   </g>
   <g id="patch_24">
    <path d="M 323.685488 640.8 
L 330.858823 640.8 
L 330.858823 120.433735 
L 323.685488 120.433735 
z
" clip-path="url(#p29c09bddee)" style="fill: #1f77b4; stroke: #ffffff; stroke-width: 0.3; stroke-linejoin: miter"/>
   </g>
   <g id="patch_25">
    <path d="M 330.858823 640.8 
L 338.032158 640.8 
L 338.032158 201.860241 
L 330.858823 201.860241 
z
" clip-path="url(#p29c09bddee)" style="fill: #1f77b4; stroke: #ffffff; stroke-width: 0.3; stroke-linejoin: miter"/>
   </g>
   <g id="patch_26">
    <path d="M 338.032158 640.8 
L 345.205493 640.8 
L 345.205493 205.677108 
L 338.032158 205.677108 
z
" clip-path="url(#p29c09bddee)" style="fill: #1f77b4; stroke: #ffffff; stroke-width: 0.3; stroke-linejoin: miter"/>
   </g>
   <g id="patch_27">
    <path d="M 345.205493 640.8 
L 352.378828 640.8 
L 352.378828 228.578313 
L 345.205493 228.578313 
z
" clip-path="url(#p29c09bddee)" style="fill: #1f77b4; stroke: #ffffff; stroke-width: 0.3; stroke-linejoin: miter"/>
   </g>
   <g id="patch_28">
    <path d="M 352.378828 640.8 
L 359.552163 640.8 
L 359.552163 257.840964 
L 352.378828 257.840964 
z
" clip-path="url(#p29c09bddee)" style="fill: #1f77b4; stroke: #ffffff; stroke-width: 0.3; stroke-linejoin: miter"/>
   </g>
   <g id="patch_29">
    <path d="M 359.552163 640.8 
L 366.725498 640.8 
L 366.725498 296.009639 
L 359.552163 296.009639 
z
" clip-path="url(#p29c09bddee)" style="fill: #1f77b4; stroke: #ffffff; stroke-width: 0.3; stroke-linejoin: miter"/>
   </g>
   <g id="patch_30">
    <path d="M 366.725498 640.8 
L 373.898833 640.8 
L 373.898833 355.807229 
L 366.725498 355.807229 
z
" clip-path="url(#p29c09bddee)" style="fill: #1f77b4; stroke: #ffffff; stroke-width: 0.3; stroke-linejoin: miter"/>
   </g>
   <g id="patch_31">
    <path d="M 373.898833 640.8 
L 381.072168 640.8 
L 381.072168 334.178313 
L 373.898833 334.178313 
z
" clip-path="url(#p29c09bddee)" style="fill: #1f77b4; stroke: #ffffff; stroke-width: 0.3; stroke-linejoin: miter"/>
   </g>
   <g id="patch_32">
    <path d="M 381.072168 640.8 
L 388.245503 640.8 
L 388.245503 399.06506 
L 381.072168 399.06506 
z
" clip-path="url(#p29c09bddee)" style="fill: #1f77b4; stroke: #ffffff; stroke-width: 0.3; stroke-linejoin: miter"/>
   </g>
   <g id="patch_33">
    <path d="M 388.245503 640.8 
L 395.418837 640.8 
L 395.418837 379.980723 
L 388.245503 379.980723 
z
" clip-path="url(#p29c09bddee)" style="fill: #1f77b4; stroke: #ffffff; stroke-width: 0.3; stroke-linejoin: miter"/>
   </g>
   <g id="patch_34">
    <path d="M 395.418837 640.8 
L 402.592172 640.8 
L 402.592172 416.877108 
L 395.418837 416.877108 
z
" clip-path="url(#p29c09bddee)" style="fill: #1f77b4; stroke: #ffffff; stroke-width: 0.3; stroke-linejoin: miter"/>
   </g>
   <g id="patch_35">
    <path d="M 402.592172 640.8 
L 409.765507 640.8 
L 409.765507 467.768675 
L 402.592172 467.768675 
z
" clip-path="url(#p29c09bddee)" style="fill: #1f77b4; stroke: #ffffff; stroke-width: 0.3; stroke-linejoin: miter"/>
   </g>
   <g id="patch_36">
    <path d="M 409.765507 640.8 
L 416.938842 640.8 
L 416.938842 470.313253 
L 409.765507 470.313253 
z
" clip-path="url(#p29c09bddee)" style="fill: #1f77b4; stroke: #ffffff; stroke-width: 0.3; stroke-linejoin: miter"/>
   </g>
   <g id="patch_37">
    <path d="M 416.938842 640.8 
L 424.112177 640.8 
L 424.112177 490.66988 
L 416.938842 490.66988 
z
" clip-path="url(#p29c09bddee)" style="fill: #1f77b4; stroke: #ffffff; stroke-width: 0.3; stroke-linejoin: miter"/>
   </g>
   <g id="patch_38">
    <path d="M 424.112177 640.8 
L 431.285512 640.8 
L 431.285512 467.768675 
L 424.112177 467.768675 
z
" clip-path="url(#p29c09bddee)" style="fill: #1f77b4; stroke: #ffffff; stroke-width: 0.3; stroke-linejoin: miter"/>
   </g>
   <g id="patch_39">
    <path d="M 431.285512 640.8 
L 438.458847 640.8 
L 438.458847 502.120482 
L 431.285512 502.120482 
z
" clip-path="url(#p29c09bddee)" style="fill: #1f77b4; stroke: #ffffff; stroke-width: 0.3; stroke-linejoin: miter"/>
   </g>
   <g id="patch_40">
    <path d="M 438.458847 640.8 
L 445.632182 640.8 
L 445.632182 489.39759 
L 438.458847 489.39759 
z
" clip-path="url(#p29c09bddee)" style="fill: #1f77b4; stroke: #ffffff; stroke-width: 0.3; stroke-linejoin: miter"/>
   </g>
   <g id="patch_41">
    <path d="M 445.632182 640.8 
L 452.805517 640.8 
L 452.805517 507.209639 
L 445.632182 507.209639 
z
" clip-path="url(#p29c09bddee)" style="fill: #1f77b4; stroke: #ffffff; stroke-width: 0.3; stroke-linejoin: miter"/>
   </g>
   <g id="patch_42">
    <path d="M 452.805517 640.8 
L 459.978852 640.8 
L 459.978852 505.937349 
L 452.805517 505.937349 
z
" clip-path="url(#p29c09bddee)" style="fill: #1f77b4; stroke: #ffffff; stroke-width: 0.3; stroke-linejoin: miter"/>
   </g>
   <g id="patch_43">
    <path d="M 459.978852 640.8 
L 467.152187 640.8 
L 467.152187 528.838554 
L 459.978852 528.838554 
z
" clip-path="url(#p29c09bddee)" style="fill: #1f77b4; stroke: #ffffff; stroke-width: 0.3; stroke-linejoin: miter"/>
   </g>
   <g id="patch_44">
    <path d="M 467.152187 640.8 
L 474.325522 640.8 
L 474.325522 517.387952 
L 467.152187 517.387952 
z
" clip-path="url(#p29c09bddee)" style="fill: #1f77b4; stroke: #ffffff; stroke-width: 0.3; stroke-linejoin: miter"/>
   </g>
   <g id="patch_45">
    <path d="M 474.325522 640.8 
L 481.498857 640.8 
L 481.498857 523.749398 
L 474.325522 523.749398 
z
" clip-path="url(#p29c09bddee)" style="fill: #1f77b4; stroke: #ffffff; stroke-width: 0.3; stroke-linejoin: miter"/>
   </g>
   <g id="patch_46">
    <path d="M 481.498857 640.8 
L 488.672192 640.8 
L 488.672192 556.828916 
L 481.498857 556.828916 
z
" clip-path="url(#p29c09bddee)" style="fill: #1f77b4; stroke: #ffffff; stroke-width: 0.3; stroke-linejoin: miter"/>
   </g>
   <g id="patch_47">
    <path d="M 488.672192 640.8 
L 495.845527 640.8 
L 495.845527 535.2 
L 488.672192 535.2 
z
" clip-path="url(#p29c09bddee)" style="fill: #1f77b4; stroke: #ffffff; stroke-width: 0.3; stroke-linejoin: miter"/>
   </g>
   <g id="patch_48">
    <path d="M 495.845527 640.8 
L 503.018861 640.8 
L 503.018861 537.744578 
L 495.845527 537.744578 
z
" clip-path="url(#p29c09bddee)" style="fill: #1f77b4; stroke: #ffffff; stroke-width: 0.3; stroke-linejoin: miter"/>
   </g>
   <g id="patch_49">
    <path d="M 503.018861 640.8 
L 510.192196 640.8 
L 510.192196 555.556627 
L 503.018861 555.556627 
z
" clip-path="url(#p29c09bddee)" style="fill: #1f77b4; stroke: #ffffff; stroke-width: 0.3; stroke-linejoin: miter"/>
   </g>
   <g id="patch_50">
    <path d="M 510.192196 640.8 
L 517.365531 640.8 
L 517.365531 550.46747 
L 510.192196 550.46747 
z
" clip-path="url(#p29c09bddee)" style="fill: #1f77b4; stroke: #ffffff; stroke-width: 0.3; stroke-linejoin: miter"/>
   </g>
   <g id="patch_51">
    <path d="M 517.365531 640.8 
L 524.538866 640.8 
L 524.538866 545.378313 
L 517.365531 545.378313 
z
" clip-path="url(#p29c09bddee)" style="fill: #1f77b4; stroke: #ffffff; stroke-width: 0.3; stroke-linejoin: miter"/>
   </g>
   <g id="patch_52">
    <path d="M 524.538866 640.8 
L 531.712201 640.8 
L 531.712201 559.373494 
L 524.538866 559.373494 
z
" clip-path="url(#p29c09bddee)" style="fill: #1f77b4; stroke: #ffffff; stroke-width: 0.3; stroke-linejoin: miter"/>
   </g>
   <g id="patch_53">
    <path d="M 531.712201 640.8 
L 538.885536 640.8 
L 538.885536 577.185542 
L 531.712201 577.185542 
z
" clip-path="url(#p29c09bddee)" style="fill: #1f77b4; stroke: #ffffff; stroke-width: 0.3; stroke-linejoin: miter"/>
   </g>
   <g id="patch_54">
    <path d="M 538.885536 640.8 
L 546.058871 640.8 
L 546.058871 575.913253 
L 538.885536 575.913253 
z
" clip-path="url(#p29c09bddee)" style="fill: #1f77b4; stroke: #ffffff; stroke-width: 0.3; stroke-linejoin: miter"/>
   </g>
   <g id="patch_55">
    <path d="M 546.058871 640.8 
L 553.232206 640.8 
L 553.232206 553.012048 
L 546.058871 553.012048 
z
" clip-path="url(#p29c09bddee)" style="fill: #1f77b4; stroke: #ffffff; stroke-width: 0.3; stroke-linejoin: miter"/>
   </g>
   <g id="patch_56">
    <path d="M 553.232206 640.8 
L 560.405541 640.8 
L 560.405541 577.185542 
L 553.232206 577.185542 
z
" clip-path="url(#p29c09bddee)" style="fill: #1f77b4; stroke: #ffffff; stroke-width: 0.3; stroke-linejoin: miter"/>
   </g>
   <g id="patch_57">
    <path d="M 560.405541 640.8 
L 567.578876 640.8 
L 567.578876 596.26988 
L 560.405541 596.26988 
z
" clip-path="url(#p29c09bddee)" style="fill: #1f77b4; stroke: #ffffff; stroke-width: 0.3; stroke-linejoin: miter"/>
   </g>
   <g id="patch_58">
    <path d="M 567.578876 640.8 
L 574.752211 640.8 
L 574.752211 570.824096 
L 567.578876 570.824096 
z
" clip-path="url(#p29c09bddee)" style="fill: #1f77b4; stroke: #ffffff; stroke-width: 0.3; stroke-linejoin: miter"/>
   </g>
   <g id="patch_59">
    <path d="M 574.752211 640.8 
L 581.925546 640.8 
L 581.925546 589.908434 
L 574.752211 589.908434 
z
" clip-path="url(#p29c09bddee)" style="fill: #1f77b4; stroke: #ffffff; stroke-width: 0.3; stroke-linejoin: miter"/>
   </g>
   <g id="patch_60">
    <path d="M 581.925546 640.8 
L 589.098881 640.8 
L 589.098881 591.180723 
L 581.925546 591.180723 
z
" clip-path="url(#p29c09bddee)" style="fill: #1f77b4; stroke: #ffffff; stroke-width: 0.3; stroke-linejoin: miter"/>
   </g>
   <g id="patch_61">
    <path d="M 589.098881 640.8 
L 596.272216 640.8 
L 596.272216 579.73012 
L 589.098881 579.73012 
z
" clip-path="url(#p29c09bddee)" style="fill: #1f77b4; stroke: #ffffff; stroke-width: 0.3; stroke-linejoin: miter"/>
   </g>
   <g id="patch_62">
    <path d="M 596.272216 640.8 
L 603.445551 640.8 
L 603.445551 600.086747 
L 596.272216 600.086747 
z
" clip-path="url(#p29c09bddee)" style="fill: #1f77b4; stroke: #ffffff; stroke-width: 0.3; stroke-linejoin: miter"/>
   </g>
   <g id="patch_63">
    <path d="M 603.445551 640.8 
L 610.618885 640.8 
L 610.618885 611.537349 
L 603.445551 611.537349 
z
" clip-path="url(#p29c09bddee)" style="fill: #1f77b4; stroke: #ffffff; stroke-width: 0.3; stroke-linejoin: miter"/>
   </g>
   <g id="patch_64">
    <path d="M 610.618885 640.8 
L 617.79222 640.8 
L 617.79222 605.175904 
L 610.618885 605.175904 
z
" clip-path="url(#p29c09bddee)" style="fill: #1f77b4; stroke: #ffffff; stroke-width: 0.3; stroke-linejoin: miter"/>
   </g>
   <g id="patch_65">
    <path d="M 617.79222 640.8 
L 624.965555 640.8 
L 624.965555 611.537349 
L 617.79222 611.537349 
z
" clip-path="url(#p29c09bddee)" style="fill: #1f77b4; stroke: #ffffff; stroke-width: 0.3; stroke-linejoin: miter"/>
   </g>
   <g id="patch_66">
    <path d="M 624.965555 640.8 
L 632.13889 640.8 
L 632.13889 606.448193 
L 624.965555 606.448193 
z
" clip-path="url(#p29c09bddee)" style="fill: #1f77b4; stroke: #ffffff; stroke-width: 0.3; stroke-linejoin: miter"/>
   </g>
   <g id="patch_67">
    <path d="M 632.13889 640.8 
L 639.312225 640.8 
L 639.312225 615.354217 
L 632.13889 615.354217 
z
" clip-path="url(#p29c09bddee)" style="fill: #1f77b4; stroke: #ffffff; stroke-width: 0.3; stroke-linejoin: miter"/>
   </g>
   <g id="patch_68">
    <path d="M 639.312225 640.8 
L 646.48556 640.8 
L 646.48556 615.354217 
L 639.312225 615.354217 
z
" clip-path="url(#p29c09bddee)" style="fill: #1f77b4; stroke: #ffffff; stroke-width: 0.3; stroke-linejoin: miter"/>
   </g>
   <g id="patch_69">
    <path d="M 646.48556 640.8 
L 653.658895 640.8 
L 653.658895 621.715663 
L 646.48556 621.715663 
z
" clip-path="url(#p29c09bddee)" style="fill: #1f77b4; stroke: #ffffff; stroke-width: 0.3; stroke-linejoin: miter"/>
   </g>
   <g id="patch_70">
    <path d="M 653.658895 640.8 
L 660.83223 640.8 
L 660.83223 629.349398 
L 653.658895 629.349398 
z
" clip-path="url(#p29c09bddee)" style="fill: #1f77b4; stroke: #ffffff; stroke-width: 0.3; stroke-linejoin: miter"/>
   </g>
   <g id="patch_71">
    <path d="M 660.83223 640.8 
L 668.005565 640.8 
L 668.005565 626.804819 
L 660.83223 626.804819 
z
" clip-path="url(#p29c09bddee)" style="fill: #1f77b4; stroke: #ffffff; stroke-width: 0.3; stroke-linejoin: miter"/>
   </g>
   <g id="patch_72">
    <path d="M 668.005565 640.8 
L 675.1789 640.8 
L 675.1789 629.349398 
L 668.005565 629.349398 
z
" clip-path="url(#p29c09bddee)" style="fill: #1f77b4; stroke: #ffffff; stroke-width: 0.3; stroke-linejoin: miter"/>
   </g>
   <g id="patch_73">
    <path d="M 675.1789 640.8 
L 682.352235 640.8 
L 682.352235 634.438554 
L 675.1789 634.438554 
z
" clip-path="url(#p29c09bddee)" style="fill: #1f77b4; stroke: #ffffff; stroke-width: 0.3; stroke-linejoin: miter"/>
   </g>
   <g id="patch_74">
    <path d="M 682.352235 640.8 
L 689.52557 640.8 
L 689.52557 635.710843 
L 682.352235 635.710843 
z
" clip-path="url(#p29c09bddee)" style="fill: #1f77b4; stroke: #ffffff; stroke-width: 0.3; stroke-linejoin: miter"/>
   </g>
   <g id="patch_75">
    <path d="M 689.52557 640.8 
L 696.698905 640.8 
L 696.698905 628.077108 
L 689.52557 628.077108 
z
" clip-path="url(#p29c09bddee)" style="fill: #1f77b4; stroke: #ffffff; stroke-width: 0.3; stroke-linejoin: miter"/>
   </g>
   <g id="patch_76">
    <path d="M 696.698905 640.8 
L 703.87224 640.8 
L 703.87224 631.893976 
L 696.698905 631.893976 
z
" clip-path="url(#p29c09bddee)" style="fill: #1f77b4; stroke: #ffffff; stroke-width: 0.3; stroke-linejoin: miter"/>
   </g>
   <g id="patch_77">
    <path d="M 703.87224 640.8 
L 711.045575 640.8 
L 711.045575 635.710843 
L 703.87224 635.710843 
z
" clip-path="url(#p29c09bddee)" style="fill: #1f77b4; stroke: #ffffff; stroke-width: 0.3; stroke-linejoin: miter"/>
   </g>
   <g id="patch_78">
    <path d="M 711.045575 640.8 
L 718.218909 640.8 
L 718.218909 635.710843 
L 711.045575 635.710843 
z
" clip-path="url(#p29c09bddee)" style="fill: #1f77b4; stroke: #ffffff; stroke-width: 0.3; stroke-linejoin: miter"/>
   </g>
   <g id="patch_79">
    <path d="M 718.218909 640.8 
L 725.392244 640.8 
L 725.392244 634.438554 
L 718.218909 634.438554 
z
" clip-path="url(#p29c09bddee)" style="fill: #1f77b4; stroke: #ffffff; stroke-width: 0.3; stroke-linejoin: miter"/>
   </g>
   <g id="patch_80">
    <path d="M 725.392244 640.8 
L 732.565579 640.8 
L 732.565579 635.710843 
L 725.392244 635.710843 
z
" clip-path="url(#p29c09bddee)" style="fill: #1f77b4; stroke: #ffffff; stroke-width: 0.3; stroke-linejoin: miter"/>
   </g>
   <g id="patch_81">
    <path d="M 732.565579 640.8 
L 739.738914 640.8 
L 739.738914 639.527711 
L 732.565579 639.527711 
z
" clip-path="url(#p29c09bddee)" style="fill: #1f77b4; stroke: #ffffff; stroke-width: 0.3; stroke-linejoin: miter"/>
   </g>
   <g id="patch_82">
    <path d="M 739.738914 640.8 
L 746.912249 640.8 
L 746.912249 639.527711 
L 739.738914 639.527711 
z
" clip-path="url(#p29c09bddee)" style="fill: #1f77b4; stroke: #ffffff; stroke-width: 0.3; stroke-linejoin: miter"/>
   </g>
   <g id="patch_83">
    <path d="M 746.912249 640.8 
L 754.085584 640.8 
L 754.085584 636.983133 
L 746.912249 636.983133 
z
" clip-path="url(#p29c09bddee)" style="fill: #1f77b4; stroke: #ffffff; stroke-width: 0.3; stroke-linejoin: miter"/>
   </g>
   <g id="patch_84">
    <path d="M 754.085584 640.8 
L 761.258919 640.8 
L 761.258919 636.983133 
L 754.085584 636.983133 
z
" clip-path="url(#p29c09bddee)" style="fill: #1f77b4; stroke: #ffffff; stroke-width: 0.3; stroke-linejoin: miter"/>
   </g>
   <g id="patch_85">
    <path d="M 761.258919 640.8 
L 768.432254 640.8 
L 768.432254 638.255422 
L 761.258919 638.255422 
z
" clip-path="url(#p29c09bddee)" style="fill: #1f77b4; stroke: #ffffff; stroke-width: 0.3; stroke-linejoin: miter"/>
   </g>
   <g id="patch_86">
    <path d="M 768.432254 640.8 
L 775.605589 640.8 
L 775.605589 639.527711 
L 768.432254 639.527711 
z
" clip-path="url(#p29c09bddee)" style="fill: #1f77b4; stroke: #ffffff; stroke-width: 0.3; stroke-linejoin: miter"/>
   </g>
   <g id="patch_87">
    <path d="M 775.605589 640.8 
L 782.778924 640.8 
L 782.778924 639.527711 
L 775.605589 639.527711 
z
" clip-path="url(#p29c09bddee)" style="fill: #1f77b4; stroke: #ffffff; stroke-width: 0.3; stroke-linejoin: miter"/>
   </g>
   <g id="patch_88">
    <path d="M 782.778924 640.8 
L 789.952259 640.8 
L 789.952259 640.8 
L 782.778924 640.8 
z
" clip-path="url(#p29c09bddee)" style="fill: #1f77b4; stroke: #ffffff; stroke-width: 0.3; stroke-linejoin: miter"/>
   </g>
   <g id="patch_89">
    <path d="M 789.952259 640.8 
L 797.125594 640.8 
L 797.125594 638.255422 
L 789.952259 638.255422 
z
" clip-path="url(#p29c09bddee)" style="fill: #1f77b4; stroke: #ffffff; stroke-width: 0.3; stroke-linejoin: miter"/>
   </g>
   <g id="patch_90">
    <path d="M 797.125594 640.8 
L 804.298929 640.8 
L 804.298929 640.8 
L 797.125594 640.8 
z
" clip-path="url(#p29c09bddee)" style="fill: #1f77b4; stroke: #ffffff; stroke-width: 0.3; stroke-linejoin: miter"/>
   </g>
   <g id="patch_91">
    <path d="M 804.298929 640.8 
L 811.472264 640.8 
L 811.472264 639.527711 
L 804.298929 639.527711 
z
" clip-path="url(#p29c09bddee)" style="fill: #1f77b4; stroke: #ffffff; stroke-width: 0.3; stroke-linejoin: miter"/>
   </g>
   <g id="patch_92">
    <path d="M 811.472264 640.8 
L 818.645599 640.8 
L 818.645599 640.8 
L 811.472264 640.8 
z
" clip-path="url(#p29c09bddee)" style="fill: #1f77b4; stroke: #ffffff; stroke-width: 0.3; stroke-linejoin: miter"/>
   </g>
   <g id="patch_93">
    <path d="M 818.645599 640.8 
L 825.818933 640.8 
L 825.818933 639.527711 
L 818.645599 639.527711 
z
" clip-path="url(#p29c09bddee)" style="fill: #1f77b4; stroke: #ffffff; stroke-width: 0.3; stroke-linejoin: miter"/>
   </g>
   <g id="patch_94">
    <path d="M 825.818933 640.8 
L 832.992268 640.8 
L 832.992268 640.8 
L 825.818933 640.8 
z
" clip-path="url(#p29c09bddee)" style="fill: #1f77b4; stroke: #ffffff; stroke-width: 0.3; stroke-linejoin: miter"/>
   </g>
   <g id="patch_95">
    <path d="M 832.992268 640.8 
L 840.165603 640.8 
L 840.165603 640.8 
L 832.992268 640.8 
z
" clip-path="url(#p29c09bddee)" style="fill: #1f77b4; stroke: #ffffff; stroke-width: 0.3; stroke-linejoin: miter"/>
   </g>
   <g id="patch_96">
    <path d="M 840.165603 640.8 
L 847.338938 640.8 
L 847.338938 640.8 
L 840.165603 640.8 
z
" clip-path="url(#p29c09bddee)" style="fill: #1f77b4; stroke: #ffffff; stroke-width: 0.3; stroke-linejoin: miter"/>
   </g>
   <g id="patch_97">
    <path d="M 847.338938 640.8 
L 854.512273 640.8 
L 854.512273 640.8 
L 847.338938 640.8 
z
" clip-path="url(#p29c09bddee)" style="fill: #1f77b4; stroke: #ffffff; stroke-width: 0.3; stroke-linejoin: miter"/>
   </g>
   <g id="patch_98">
    <path d="M 854.512273 640.8 
L 861.685608 640.8 
L 861.685608 640.8 
L 854.512273 640.8 
z
" clip-path="url(#p29c09bddee)" style="fill: #1f77b4; stroke: #ffffff; stroke-width: 0.3; stroke-linejoin: miter"/>
   </g>
   <g id="patch_99">
    <path d="M 861.685608 640.8 
L 868.858943 640.8 
L 868.858943 640.8 
L 861.685608 640.8 
z
" clip-path="url(#p29c09bddee)" style="fill: #1f77b4; stroke: #ffffff; stroke-width: 0.3; stroke-linejoin: miter"/>
   </g>
   <g id="patch_100">
    <path d="M 868.858943 640.8 
L 876.032278 640.8 
L 876.032278 640.8 
L 868.858943 640.8 
z
" clip-path="url(#p29c09bddee)" style="fill: #1f77b4; stroke: #ffffff; stroke-width: 0.3; stroke-linejoin: miter"/>
   </g>
   <g id="patch_101">
    <path d="M 876.032278 640.8 
L 883.205613 640.8 
L 883.205613 639.527711 
L 876.032278 639.527711 
z
" clip-path="url(#p29c09bddee)" style="fill: #1f77b4; stroke: #ffffff; stroke-width: 0.3; stroke-linejoin: miter"/>
   </g>
   <g id="patch_102">
    <path d="M 883.205613 640.8 
L 890.378948 640.8 
L 890.378948 639.527711 
L 883.205613 639.527711 
z
" clip-path="url(#p29c09bddee)" style="fill: #1f77b4; stroke: #ffffff; stroke-width: 0.3; stroke-linejoin: miter"/>
   </g>
   <g id="matplotlib.axis_1">
    <g id="xtick_1">
     <g id="line2d_1">
      <defs>
       <path id="m79bb1fee66" d="M 0 0 
L 0 3.5 
" style="stroke: #000000; stroke-width: 0.8"/>
      </defs>
      <g>
       <use xlink:href="#m79bb1fee66" x="218.923027" y="640.8" style="stroke: #000000; stroke-width: 0.8"/>
      </g>
     </g>
     <g id="text_1">
      <!-- 2000 -->
      <g transform="translate(206.198027 655.398438) scale(0.1 -0.1)">
       <defs>
        <path id="DejaVuSans-32" d="M 1228 531 
L 3431 531 
L 3431 0 
L 469 0 
L 469 531 
Q 828 903 1448 1529 
Q 2069 2156 2228 2338 
Q 2531 2678 2651 2914 
Q 2772 3150 2772 3378 
Q 2772 3750 2511 3984 
Q 2250 4219 1831 4219 
Q 1534 4219 1204 4116 
Q 875 4013 500 3803 
L 500 4441 
Q 881 4594 1212 4672 
Q 1544 4750 1819 4750 
Q 2544 4750 2975 4387 
Q 3406 4025 3406 3419 
Q 3406 3131 3298 2873 
Q 3191 2616 2906 2266 
Q 2828 2175 2409 1742 
Q 1991 1309 1228 531 
z
" transform="scale(0.015625)"/>
        <path id="DejaVuSans-30" d="M 2034 4250 
Q 1547 4250 1301 3770 
Q 1056 3291 1056 2328 
Q 1056 1369 1301 889 
Q 1547 409 2034 409 
Q 2525 409 2770 889 
Q 3016 1369 3016 2328 
Q 3016 3291 2770 3770 
Q 2525 4250 2034 4250 
z
M 2034 4750 
Q 2819 4750 3233 4129 
Q 3647 3509 3647 2328 
Q 3647 1150 3233 529 
Q 2819 -91 2034 -91 
Q 1250 -91 836 529 
Q 422 1150 422 2328 
Q 422 3509 836 4129 
Q 1250 4750 2034 4750 
z
" transform="scale(0.015625)"/>
       </defs>
       <use xlink:href="#DejaVuSans-32"/>
       <use xlink:href="#DejaVuSans-30" x="63.623047"/>
       <use xlink:href="#DejaVuSans-30" x="127.246094"/>
       <use xlink:href="#DejaVuSans-30" x="190.869141"/>
      </g>
     </g>
    </g>
    <g id="xtick_2">
     <g id="line2d_2">
      <g>
       <use xlink:href="#m79bb1fee66" x="359.125286" y="640.8" style="stroke: #000000; stroke-width: 0.8"/>
      </g>
     </g>
     <g id="text_2">
      <!-- 4000 -->
      <g transform="translate(346.400286 655.398438) scale(0.1 -0.1)">
       <defs>
        <path id="DejaVuSans-34" d="M 2419 4116 
L 825 1625 
L 2419 1625 
L 2419 4116 
z
M 2253 4666 
L 3047 4666 
L 3047 1625 
L 3713 1625 
L 3713 1100 
L 3047 1100 
L 3047 0 
L 2419 0 
L 2419 1100 
L 313 1100 
L 313 1709 
L 2253 4666 
z
" transform="scale(0.015625)"/>
       </defs>
       <use xlink:href="#DejaVuSans-34"/>
       <use xlink:href="#DejaVuSans-30" x="63.623047"/>
       <use xlink:href="#DejaVuSans-30" x="127.246094"/>
       <use xlink:href="#DejaVuSans-30" x="190.869141"/>
      </g>
     </g>
    </g>
    <g id="xtick_3">
     <g id="line2d_3">
      <g>
       <use xlink:href="#m79bb1fee66" x="499.327544" y="640.8" style="stroke: #000000; stroke-width: 0.8"/>
      </g>
     </g>
     <g id="text_3">
      <!-- 6000 -->
      <g transform="translate(486.602544 655.398438) scale(0.1 -0.1)">
       <defs>
        <path id="DejaVuSans-36" d="M 2113 2584 
Q 1688 2584 1439 2293 
Q 1191 2003 1191 1497 
Q 1191 994 1439 701 
Q 1688 409 2113 409 
Q 2538 409 2786 701 
Q 3034 994 3034 1497 
Q 3034 2003 2786 2293 
Q 2538 2584 2113 2584 
z
M 3366 4563 
L 3366 3988 
Q 3128 4100 2886 4159 
Q 2644 4219 2406 4219 
Q 1781 4219 1451 3797 
Q 1122 3375 1075 2522 
Q 1259 2794 1537 2939 
Q 1816 3084 2150 3084 
Q 2853 3084 3261 2657 
Q 3669 2231 3669 1497 
Q 3669 778 3244 343 
Q 2819 -91 2113 -91 
Q 1303 -91 875 529 
Q 447 1150 447 2328 
Q 447 3434 972 4092 
Q 1497 4750 2381 4750 
Q 2619 4750 2861 4703 
Q 3103 4656 3366 4563 
z
" transform="scale(0.015625)"/>
       </defs>
       <use xlink:href="#DejaVuSans-36"/>
       <use xlink:href="#DejaVuSans-30" x="63.623047"/>
       <use xlink:href="#DejaVuSans-30" x="127.246094"/>
       <use xlink:href="#DejaVuSans-30" x="190.869141"/>
      </g>
     </g>
    </g>
    <g id="xtick_4">
     <g id="line2d_4">
      <g>
       <use xlink:href="#m79bb1fee66" x="639.529803" y="640.8" style="stroke: #000000; stroke-width: 0.8"/>
      </g>
     </g>
     <g id="text_4">
      <!-- 8000 -->
      <g transform="translate(626.804803 655.398438) scale(0.1 -0.1)">
       <defs>
        <path id="DejaVuSans-38" d="M 2034 2216 
Q 1584 2216 1326 1975 
Q 1069 1734 1069 1313 
Q 1069 891 1326 650 
Q 1584 409 2034 409 
Q 2484 409 2743 651 
Q 3003 894 3003 1313 
Q 3003 1734 2745 1975 
Q 2488 2216 2034 2216 
z
M 1403 2484 
Q 997 2584 770 2862 
Q 544 3141 544 3541 
Q 544 4100 942 4425 
Q 1341 4750 2034 4750 
Q 2731 4750 3128 4425 
Q 3525 4100 3525 3541 
Q 3525 3141 3298 2862 
Q 3072 2584 2669 2484 
Q 3125 2378 3379 2068 
Q 3634 1759 3634 1313 
Q 3634 634 3220 271 
Q 2806 -91 2034 -91 
Q 1263 -91 848 271 
Q 434 634 434 1313 
Q 434 1759 690 2068 
Q 947 2378 1403 2484 
z
M 1172 3481 
Q 1172 3119 1398 2916 
Q 1625 2713 2034 2713 
Q 2441 2713 2670 2916 
Q 2900 3119 2900 3481 
Q 2900 3844 2670 4047 
Q 2441 4250 2034 4250 
Q 1625 4250 1398 4047 
Q 1172 3844 1172 3481 
z
" transform="scale(0.015625)"/>
       </defs>
       <use xlink:href="#DejaVuSans-38"/>
       <use xlink:href="#DejaVuSans-30" x="63.623047"/>
       <use xlink:href="#DejaVuSans-30" x="127.246094"/>
       <use xlink:href="#DejaVuSans-30" x="190.869141"/>
      </g>
     </g>
    </g>
    <g id="xtick_5">
     <g id="line2d_5">
      <g>
       <use xlink:href="#m79bb1fee66" x="779.732061" y="640.8" style="stroke: #000000; stroke-width: 0.8"/>
      </g>
     </g>
     <g id="text_5">
      <!-- 10000 -->
      <g transform="translate(763.825811 655.398438) scale(0.1 -0.1)">
       <defs>
        <path id="DejaVuSans-31" d="M 794 531 
L 1825 531 
L 1825 4091 
L 703 3866 
L 703 4441 
L 1819 4666 
L 2450 4666 
L 2450 531 
L 3481 531 
L 3481 0 
L 794 0 
L 794 531 
z
" transform="scale(0.015625)"/>
       </defs>
       <use xlink:href="#DejaVuSans-31"/>
       <use xlink:href="#DejaVuSans-30" x="63.623047"/>
       <use xlink:href="#DejaVuSans-30" x="127.246094"/>
       <use xlink:href="#DejaVuSans-30" x="190.869141"/>
       <use xlink:href="#DejaVuSans-30" x="254.492188"/>
      </g>
     </g>
    </g>
    <g id="xtick_6">
     <g id="line2d_6">
      <g>
       <use xlink:href="#m79bb1fee66" x="919.93432" y="640.8" style="stroke: #000000; stroke-width: 0.8"/>
      </g>
     </g>
     <g id="text_6">
      <!-- 12000 -->
      <g transform="translate(904.02807 655.398438) scale(0.1 -0.1)">
       <use xlink:href="#DejaVuSans-31"/>
       <use xlink:href="#DejaVuSans-32" x="63.623047"/>
       <use xlink:href="#DejaVuSans-30" x="127.246094"/>
       <use xlink:href="#DejaVuSans-30" x="190.869141"/>
       <use xlink:href="#DejaVuSans-30" x="254.492188"/>
      </g>
     </g>
    </g>
    <g id="text_7">
     <!-- Code cost -->
     <g transform="translate(528.735937 669.076563) scale(0.1 -0.1)">
      <defs>
       <path id="DejaVuSans-43" d="M 4122 4306 
L 4122 3641 
Q 3803 3938 3442 4084 
Q 3081 4231 2675 4231 
Q 1875 4231 1450 3742 
Q 1025 3253 1025 2328 
Q 1025 1406 1450 917 
Q 1875 428 2675 428 
Q 3081 428 3442 575 
Q 3803 722 4122 1019 
L 4122 359 
Q 3791 134 3420 21 
Q 3050 -91 2638 -91 
Q 1578 -91 968 557 
Q 359 1206 359 2328 
Q 359 3453 968 4101 
Q 1578 4750 2638 4750 
Q 3056 4750 3426 4639 
Q 3797 4528 4122 4306 
z
" transform="scale(0.015625)"/>
       <path id="DejaVuSans-6f" d="M 1959 3097 
Q 1497 3097 1228 2736 
Q 959 2375 959 1747 
Q 959 1119 1226 758 
Q 1494 397 1959 397 
Q 2419 397 2687 759 
Q 2956 1122 2956 1747 
Q 2956 2369 2687 2733 
Q 2419 3097 1959 3097 
z
M 1959 3584 
Q 2709 3584 3137 3096 
Q 3566 2609 3566 1747 
Q 3566 888 3137 398 
Q 2709 -91 1959 -91 
Q 1206 -91 779 398 
Q 353 888 353 1747 
Q 353 2609 779 3096 
Q 1206 3584 1959 3584 
z
" transform="scale(0.015625)"/>
       <path id="DejaVuSans-64" d="M 2906 2969 
L 2906 4863 
L 3481 4863 
L 3481 0 
L 2906 0 
L 2906 525 
Q 2725 213 2448 61 
Q 2172 -91 1784 -91 
Q 1150 -91 751 415 
Q 353 922 353 1747 
Q 353 2572 751 3078 
Q 1150 3584 1784 3584 
Q 2172 3584 2448 3432 
Q 2725 3281 2906 2969 
z
M 947 1747 
Q 947 1113 1208 752 
Q 1469 391 1925 391 
Q 2381 391 2643 752 
Q 2906 1113 2906 1747 
Q 2906 2381 2643 2742 
Q 2381 3103 1925 3103 
Q 1469 3103 1208 2742 
Q 947 2381 947 1747 
z
" transform="scale(0.015625)"/>
       <path id="DejaVuSans-65" d="M 3597 1894 
L 3597 1613 
L 953 1613 
Q 991 1019 1311 708 
Q 1631 397 2203 397 
Q 2534 397 2845 478 
Q 3156 559 3463 722 
L 3463 178 
Q 3153 47 2828 -22 
Q 2503 -91 2169 -91 
Q 1331 -91 842 396 
Q 353 884 353 1716 
Q 353 2575 817 3079 
Q 1281 3584 2069 3584 
Q 2775 3584 3186 3129 
Q 3597 2675 3597 1894 
z
M 3022 2063 
Q 3016 2534 2758 2815 
Q 2500 3097 2075 3097 
Q 1594 3097 1305 2825 
Q 1016 2553 972 2059 
L 3022 2063 
z
" transform="scale(0.015625)"/>
       <path id="DejaVuSans-20" transform="scale(0.015625)"/>
       <path id="DejaVuSans-63" d="M 3122 3366 
L 3122 2828 
Q 2878 2963 2633 3030 
Q 2388 3097 2138 3097 
Q 1578 3097 1268 2742 
Q 959 2388 959 1747 
Q 959 1106 1268 751 
Q 1578 397 2138 397 
Q 2388 397 2633 464 
Q 2878 531 3122 666 
L 3122 134 
Q 2881 22 2623 -34 
Q 2366 -91 2075 -91 
Q 1284 -91 818 406 
Q 353 903 353 1747 
Q 353 2603 823 3093 
Q 1294 3584 2113 3584 
Q 2378 3584 2631 3529 
Q 2884 3475 3122 3366 
z
" transform="scale(0.015625)"/>
       <path id="DejaVuSans-73" d="M 2834 3397 
L 2834 2853 
Q 2591 2978 2328 3040 
Q 2066 3103 1784 3103 
Q 1356 3103 1142 2972 
Q 928 2841 928 2578 
Q 928 2378 1081 2264 
Q 1234 2150 1697 2047 
L 1894 2003 
Q 2506 1872 2764 1633 
Q 3022 1394 3022 966 
Q 3022 478 2636 193 
Q 2250 -91 1575 -91 
Q 1294 -91 989 -36 
Q 684 19 347 128 
L 347 722 
Q 666 556 975 473 
Q 1284 391 1588 391 
Q 1994 391 2212 530 
Q 2431 669 2431 922 
Q 2431 1156 2273 1281 
Q 2116 1406 1581 1522 
L 1381 1569 
Q 847 1681 609 1914 
Q 372 2147 372 2553 
Q 372 3047 722 3315 
Q 1072 3584 1716 3584 
Q 2034 3584 2315 3537 
Q 2597 3491 2834 3397 
z
" transform="scale(0.015625)"/>
       <path id="DejaVuSans-74" d="M 1172 4494 
L 1172 3500 
L 2356 3500 
L 2356 3053 
L 1172 3053 
L 1172 1153 
Q 1172 725 1289 603 
Q 1406 481 1766 481 
L 2356 481 
L 2356 0 
L 1766 0 
Q 1100 0 847 248 
Q 594 497 594 1153 
L 594 3053 
L 172 3053 
L 172 3500 
L 594 3500 
L 594 4494 
L 1172 4494 
z
" transform="scale(0.015625)"/>
      </defs>
      <use xlink:href="#DejaVuSans-43"/>
      <use xlink:href="#DejaVuSans-6f" x="69.824219"/>
      <use xlink:href="#DejaVuSans-64" x="131.005859"/>
      <use xlink:href="#DejaVuSans-65" x="194.482422"/>
      <use xlink:href="#DejaVuSans-20" x="256.005859"/>
      <use xlink:href="#DejaVuSans-63" x="287.792969"/>
      <use xlink:href="#DejaVuSans-6f" x="342.773438"/>
      <use xlink:href="#DejaVuSans-73" x="403.955078"/>
      <use xlink:href="#DejaVuSans-74" x="456.054688"/>
     </g>
    </g>
   </g>
   <g id="matplotlib.axis_2">
    <g id="ytick_1">
     <g id="line2d_7">
      <defs>
       <path id="mc8d362b430" d="M 0 0 
L -3.5 0 
" style="stroke: #000000; stroke-width: 0.8"/>
      </defs>
      <g>
       <use xlink:href="#mc8d362b430" x="135" y="640.8" style="stroke: #000000; stroke-width: 0.8"/>
      </g>
     </g>
     <g id="text_8">
      <!-- 0 -->
      <g transform="translate(121.6375 644.599219) scale(0.1 -0.1)">
       <use xlink:href="#DejaVuSans-30"/>
      </g>
     </g>
    </g>
    <g id="ytick_2">
     <g id="line2d_8">
      <g>
       <use xlink:href="#mc8d362b430" x="135" y="577.185542" style="stroke: #000000; stroke-width: 0.8"/>
      </g>
     </g>
     <g id="text_9">
      <!-- 50 -->
      <g transform="translate(115.275 580.984761) scale(0.1 -0.1)">
       <defs>
        <path id="DejaVuSans-35" d="M 691 4666 
L 3169 4666 
L 3169 4134 
L 1269 4134 
L 1269 2991 
Q 1406 3038 1543 3061 
Q 1681 3084 1819 3084 
Q 2600 3084 3056 2656 
Q 3513 2228 3513 1497 
Q 3513 744 3044 326 
Q 2575 -91 1722 -91 
Q 1428 -91 1123 -41 
Q 819 9 494 109 
L 494 744 
Q 775 591 1075 516 
Q 1375 441 1709 441 
Q 2250 441 2565 725 
Q 2881 1009 2881 1497 
Q 2881 1984 2565 2268 
Q 2250 2553 1709 2553 
Q 1456 2553 1204 2497 
Q 953 2441 691 2322 
L 691 4666 
z
" transform="scale(0.015625)"/>
       </defs>
       <use xlink:href="#DejaVuSans-35"/>
       <use xlink:href="#DejaVuSans-30" x="63.623047"/>
      </g>
     </g>
    </g>
    <g id="ytick_3">
     <g id="line2d_9">
      <g>
       <use xlink:href="#mc8d362b430" x="135" y="513.571084" style="stroke: #000000; stroke-width: 0.8"/>
      </g>
     </g>
     <g id="text_10">
      <!-- 100 -->
      <g transform="translate(108.9125 517.370303) scale(0.1 -0.1)">
       <use xlink:href="#DejaVuSans-31"/>
       <use xlink:href="#DejaVuSans-30" x="63.623047"/>
       <use xlink:href="#DejaVuSans-30" x="127.246094"/>
      </g>
     </g>
    </g>
    <g id="ytick_4">
     <g id="line2d_10">
      <g>
       <use xlink:href="#mc8d362b430" x="135" y="449.956627" style="stroke: #000000; stroke-width: 0.8"/>
      </g>
     </g>
     <g id="text_11">
      <!-- 150 -->
      <g transform="translate(108.9125 453.755845) scale(0.1 -0.1)">
       <use xlink:href="#DejaVuSans-31"/>
       <use xlink:href="#DejaVuSans-35" x="63.623047"/>
       <use xlink:href="#DejaVuSans-30" x="127.246094"/>
      </g>
     </g>
    </g>
    <g id="ytick_5">
     <g id="line2d_11">
      <g>
       <use xlink:href="#mc8d362b430" x="135" y="386.342169" style="stroke: #000000; stroke-width: 0.8"/>
      </g>
     </g>
     <g id="text_12">
      <!-- 200 -->
      <g transform="translate(108.9125 390.141387) scale(0.1 -0.1)">
       <use xlink:href="#DejaVuSans-32"/>
       <use xlink:href="#DejaVuSans-30" x="63.623047"/>
       <use xlink:href="#DejaVuSans-30" x="127.246094"/>
      </g>
     </g>
    </g>
    <g id="ytick_6">
     <g id="line2d_12">
      <g>
       <use xlink:href="#mc8d362b430" x="135" y="322.727711" style="stroke: #000000; stroke-width: 0.8"/>
      </g>
     </g>
     <g id="text_13">
      <!-- 250 -->
      <g transform="translate(108.9125 326.52693) scale(0.1 -0.1)">
       <use xlink:href="#DejaVuSans-32"/>
       <use xlink:href="#DejaVuSans-35" x="63.623047"/>
       <use xlink:href="#DejaVuSans-30" x="127.246094"/>
      </g>
     </g>
    </g>
    <g id="ytick_7">
     <g id="line2d_13">
      <g>
       <use xlink:href="#mc8d362b430" x="135" y="259.113253" style="stroke: #000000; stroke-width: 0.8"/>
      </g>
     </g>
     <g id="text_14">
      <!-- 300 -->
      <g transform="translate(108.9125 262.912472) scale(0.1 -0.1)">
       <defs>
        <path id="DejaVuSans-33" d="M 2597 2516 
Q 3050 2419 3304 2112 
Q 3559 1806 3559 1356 
Q 3559 666 3084 287 
Q 2609 -91 1734 -91 
Q 1441 -91 1130 -33 
Q 819 25 488 141 
L 488 750 
Q 750 597 1062 519 
Q 1375 441 1716 441 
Q 2309 441 2620 675 
Q 2931 909 2931 1356 
Q 2931 1769 2642 2001 
Q 2353 2234 1838 2234 
L 1294 2234 
L 1294 2753 
L 1863 2753 
Q 2328 2753 2575 2939 
Q 2822 3125 2822 3475 
Q 2822 3834 2567 4026 
Q 2313 4219 1838 4219 
Q 1578 4219 1281 4162 
Q 984 4106 628 3988 
L 628 4550 
Q 988 4650 1302 4700 
Q 1616 4750 1894 4750 
Q 2613 4750 3031 4423 
Q 3450 4097 3450 3541 
Q 3450 3153 3228 2886 
Q 3006 2619 2597 2516 
z
" transform="scale(0.015625)"/>
       </defs>
       <use xlink:href="#DejaVuSans-33"/>
       <use xlink:href="#DejaVuSans-30" x="63.623047"/>
       <use xlink:href="#DejaVuSans-30" x="127.246094"/>
      </g>
     </g>
    </g>
    <g id="ytick_8">
     <g id="line2d_14">
      <g>
       <use xlink:href="#mc8d362b430" x="135" y="195.498795" style="stroke: #000000; stroke-width: 0.8"/>
      </g>
     </g>
     <g id="text_15">
      <!-- 350 -->
      <g transform="translate(108.9125 199.298014) scale(0.1 -0.1)">
       <use xlink:href="#DejaVuSans-33"/>
       <use xlink:href="#DejaVuSans-35" x="63.623047"/>
       <use xlink:href="#DejaVuSans-30" x="127.246094"/>
      </g>
     </g>
    </g>
    <g id="ytick_9">
     <g id="line2d_15">
      <g>
       <use xlink:href="#mc8d362b430" x="135" y="131.884337" style="stroke: #000000; stroke-width: 0.8"/>
      </g>
     </g>
     <g id="text_16">
      <!-- 400 -->
      <g transform="translate(108.9125 135.683556) scale(0.1 -0.1)">
       <use xlink:href="#DejaVuSans-34"/>
       <use xlink:href="#DejaVuSans-30" x="63.623047"/>
       <use xlink:href="#DejaVuSans-30" x="127.246094"/>
      </g>
     </g>
    </g>
    <g id="text_17">
     <!-- Number of occurrences -->
     <g transform="translate(102.832812 421.996875) rotate(-90) scale(0.1 -0.1)">
      <defs>
       <path id="DejaVuSans-4e" d="M 628 4666 
L 1478 4666 
L 3547 763 
L 3547 4666 
L 4159 4666 
L 4159 0 
L 3309 0 
L 1241 3903 
L 1241 0 
L 628 0 
L 628 4666 
z
" transform="scale(0.015625)"/>
       <path id="DejaVuSans-75" d="M 544 1381 
L 544 3500 
L 1119 3500 
L 1119 1403 
Q 1119 906 1312 657 
Q 1506 409 1894 409 
Q 2359 409 2629 706 
Q 2900 1003 2900 1516 
L 2900 3500 
L 3475 3500 
L 3475 0 
L 2900 0 
L 2900 538 
Q 2691 219 2414 64 
Q 2138 -91 1772 -91 
Q 1169 -91 856 284 
Q 544 659 544 1381 
z
M 1991 3584 
L 1991 3584 
z
" transform="scale(0.015625)"/>
       <path id="DejaVuSans-6d" d="M 3328 2828 
Q 3544 3216 3844 3400 
Q 4144 3584 4550 3584 
Q 5097 3584 5394 3201 
Q 5691 2819 5691 2113 
L 5691 0 
L 5113 0 
L 5113 2094 
Q 5113 2597 4934 2840 
Q 4756 3084 4391 3084 
Q 3944 3084 3684 2787 
Q 3425 2491 3425 1978 
L 3425 0 
L 2847 0 
L 2847 2094 
Q 2847 2600 2669 2842 
Q 2491 3084 2119 3084 
Q 1678 3084 1418 2786 
Q 1159 2488 1159 1978 
L 1159 0 
L 581 0 
L 581 3500 
L 1159 3500 
L 1159 2956 
Q 1356 3278 1631 3431 
Q 1906 3584 2284 3584 
Q 2666 3584 2933 3390 
Q 3200 3197 3328 2828 
z
" transform="scale(0.015625)"/>
       <path id="DejaVuSans-62" d="M 3116 1747 
Q 3116 2381 2855 2742 
Q 2594 3103 2138 3103 
Q 1681 3103 1420 2742 
Q 1159 2381 1159 1747 
Q 1159 1113 1420 752 
Q 1681 391 2138 391 
Q 2594 391 2855 752 
Q 3116 1113 3116 1747 
z
M 1159 2969 
Q 1341 3281 1617 3432 
Q 1894 3584 2278 3584 
Q 2916 3584 3314 3078 
Q 3713 2572 3713 1747 
Q 3713 922 3314 415 
Q 2916 -91 2278 -91 
Q 1894 -91 1617 61 
Q 1341 213 1159 525 
L 1159 0 
L 581 0 
L 581 4863 
L 1159 4863 
L 1159 2969 
z
" transform="scale(0.015625)"/>
       <path id="DejaVuSans-72" d="M 2631 2963 
Q 2534 3019 2420 3045 
Q 2306 3072 2169 3072 
Q 1681 3072 1420 2755 
Q 1159 2438 1159 1844 
L 1159 0 
L 581 0 
L 581 3500 
L 1159 3500 
L 1159 2956 
Q 1341 3275 1631 3429 
Q 1922 3584 2338 3584 
Q 2397 3584 2469 3576 
Q 2541 3569 2628 3553 
L 2631 2963 
z
" transform="scale(0.015625)"/>
       <path id="DejaVuSans-66" d="M 2375 4863 
L 2375 4384 
L 1825 4384 
Q 1516 4384 1395 4259 
Q 1275 4134 1275 3809 
L 1275 3500 
L 2222 3500 
L 2222 3053 
L 1275 3053 
L 1275 0 
L 697 0 
L 697 3053 
L 147 3053 
L 147 3500 
L 697 3500 
L 697 3744 
Q 697 4328 969 4595 
Q 1241 4863 1831 4863 
L 2375 4863 
z
" transform="scale(0.015625)"/>
       <path id="DejaVuSans-6e" d="M 3513 2113 
L 3513 0 
L 2938 0 
L 2938 2094 
Q 2938 2591 2744 2837 
Q 2550 3084 2163 3084 
Q 1697 3084 1428 2787 
Q 1159 2491 1159 1978 
L 1159 0 
L 581 0 
L 581 3500 
L 1159 3500 
L 1159 2956 
Q 1366 3272 1645 3428 
Q 1925 3584 2291 3584 
Q 2894 3584 3203 3211 
Q 3513 2838 3513 2113 
z
" transform="scale(0.015625)"/>
      </defs>
      <use xlink:href="#DejaVuSans-4e"/>
      <use xlink:href="#DejaVuSans-75" x="74.804688"/>
      <use xlink:href="#DejaVuSans-6d" x="138.183594"/>
      <use xlink:href="#DejaVuSans-62" x="235.595703"/>
      <use xlink:href="#DejaVuSans-65" x="299.072266"/>
      <use xlink:href="#DejaVuSans-72" x="360.595703"/>
      <use xlink:href="#DejaVuSans-20" x="401.708984"/>
      <use xlink:href="#DejaVuSans-6f" x="433.496094"/>
      <use xlink:href="#DejaVuSans-66" x="494.677734"/>
      <use xlink:href="#DejaVuSans-20" x="529.882812"/>
      <use xlink:href="#DejaVuSans-6f" x="561.669922"/>
      <use xlink:href="#DejaVuSans-63" x="622.851562"/>
      <use xlink:href="#DejaVuSans-63" x="677.832031"/>
      <use xlink:href="#DejaVuSans-75" x="732.8125"/>
      <use xlink:href="#DejaVuSans-72" x="796.191406"/>
      <use xlink:href="#DejaVuSans-72" x="835.554688"/>
      <use xlink:href="#DejaVuSans-65" x="874.417969"/>
      <use xlink:href="#DejaVuSans-6e" x="935.941406"/>
      <use xlink:href="#DejaVuSans-63" x="999.320312"/>
      <use xlink:href="#DejaVuSans-65" x="1054.300781"/>
      <use xlink:href="#DejaVuSans-73" x="1115.824219"/>
     </g>
    </g>
   </g>
   <g id="line2d_16">
    <path d="M 346.579401 640.8 
L 346.579401 86.4 
" clip-path="url(#p29c09bddee)" style="fill: none; stroke-dasharray: 5.55,2.4; stroke-dashoffset: 0; stroke: #ff0000; stroke-width: 1.5"/>
   </g>
   <g id="line2d_17">
    <path d="M 933.954545 640.8 
L 933.954545 86.4 
" clip-path="url(#p29c09bddee)" style="fill: none; stroke-dasharray: 5.55,2.4; stroke-dashoffset: 0; stroke: #008000; stroke-width: 1.5"/>
   </g>
   <g id="patch_103">
    <path d="M 135 640.8 
L 135 86.4 
" style="fill: none; stroke: #000000; stroke-width: 0.8; stroke-linejoin: miter; stroke-linecap: square"/>
   </g>
   <g id="patch_104">
    <path d="M 972 640.8 
L 972 86.4 
" style="fill: none; stroke: #000000; stroke-width: 0.8; stroke-linejoin: miter; stroke-linecap: square"/>
   </g>
   <g id="patch_105">
    <path d="M 135 640.8 
L 972 640.8 
" style="fill: none; stroke: #000000; stroke-width: 0.8; stroke-linejoin: miter; stroke-linecap: square"/>
   </g>
   <g id="patch_106">
    <path d="M 135 86.4 
L 972 86.4 
" style="fill: none; stroke: #000000; stroke-width: 0.8; stroke-linejoin: miter; stroke-linecap: square"/>
   </g>
   <g id="text_18">
    <!-- Koonin standard code cost -->
    <g transform="translate(361.351173 466.879687) rotate(-90) scale(0.1 -0.1)">
     <defs>
      <path id="DejaVuSans-4b" d="M 628 4666 
L 1259 4666 
L 1259 2694 
L 3353 4666 
L 4166 4666 
L 1850 2491 
L 4331 0 
L 3500 0 
L 1259 2247 
L 1259 0 
L 628 0 
L 628 4666 
z
" transform="scale(0.015625)"/>
      <path id="DejaVuSans-69" d="M 603 3500 
L 1178 3500 
L 1178 0 
L 603 0 
L 603 3500 
z
M 603 4863 
L 1178 4863 
L 1178 4134 
L 603 4134 
L 603 4863 
z
" transform="scale(0.015625)"/>
      <path id="DejaVuSans-61" d="M 2194 1759 
Q 1497 1759 1228 1600 
Q 959 1441 959 1056 
Q 959 750 1161 570 
Q 1363 391 1709 391 
Q 2188 391 2477 730 
Q 2766 1069 2766 1631 
L 2766 1759 
L 2194 1759 
z
M 3341 1997 
L 3341 0 
L 2766 0 
L 2766 531 
Q 2569 213 2275 61 
Q 1981 -91 1556 -91 
Q 1019 -91 701 211 
Q 384 513 384 1019 
Q 384 1609 779 1909 
Q 1175 2209 1959 2209 
L 2766 2209 
L 2766 2266 
Q 2766 2663 2505 2880 
Q 2244 3097 1772 3097 
Q 1472 3097 1187 3025 
Q 903 2953 641 2809 
L 641 3341 
Q 956 3463 1253 3523 
Q 1550 3584 1831 3584 
Q 2591 3584 2966 3190 
Q 3341 2797 3341 1997 
z
" transform="scale(0.015625)"/>
     </defs>
     <use xlink:href="#DejaVuSans-4b"/>
     <use xlink:href="#DejaVuSans-6f" x="60.576172"/>
     <use xlink:href="#DejaVuSans-6f" x="121.757812"/>
     <use xlink:href="#DejaVuSans-6e" x="182.939453"/>
     <use xlink:href="#DejaVuSans-69" x="246.318359"/>
     <use xlink:href="#DejaVuSans-6e" x="274.101562"/>
     <use xlink:href="#DejaVuSans-20" x="337.480469"/>
     <use xlink:href="#DejaVuSans-73" x="369.267578"/>
     <use xlink:href="#DejaVuSans-74" x="421.367188"/>
     <use xlink:href="#DejaVuSans-61" x="460.576172"/>
     <use xlink:href="#DejaVuSans-6e" x="521.855469"/>
     <use xlink:href="#DejaVuSans-64" x="585.234375"/>
     <use xlink:href="#DejaVuSans-61" x="648.710938"/>
     <use xlink:href="#DejaVuSans-72" x="709.990234"/>
     <use xlink:href="#DejaVuSans-64" x="749.353516"/>
     <use xlink:href="#DejaVuSans-20" x="812.830078"/>
     <use xlink:href="#DejaVuSans-63" x="844.617188"/>
     <use xlink:href="#DejaVuSans-6f" x="899.597656"/>
     <use xlink:href="#DejaVuSans-64" x="960.779297"/>
     <use xlink:href="#DejaVuSans-65" x="1024.255859"/>
     <use xlink:href="#DejaVuSans-20" x="1085.779297"/>
     <use xlink:href="#DejaVuSans-63" x="1117.566406"/>
     <use xlink:href="#DejaVuSans-6f" x="1172.546875"/>
     <use xlink:href="#DejaVuSans-73" x="1233.728516"/>
     <use xlink:href="#DejaVuSans-74" x="1285.828125"/>
    </g>
   </g>
   <g id="text_19">
    <!-- Neutral substitutions standard code cost -->
    <g transform="translate(948.726318 466.879687) rotate(-90) scale(0.1 -0.1)">
     <defs>
      <path id="DejaVuSans-6c" d="M 603 4863 
L 1178 4863 
L 1178 0 
L 603 0 
L 603 4863 
z
" transform="scale(0.015625)"/>
     </defs>
     <use xlink:href="#DejaVuSans-4e"/>
     <use xlink:href="#DejaVuSans-65" x="74.804688"/>
     <use xlink:href="#DejaVuSans-75" x="136.328125"/>
     <use xlink:href="#DejaVuSans-74" x="199.707031"/>
     <use xlink:href="#DejaVuSans-72" x="238.916016"/>
     <use xlink:href="#DejaVuSans-61" x="280.029297"/>
     <use xlink:href="#DejaVuSans-6c" x="341.308594"/>
     <use xlink:href="#DejaVuSans-20" x="369.091797"/>
     <use xlink:href="#DejaVuSans-73" x="400.878906"/>
     <use xlink:href="#DejaVuSans-75" x="452.978516"/>
     <use xlink:href="#DejaVuSans-62" x="516.357422"/>
     <use xlink:href="#DejaVuSans-73" x="579.833984"/>
     <use xlink:href="#DejaVuSans-74" x="631.933594"/>
     <use xlink:href="#DejaVuSans-69" x="671.142578"/>
     <use xlink:href="#DejaVuSans-74" x="698.925781"/>
     <use xlink:href="#DejaVuSans-75" x="738.134766"/>
     <use xlink:href="#DejaVuSans-74" x="801.513672"/>
     <use xlink:href="#DejaVuSans-69" x="840.722656"/>
     <use xlink:href="#DejaVuSans-6f" x="868.505859"/>
     <use xlink:href="#DejaVuSans-6e" x="929.6875"/>
     <use xlink:href="#DejaVuSans-73" x="993.066406"/>
     <use xlink:href="#DejaVuSans-20" x="1045.166016"/>
     <use xlink:href="#DejaVuSans-73" x="1076.953125"/>
     <use xlink:href="#DejaVuSans-74" x="1129.052734"/>
     <use xlink:href="#DejaVuSans-61" x="1168.261719"/>
     <use xlink:href="#DejaVuSans-6e" x="1229.541016"/>
     <use xlink:href="#DejaVuSans-64" x="1292.919922"/>
     <use xlink:href="#DejaVuSans-61" x="1356.396484"/>
     <use xlink:href="#DejaVuSans-72" x="1417.675781"/>
     <use xlink:href="#DejaVuSans-64" x="1457.039062"/>
     <use xlink:href="#DejaVuSans-20" x="1520.515625"/>
     <use xlink:href="#DejaVuSans-63" x="1552.302734"/>
     <use xlink:href="#DejaVuSans-6f" x="1607.283203"/>
     <use xlink:href="#DejaVuSans-64" x="1668.464844"/>
     <use xlink:href="#DejaVuSans-65" x="1731.941406"/>
     <use xlink:href="#DejaVuSans-20" x="1793.464844"/>
     <use xlink:href="#DejaVuSans-63" x="1825.251953"/>
     <use xlink:href="#DejaVuSans-6f" x="1880.232422"/>
     <use xlink:href="#DejaVuSans-73" x="1941.414062"/>
     <use xlink:href="#DejaVuSans-74" x="1993.513672"/>
    </g>
   </g>
   <g id="text_20">
    <!-- Number of occurrences of randomly simulated code costs per bracket for NORMALISED models generated using the Koonin method -->
    <g transform="translate(157.827188 66.962625) scale(0.12 -0.12)">
     <defs>
      <path id="DejaVuSans-79" d="M 2059 -325 
Q 1816 -950 1584 -1140 
Q 1353 -1331 966 -1331 
L 506 -1331 
L 506 -850 
L 844 -850 
Q 1081 -850 1212 -737 
Q 1344 -625 1503 -206 
L 1606 56 
L 191 3500 
L 800 3500 
L 1894 763 
L 2988 3500 
L 3597 3500 
L 2059 -325 
z
" transform="scale(0.015625)"/>
      <path id="DejaVuSans-70" d="M 1159 525 
L 1159 -1331 
L 581 -1331 
L 581 3500 
L 1159 3500 
L 1159 2969 
Q 1341 3281 1617 3432 
Q 1894 3584 2278 3584 
Q 2916 3584 3314 3078 
Q 3713 2572 3713 1747 
Q 3713 922 3314 415 
Q 2916 -91 2278 -91 
Q 1894 -91 1617 61 
Q 1341 213 1159 525 
z
M 3116 1747 
Q 3116 2381 2855 2742 
Q 2594 3103 2138 3103 
Q 1681 3103 1420 2742 
Q 1159 2381 1159 1747 
Q 1159 1113 1420 752 
Q 1681 391 2138 391 
Q 2594 391 2855 752 
Q 3116 1113 3116 1747 
z
" transform="scale(0.015625)"/>
      <path id="DejaVuSans-6b" d="M 581 4863 
L 1159 4863 
L 1159 1991 
L 2875 3500 
L 3609 3500 
L 1753 1863 
L 3688 0 
L 2938 0 
L 1159 1709 
L 1159 0 
L 581 0 
L 581 4863 
z
" transform="scale(0.015625)"/>
      <path id="DejaVuSans-4f" d="M 2522 4238 
Q 1834 4238 1429 3725 
Q 1025 3213 1025 2328 
Q 1025 1447 1429 934 
Q 1834 422 2522 422 
Q 3209 422 3611 934 
Q 4013 1447 4013 2328 
Q 4013 3213 3611 3725 
Q 3209 4238 2522 4238 
z
M 2522 4750 
Q 3503 4750 4090 4092 
Q 4678 3434 4678 2328 
Q 4678 1225 4090 567 
Q 3503 -91 2522 -91 
Q 1538 -91 948 565 
Q 359 1222 359 2328 
Q 359 3434 948 4092 
Q 1538 4750 2522 4750 
z
" transform="scale(0.015625)"/>
      <path id="DejaVuSans-52" d="M 2841 2188 
Q 3044 2119 3236 1894 
Q 3428 1669 3622 1275 
L 4263 0 
L 3584 0 
L 2988 1197 
Q 2756 1666 2539 1819 
Q 2322 1972 1947 1972 
L 1259 1972 
L 1259 0 
L 628 0 
L 628 4666 
L 2053 4666 
Q 2853 4666 3247 4331 
Q 3641 3997 3641 3322 
Q 3641 2881 3436 2590 
Q 3231 2300 2841 2188 
z
M 1259 4147 
L 1259 2491 
L 2053 2491 
Q 2509 2491 2742 2702 
Q 2975 2913 2975 3322 
Q 2975 3731 2742 3939 
Q 2509 4147 2053 4147 
L 1259 4147 
z
" transform="scale(0.015625)"/>
      <path id="DejaVuSans-4d" d="M 628 4666 
L 1569 4666 
L 2759 1491 
L 3956 4666 
L 4897 4666 
L 4897 0 
L 4281 0 
L 4281 4097 
L 3078 897 
L 2444 897 
L 1241 4097 
L 1241 0 
L 628 0 
L 628 4666 
z
" transform="scale(0.015625)"/>
      <path id="DejaVuSans-41" d="M 2188 4044 
L 1331 1722 
L 3047 1722 
L 2188 4044 
z
M 1831 4666 
L 2547 4666 
L 4325 0 
L 3669 0 
L 3244 1197 
L 1141 1197 
L 716 0 
L 50 0 
L 1831 4666 
z
" transform="scale(0.015625)"/>
      <path id="DejaVuSans-4c" d="M 628 4666 
L 1259 4666 
L 1259 531 
L 3531 531 
L 3531 0 
L 628 0 
L 628 4666 
z
" transform="scale(0.015625)"/>
      <path id="DejaVuSans-49" d="M 628 4666 
L 1259 4666 
L 1259 0 
L 628 0 
L 628 4666 
z
" transform="scale(0.015625)"/>
      <path id="DejaVuSans-53" d="M 3425 4513 
L 3425 3897 
Q 3066 4069 2747 4153 
Q 2428 4238 2131 4238 
Q 1616 4238 1336 4038 
Q 1056 3838 1056 3469 
Q 1056 3159 1242 3001 
Q 1428 2844 1947 2747 
L 2328 2669 
Q 3034 2534 3370 2195 
Q 3706 1856 3706 1288 
Q 3706 609 3251 259 
Q 2797 -91 1919 -91 
Q 1588 -91 1214 -16 
Q 841 59 441 206 
L 441 856 
Q 825 641 1194 531 
Q 1563 422 1919 422 
Q 2459 422 2753 634 
Q 3047 847 3047 1241 
Q 3047 1584 2836 1778 
Q 2625 1972 2144 2069 
L 1759 2144 
Q 1053 2284 737 2584 
Q 422 2884 422 3419 
Q 422 4038 858 4394 
Q 1294 4750 2059 4750 
Q 2388 4750 2728 4690 
Q 3069 4631 3425 4513 
z
" transform="scale(0.015625)"/>
      <path id="DejaVuSans-45" d="M 628 4666 
L 3578 4666 
L 3578 4134 
L 1259 4134 
L 1259 2753 
L 3481 2753 
L 3481 2222 
L 1259 2222 
L 1259 531 
L 3634 531 
L 3634 0 
L 628 0 
L 628 4666 
z
" transform="scale(0.015625)"/>
      <path id="DejaVuSans-44" d="M 1259 4147 
L 1259 519 
L 2022 519 
Q 2988 519 3436 956 
Q 3884 1394 3884 2338 
Q 3884 3275 3436 3711 
Q 2988 4147 2022 4147 
L 1259 4147 
z
M 628 4666 
L 1925 4666 
Q 3281 4666 3915 4102 
Q 4550 3538 4550 2338 
Q 4550 1131 3912 565 
Q 3275 0 1925 0 
L 628 0 
L 628 4666 
z
" transform="scale(0.015625)"/>
      <path id="DejaVuSans-67" d="M 2906 1791 
Q 2906 2416 2648 2759 
Q 2391 3103 1925 3103 
Q 1463 3103 1205 2759 
Q 947 2416 947 1791 
Q 947 1169 1205 825 
Q 1463 481 1925 481 
Q 2391 481 2648 825 
Q 2906 1169 2906 1791 
z
M 3481 434 
Q 3481 -459 3084 -895 
Q 2688 -1331 1869 -1331 
Q 1566 -1331 1297 -1286 
Q 1028 -1241 775 -1147 
L 775 -588 
Q 1028 -725 1275 -790 
Q 1522 -856 1778 -856 
Q 2344 -856 2625 -561 
Q 2906 -266 2906 331 
L 2906 616 
Q 2728 306 2450 153 
Q 2172 0 1784 0 
Q 1141 0 747 490 
Q 353 981 353 1791 
Q 353 2603 747 3093 
Q 1141 3584 1784 3584 
Q 2172 3584 2450 3431 
Q 2728 3278 2906 2969 
L 2906 3500 
L 3481 3500 
L 3481 434 
z
" transform="scale(0.015625)"/>
      <path id="DejaVuSans-68" d="M 3513 2113 
L 3513 0 
L 2938 0 
L 2938 2094 
Q 2938 2591 2744 2837 
Q 2550 3084 2163 3084 
Q 1697 3084 1428 2787 
Q 1159 2491 1159 1978 
L 1159 0 
L 581 0 
L 581 4863 
L 1159 4863 
L 1159 2956 
Q 1366 3272 1645 3428 
Q 1925 3584 2291 3584 
Q 2894 3584 3203 3211 
Q 3513 2838 3513 2113 
z
" transform="scale(0.015625)"/>
     </defs>
     <use xlink:href="#DejaVuSans-4e"/>
     <use xlink:href="#DejaVuSans-75" x="74.804688"/>
     <use xlink:href="#DejaVuSans-6d" x="138.183594"/>
     <use xlink:href="#DejaVuSans-62" x="235.595703"/>
     <use xlink:href="#DejaVuSans-65" x="299.072266"/>
     <use xlink:href="#DejaVuSans-72" x="360.595703"/>
     <use xlink:href="#DejaVuSans-20" x="401.708984"/>
     <use xlink:href="#DejaVuSans-6f" x="433.496094"/>
     <use xlink:href="#DejaVuSans-66" x="494.677734"/>
     <use xlink:href="#DejaVuSans-20" x="529.882812"/>
     <use xlink:href="#DejaVuSans-6f" x="561.669922"/>
     <use xlink:href="#DejaVuSans-63" x="622.851562"/>
     <use xlink:href="#DejaVuSans-63" x="677.832031"/>
     <use xlink:href="#DejaVuSans-75" x="732.8125"/>
     <use xlink:href="#DejaVuSans-72" x="796.191406"/>
     <use xlink:href="#DejaVuSans-72" x="835.554688"/>
     <use xlink:href="#DejaVuSans-65" x="874.417969"/>
     <use xlink:href="#DejaVuSans-6e" x="935.941406"/>
     <use xlink:href="#DejaVuSans-63" x="999.320312"/>
     <use xlink:href="#DejaVuSans-65" x="1054.300781"/>
     <use xlink:href="#DejaVuSans-73" x="1115.824219"/>
     <use xlink:href="#DejaVuSans-20" x="1167.923828"/>
     <use xlink:href="#DejaVuSans-6f" x="1199.710938"/>
     <use xlink:href="#DejaVuSans-66" x="1260.892578"/>
     <use xlink:href="#DejaVuSans-20" x="1296.097656"/>
     <use xlink:href="#DejaVuSans-72" x="1327.884766"/>
     <use xlink:href="#DejaVuSans-61" x="1368.998047"/>
     <use xlink:href="#DejaVuSans-6e" x="1430.277344"/>
     <use xlink:href="#DejaVuSans-64" x="1493.65625"/>
     <use xlink:href="#DejaVuSans-6f" x="1557.132812"/>
     <use xlink:href="#DejaVuSans-6d" x="1618.314453"/>
     <use xlink:href="#DejaVuSans-6c" x="1715.726562"/>
     <use xlink:href="#DejaVuSans-79" x="1743.509766"/>
     <use xlink:href="#DejaVuSans-20" x="1802.689453"/>
     <use xlink:href="#DejaVuSans-73" x="1834.476562"/>
     <use xlink:href="#DejaVuSans-69" x="1886.576172"/>
     <use xlink:href="#DejaVuSans-6d" x="1914.359375"/>
     <use xlink:href="#DejaVuSans-75" x="2011.771484"/>
     <use xlink:href="#DejaVuSans-6c" x="2075.150391"/>
     <use xlink:href="#DejaVuSans-61" x="2102.933594"/>
     <use xlink:href="#DejaVuSans-74" x="2164.212891"/>
     <use xlink:href="#DejaVuSans-65" x="2203.421875"/>
     <use xlink:href="#DejaVuSans-64" x="2264.945312"/>
     <use xlink:href="#DejaVuSans-20" x="2328.421875"/>
     <use xlink:href="#DejaVuSans-63" x="2360.208984"/>
     <use xlink:href="#DejaVuSans-6f" x="2415.189453"/>
     <use xlink:href="#DejaVuSans-64" x="2476.371094"/>
     <use xlink:href="#DejaVuSans-65" x="2539.847656"/>
     <use xlink:href="#DejaVuSans-20" x="2601.371094"/>
     <use xlink:href="#DejaVuSans-63" x="2633.158203"/>
     <use xlink:href="#DejaVuSans-6f" x="2688.138672"/>
     <use xlink:href="#DejaVuSans-73" x="2749.320312"/>
     <use xlink:href="#DejaVuSans-74" x="2801.419922"/>
     <use xlink:href="#DejaVuSans-73" x="2840.628906"/>
     <use xlink:href="#DejaVuSans-20" x="2892.728516"/>
     <use xlink:href="#DejaVuSans-70" x="2924.515625"/>
     <use xlink:href="#DejaVuSans-65" x="2987.992188"/>
     <use xlink:href="#DejaVuSans-72" x="3049.515625"/>
     <use xlink:href="#DejaVuSans-20" x="3090.628906"/>
     <use xlink:href="#DejaVuSans-62" x="3122.416016"/>
     <use xlink:href="#DejaVuSans-72" x="3185.892578"/>
     <use xlink:href="#DejaVuSans-61" x="3227.005859"/>
     <use xlink:href="#DejaVuSans-63" x="3288.285156"/>
     <use xlink:href="#DejaVuSans-6b" x="3343.265625"/>
     <use xlink:href="#DejaVuSans-65" x="3397.550781"/>
     <use xlink:href="#DejaVuSans-74" x="3459.074219"/>
     <use xlink:href="#DejaVuSans-20" x="3498.283203"/>
     <use xlink:href="#DejaVuSans-66" x="3530.070312"/>
     <use xlink:href="#DejaVuSans-6f" x="3565.275391"/>
     <use xlink:href="#DejaVuSans-72" x="3626.457031"/>
     <use xlink:href="#DejaVuSans-20" x="3667.570312"/>
     <use xlink:href="#DejaVuSans-4e" x="3699.357422"/>
     <use xlink:href="#DejaVuSans-4f" x="3774.162109"/>
     <use xlink:href="#DejaVuSans-52" x="3852.873047"/>
     <use xlink:href="#DejaVuSans-4d" x="3922.355469"/>
     <use xlink:href="#DejaVuSans-41" x="4008.634766"/>
     <use xlink:href="#DejaVuSans-4c" x="4077.042969"/>
     <use xlink:href="#DejaVuSans-49" x="4132.755859"/>
     <use xlink:href="#DejaVuSans-53" x="4162.248047"/>
     <use xlink:href="#DejaVuSans-45" x="4225.724609"/>
     <use xlink:href="#DejaVuSans-44" x="4288.908203"/>
     <use xlink:href="#DejaVuSans-20" x="4365.910156"/>
     <use xlink:href="#DejaVuSans-6d" x="4397.697266"/>
     <use xlink:href="#DejaVuSans-6f" x="4495.109375"/>
     <use xlink:href="#DejaVuSans-64" x="4556.291016"/>
     <use xlink:href="#DejaVuSans-65" x="4619.767578"/>
     <use xlink:href="#DejaVuSans-6c" x="4681.291016"/>
     <use xlink:href="#DejaVuSans-73" x="4709.074219"/>
     <use xlink:href="#DejaVuSans-20" x="4761.173828"/>
     <use xlink:href="#DejaVuSans-67" x="4792.960938"/>
     <use xlink:href="#DejaVuSans-65" x="4856.4375"/>
     <use xlink:href="#DejaVuSans-6e" x="4917.960938"/>
     <use xlink:href="#DejaVuSans-65" x="4981.339844"/>
     <use xlink:href="#DejaVuSans-72" x="5042.863281"/>
     <use xlink:href="#DejaVuSans-61" x="5083.976562"/>
     <use xlink:href="#DejaVuSans-74" x="5145.255859"/>
     <use xlink:href="#DejaVuSans-65" x="5184.464844"/>
     <use xlink:href="#DejaVuSans-64" x="5245.988281"/>
     <use xlink:href="#DejaVuSans-20" x="5309.464844"/>
     <use xlink:href="#DejaVuSans-75" x="5341.251953"/>
     <use xlink:href="#DejaVuSans-73" x="5404.630859"/>
     <use xlink:href="#DejaVuSans-69" x="5456.730469"/>
     <use xlink:href="#DejaVuSans-6e" x="5484.513672"/>
     <use xlink:href="#DejaVuSans-67" x="5547.892578"/>
     <use xlink:href="#DejaVuSans-20" x="5611.369141"/>
     <use xlink:href="#DejaVuSans-74" x="5643.15625"/>
     <use xlink:href="#DejaVuSans-68" x="5682.365234"/>
     <use xlink:href="#DejaVuSans-65" x="5745.744141"/>
     <use xlink:href="#DejaVuSans-20" x="5807.267578"/>
     <use xlink:href="#DejaVuSans-4b" x="5839.054688"/>
     <use xlink:href="#DejaVuSans-6f" x="5899.630859"/>
     <use xlink:href="#DejaVuSans-6f" x="5960.8125"/>
     <use xlink:href="#DejaVuSans-6e" x="6021.994141"/>
     <use xlink:href="#DejaVuSans-69" x="6085.373047"/>
     <use xlink:href="#DejaVuSans-6e" x="6113.15625"/>
     <use xlink:href="#DejaVuSans-20" x="6176.535156"/>
     <use xlink:href="#DejaVuSans-6d" x="6208.322266"/>
     <use xlink:href="#DejaVuSans-65" x="6305.734375"/>
     <use xlink:href="#DejaVuSans-74" x="6367.257812"/>
     <use xlink:href="#DejaVuSans-68" x="6406.466797"/>
     <use xlink:href="#DejaVuSans-6f" x="6469.845703"/>
     <use xlink:href="#DejaVuSans-64" x="6531.027344"/>
    </g>
    <!--  Sample size = 10000 -->
    <g transform="translate(487.625625 80.4) scale(0.12 -0.12)">
     <defs>
      <path id="DejaVuSans-7a" d="M 353 3500 
L 3084 3500 
L 3084 2975 
L 922 459 
L 3084 459 
L 3084 0 
L 275 0 
L 275 525 
L 2438 3041 
L 353 3041 
L 353 3500 
z
" transform="scale(0.015625)"/>
      <path id="DejaVuSans-3d" d="M 678 2906 
L 4684 2906 
L 4684 2381 
L 678 2381 
L 678 2906 
z
M 678 1631 
L 4684 1631 
L 4684 1100 
L 678 1100 
L 678 1631 
z
" transform="scale(0.015625)"/>
     </defs>
     <use xlink:href="#DejaVuSans-20"/>
     <use xlink:href="#DejaVuSans-53" x="31.787109"/>
     <use xlink:href="#DejaVuSans-61" x="95.263672"/>
     <use xlink:href="#DejaVuSans-6d" x="156.542969"/>
     <use xlink:href="#DejaVuSans-70" x="253.955078"/>
     <use xlink:href="#DejaVuSans-6c" x="317.431641"/>
     <use xlink:href="#DejaVuSans-65" x="345.214844"/>
     <use xlink:href="#DejaVuSans-20" x="406.738281"/>
     <use xlink:href="#DejaVuSans-73" x="438.525391"/>
     <use xlink:href="#DejaVuSans-69" x="490.625"/>
     <use xlink:href="#DejaVuSans-7a" x="518.408203"/>
     <use xlink:href="#DejaVuSans-65" x="570.898438"/>
     <use xlink:href="#DejaVuSans-20" x="632.421875"/>
     <use xlink:href="#DejaVuSans-3d" x="664.208984"/>
     <use xlink:href="#DejaVuSans-20" x="747.998047"/>
     <use xlink:href="#DejaVuSans-31" x="779.785156"/>
     <use xlink:href="#DejaVuSans-30" x="843.408203"/>
     <use xlink:href="#DejaVuSans-30" x="907.03125"/>
     <use xlink:href="#DejaVuSans-30" x="970.654297"/>
     <use xlink:href="#DejaVuSans-30" x="1034.277344"/>
    </g>
   </g>
  </g>
 </g>
 <defs>
  <clipPath id="p29c09bddee">
   <rect x="135" y="86.4" width="837" height="554.4"/>
  </clipPath>
 </defs>
</svg>
