<?xml version="1.0" encoding="utf-8" standalone="no"?>
<!DOCTYPE svg PUBLIC "-//W3C//DTD SVG 1.1//EN"
  "http://www.w3.org/Graphics/SVG/1.1/DTD/svg11.dtd">
<svg xmlns:xlink="http://www.w3.org/1999/xlink" width="1080pt" height="720pt" viewBox="0 0 1080 720" xmlns="http://www.w3.org/2000/svg" version="1.1">
 <metadata>
  <rdf:RDF xmlns:dc="http://purl.org/dc/elements/1.1/" xmlns:cc="http://creativecommons.org/ns#" xmlns:rdf="http://www.w3.org/1999/02/22-rdf-syntax-ns#">
   <cc:Work>
    <dc:type rdf:resource="http://purl.org/dc/dcmitype/StillImage"/>
    <dc:date>2024-06-17T15:29:15.974664</dc:date>
    <dc:format>image/svg+xml</dc:format>
    <dc:creator>
     <cc:Agent>
      <dc:title>Matplotlib v3.7.1, https://matplotlib.org/</dc:title>
     </cc:Agent>
    </dc:creator>
   </cc:Work>
  </rdf:RDF>
 </metadata>
 <defs>
  <style type="text/css">*{stroke-linejoin: round; stroke-linecap: butt}</style>
 </defs>
 <g id="figure_1">
  <g id="patch_1">
   <path d="M 0 720 
L 1080 720 
L 1080 0 
L 0 0 
z
" style="fill: #ffffff"/>
  </g>
  <g id="axes_1">
   <g id="patch_2">
    <path d="M 135 640.8 
L 972 640.8 
L 972 86.4 
L 135 86.4 
z
" style="fill: #ffffff"/>
   </g>
   <g id="patch_3">
    <path d="M 520.599362 640.8 
L 524.732914 640.8 
L 524.732914 639.403175 
L 520.599362 639.403175 
z
" clip-path="url(#pa32028251a)" style="fill: #1f77b4; stroke: #ffffff; stroke-width: 0.3; stroke-linejoin: miter"/>
   </g>
   <g id="patch_4">
    <path d="M 524.732914 640.8 
L 528.866466 640.8 
L 528.866466 640.8 
L 524.732914 640.8 
z
" clip-path="url(#pa32028251a)" style="fill: #1f77b4; stroke: #ffffff; stroke-width: 0.3; stroke-linejoin: miter"/>
   </g>
   <g id="patch_5">
    <path d="M 528.866466 640.8 
L 533.000018 640.8 
L 533.000018 640.8 
L 528.866466 640.8 
z
" clip-path="url(#pa32028251a)" style="fill: #1f77b4; stroke: #ffffff; stroke-width: 0.3; stroke-linejoin: miter"/>
   </g>
   <g id="patch_6">
    <path d="M 533.000018 640.8 
L 537.13357 640.8 
L 537.13357 640.8 
L 533.000018 640.8 
z
" clip-path="url(#pa32028251a)" style="fill: #1f77b4; stroke: #ffffff; stroke-width: 0.3; stroke-linejoin: miter"/>
   </g>
   <g id="patch_7">
    <path d="M 537.13357 640.8 
L 541.267121 640.8 
L 541.267121 640.8 
L 537.13357 640.8 
z
" clip-path="url(#pa32028251a)" style="fill: #1f77b4; stroke: #ffffff; stroke-width: 0.3; stroke-linejoin: miter"/>
   </g>
   <g id="patch_8">
    <path d="M 541.267121 640.8 
L 545.400673 640.8 
L 545.400673 639.403175 
L 541.267121 639.403175 
z
" clip-path="url(#pa32028251a)" style="fill: #1f77b4; stroke: #ffffff; stroke-width: 0.3; stroke-linejoin: miter"/>
   </g>
   <g id="patch_9">
    <path d="M 545.400673 640.8 
L 549.534225 640.8 
L 549.534225 636.609524 
L 545.400673 636.609524 
z
" clip-path="url(#pa32028251a)" style="fill: #1f77b4; stroke: #ffffff; stroke-width: 0.3; stroke-linejoin: miter"/>
   </g>
   <g id="patch_10">
    <path d="M 549.534225 640.8 
L 553.667777 640.8 
L 553.667777 640.8 
L 549.534225 640.8 
z
" clip-path="url(#pa32028251a)" style="fill: #1f77b4; stroke: #ffffff; stroke-width: 0.3; stroke-linejoin: miter"/>
   </g>
   <g id="patch_11">
    <path d="M 553.667777 640.8 
L 557.801329 640.8 
L 557.801329 640.8 
L 553.667777 640.8 
z
" clip-path="url(#pa32028251a)" style="fill: #1f77b4; stroke: #ffffff; stroke-width: 0.3; stroke-linejoin: miter"/>
   </g>
   <g id="patch_12">
    <path d="M 557.801329 640.8 
L 561.934881 640.8 
L 561.934881 639.403175 
L 557.801329 639.403175 
z
" clip-path="url(#pa32028251a)" style="fill: #1f77b4; stroke: #ffffff; stroke-width: 0.3; stroke-linejoin: miter"/>
   </g>
   <g id="patch_13">
    <path d="M 561.934881 640.8 
L 566.068432 640.8 
L 566.068432 632.419048 
L 561.934881 632.419048 
z
" clip-path="url(#pa32028251a)" style="fill: #1f77b4; stroke: #ffffff; stroke-width: 0.3; stroke-linejoin: miter"/>
   </g>
   <g id="patch_14">
    <path d="M 566.068432 640.8 
L 570.201984 640.8 
L 570.201984 632.419048 
L 566.068432 632.419048 
z
" clip-path="url(#pa32028251a)" style="fill: #1f77b4; stroke: #ffffff; stroke-width: 0.3; stroke-linejoin: miter"/>
   </g>
   <g id="patch_15">
    <path d="M 570.201984 640.8 
L 574.335536 640.8 
L 574.335536 632.419048 
L 570.201984 632.419048 
z
" clip-path="url(#pa32028251a)" style="fill: #1f77b4; stroke: #ffffff; stroke-width: 0.3; stroke-linejoin: miter"/>
   </g>
   <g id="patch_16">
    <path d="M 574.335536 640.8 
L 578.469088 640.8 
L 578.469088 633.815873 
L 574.335536 633.815873 
z
" clip-path="url(#pa32028251a)" style="fill: #1f77b4; stroke: #ffffff; stroke-width: 0.3; stroke-linejoin: miter"/>
   </g>
   <g id="patch_17">
    <path d="M 578.469088 640.8 
L 582.60264 640.8 
L 582.60264 633.815873 
L 578.469088 633.815873 
z
" clip-path="url(#pa32028251a)" style="fill: #1f77b4; stroke: #ffffff; stroke-width: 0.3; stroke-linejoin: miter"/>
   </g>
   <g id="patch_18">
    <path d="M 582.60264 640.8 
L 586.736192 640.8 
L 586.736192 622.64127 
L 582.60264 622.64127 
z
" clip-path="url(#pa32028251a)" style="fill: #1f77b4; stroke: #ffffff; stroke-width: 0.3; stroke-linejoin: miter"/>
   </g>
   <g id="patch_19">
    <path d="M 586.736192 640.8 
L 590.869743 640.8 
L 590.869743 621.244444 
L 586.736192 621.244444 
z
" clip-path="url(#pa32028251a)" style="fill: #1f77b4; stroke: #ffffff; stroke-width: 0.3; stroke-linejoin: miter"/>
   </g>
   <g id="patch_20">
    <path d="M 590.869743 640.8 
L 595.003295 640.8 
L 595.003295 618.450794 
L 590.869743 618.450794 
z
" clip-path="url(#pa32028251a)" style="fill: #1f77b4; stroke: #ffffff; stroke-width: 0.3; stroke-linejoin: miter"/>
   </g>
   <g id="patch_21">
    <path d="M 595.003295 640.8 
L 599.136847 640.8 
L 599.136847 605.879365 
L 595.003295 605.879365 
z
" clip-path="url(#pa32028251a)" style="fill: #1f77b4; stroke: #ffffff; stroke-width: 0.3; stroke-linejoin: miter"/>
   </g>
   <g id="patch_22">
    <path d="M 599.136847 640.8 
L 603.270399 640.8 
L 603.270399 612.863492 
L 599.136847 612.863492 
z
" clip-path="url(#pa32028251a)" style="fill: #1f77b4; stroke: #ffffff; stroke-width: 0.3; stroke-linejoin: miter"/>
   </g>
   <g id="patch_23">
    <path d="M 603.270399 640.8 
L 607.403951 640.8 
L 607.403951 611.466667 
L 603.270399 611.466667 
z
" clip-path="url(#pa32028251a)" style="fill: #1f77b4; stroke: #ffffff; stroke-width: 0.3; stroke-linejoin: miter"/>
   </g>
   <g id="patch_24">
    <path d="M 607.403951 640.8 
L 611.537503 640.8 
L 611.537503 590.514286 
L 607.403951 590.514286 
z
" clip-path="url(#pa32028251a)" style="fill: #1f77b4; stroke: #ffffff; stroke-width: 0.3; stroke-linejoin: miter"/>
   </g>
   <g id="patch_25">
    <path d="M 611.537503 640.8 
L 615.671054 640.8 
L 615.671054 590.514286 
L 611.537503 590.514286 
z
" clip-path="url(#pa32028251a)" style="fill: #1f77b4; stroke: #ffffff; stroke-width: 0.3; stroke-linejoin: miter"/>
   </g>
   <g id="patch_26">
    <path d="M 615.671054 640.8 
L 619.804606 640.8 
L 619.804606 572.355556 
L 615.671054 572.355556 
z
" clip-path="url(#pa32028251a)" style="fill: #1f77b4; stroke: #ffffff; stroke-width: 0.3; stroke-linejoin: miter"/>
   </g>
   <g id="patch_27">
    <path d="M 619.804606 640.8 
L 623.938158 640.8 
L 623.938158 570.95873 
L 619.804606 570.95873 
z
" clip-path="url(#pa32028251a)" style="fill: #1f77b4; stroke: #ffffff; stroke-width: 0.3; stroke-linejoin: miter"/>
   </g>
   <g id="patch_28">
    <path d="M 623.938158 640.8 
L 628.07171 640.8 
L 628.07171 559.784127 
L 623.938158 559.784127 
z
" clip-path="url(#pa32028251a)" style="fill: #1f77b4; stroke: #ffffff; stroke-width: 0.3; stroke-linejoin: miter"/>
   </g>
   <g id="patch_29">
    <path d="M 628.07171 640.8 
L 632.205262 640.8 
L 632.205262 551.403175 
L 628.07171 551.403175 
z
" clip-path="url(#pa32028251a)" style="fill: #1f77b4; stroke: #ffffff; stroke-width: 0.3; stroke-linejoin: miter"/>
   </g>
   <g id="patch_30">
    <path d="M 632.205262 640.8 
L 636.338814 640.8 
L 636.338814 545.815873 
L 632.205262 545.815873 
z
" clip-path="url(#pa32028251a)" style="fill: #1f77b4; stroke: #ffffff; stroke-width: 0.3; stroke-linejoin: miter"/>
   </g>
   <g id="patch_31">
    <path d="M 636.338814 640.8 
L 640.472365 640.8 
L 640.472365 524.863492 
L 636.338814 524.863492 
z
" clip-path="url(#pa32028251a)" style="fill: #1f77b4; stroke: #ffffff; stroke-width: 0.3; stroke-linejoin: miter"/>
   </g>
   <g id="patch_32">
    <path d="M 640.472365 640.8 
L 644.605917 640.8 
L 644.605917 519.27619 
L 640.472365 519.27619 
z
" clip-path="url(#pa32028251a)" style="fill: #1f77b4; stroke: #ffffff; stroke-width: 0.3; stroke-linejoin: miter"/>
   </g>
   <g id="patch_33">
    <path d="M 644.605917 640.8 
L 648.739469 640.8 
L 648.739469 506.704762 
L 644.605917 506.704762 
z
" clip-path="url(#pa32028251a)" style="fill: #1f77b4; stroke: #ffffff; stroke-width: 0.3; stroke-linejoin: miter"/>
   </g>
   <g id="patch_34">
    <path d="M 648.739469 640.8 
L 652.873021 640.8 
L 652.873021 494.133333 
L 648.739469 494.133333 
z
" clip-path="url(#pa32028251a)" style="fill: #1f77b4; stroke: #ffffff; stroke-width: 0.3; stroke-linejoin: miter"/>
   </g>
   <g id="patch_35">
    <path d="M 652.873021 640.8 
L 657.006573 640.8 
L 657.006573 468.990476 
L 652.873021 468.990476 
z
" clip-path="url(#pa32028251a)" style="fill: #1f77b4; stroke: #ffffff; stroke-width: 0.3; stroke-linejoin: miter"/>
   </g>
   <g id="patch_36">
    <path d="M 657.006573 640.8 
L 661.140125 640.8 
L 661.140125 420.101587 
L 657.006573 420.101587 
z
" clip-path="url(#pa32028251a)" style="fill: #1f77b4; stroke: #ffffff; stroke-width: 0.3; stroke-linejoin: miter"/>
   </g>
   <g id="patch_37">
    <path d="M 661.140125 640.8 
L 665.273676 640.8 
L 665.273676 427.085714 
L 661.140125 427.085714 
z
" clip-path="url(#pa32028251a)" style="fill: #1f77b4; stroke: #ffffff; stroke-width: 0.3; stroke-linejoin: miter"/>
   </g>
   <g id="patch_38">
    <path d="M 665.273676 640.8 
L 669.407228 640.8 
L 669.407228 393.561905 
L 665.273676 393.561905 
z
" clip-path="url(#pa32028251a)" style="fill: #1f77b4; stroke: #ffffff; stroke-width: 0.3; stroke-linejoin: miter"/>
   </g>
   <g id="patch_39">
    <path d="M 669.407228 640.8 
L 673.54078 640.8 
L 673.54078 367.022222 
L 669.407228 367.022222 
z
" clip-path="url(#pa32028251a)" style="fill: #1f77b4; stroke: #ffffff; stroke-width: 0.3; stroke-linejoin: miter"/>
   </g>
   <g id="patch_40">
    <path d="M 673.54078 640.8 
L 677.674332 640.8 
L 677.674332 364.228571 
L 673.54078 364.228571 
z
" clip-path="url(#pa32028251a)" style="fill: #1f77b4; stroke: #ffffff; stroke-width: 0.3; stroke-linejoin: miter"/>
   </g>
   <g id="patch_41">
    <path d="M 677.674332 640.8 
L 681.807884 640.8 
L 681.807884 365.625397 
L 677.674332 365.625397 
z
" clip-path="url(#pa32028251a)" style="fill: #1f77b4; stroke: #ffffff; stroke-width: 0.3; stroke-linejoin: miter"/>
   </g>
   <g id="patch_42">
    <path d="M 681.807884 640.8 
L 685.941436 640.8 
L 685.941436 332.101587 
L 681.807884 332.101587 
z
" clip-path="url(#pa32028251a)" style="fill: #1f77b4; stroke: #ffffff; stroke-width: 0.3; stroke-linejoin: miter"/>
   </g>
   <g id="patch_43">
    <path d="M 685.941436 640.8 
L 690.074987 640.8 
L 690.074987 298.577778 
L 685.941436 298.577778 
z
" clip-path="url(#pa32028251a)" style="fill: #1f77b4; stroke: #ffffff; stroke-width: 0.3; stroke-linejoin: miter"/>
   </g>
   <g id="patch_44">
    <path d="M 690.074987 640.8 
L 694.208539 640.8 
L 694.208539 284.609524 
L 690.074987 284.609524 
z
" clip-path="url(#pa32028251a)" style="fill: #1f77b4; stroke: #ffffff; stroke-width: 0.3; stroke-linejoin: miter"/>
   </g>
   <g id="patch_45">
    <path d="M 694.208539 640.8 
L 698.342091 640.8 
L 698.342091 265.053968 
L 694.208539 265.053968 
z
" clip-path="url(#pa32028251a)" style="fill: #1f77b4; stroke: #ffffff; stroke-width: 0.3; stroke-linejoin: miter"/>
   </g>
   <g id="patch_46">
    <path d="M 698.342091 640.8 
L 702.475643 640.8 
L 702.475643 245.498413 
L 698.342091 245.498413 
z
" clip-path="url(#pa32028251a)" style="fill: #1f77b4; stroke: #ffffff; stroke-width: 0.3; stroke-linejoin: miter"/>
   </g>
   <g id="patch_47">
    <path d="M 702.475643 640.8 
L 706.609195 640.8 
L 706.609195 291.593651 
L 702.475643 291.593651 
z
" clip-path="url(#pa32028251a)" style="fill: #1f77b4; stroke: #ffffff; stroke-width: 0.3; stroke-linejoin: miter"/>
   </g>
   <g id="patch_48">
    <path d="M 706.609195 640.8 
L 710.742747 640.8 
L 710.742747 202.196825 
L 706.609195 202.196825 
z
" clip-path="url(#pa32028251a)" style="fill: #1f77b4; stroke: #ffffff; stroke-width: 0.3; stroke-linejoin: miter"/>
   </g>
   <g id="patch_49">
    <path d="M 710.742747 640.8 
L 714.876298 640.8 
L 714.876298 185.434921 
L 710.742747 185.434921 
z
" clip-path="url(#pa32028251a)" style="fill: #1f77b4; stroke: #ffffff; stroke-width: 0.3; stroke-linejoin: miter"/>
   </g>
   <g id="patch_50">
    <path d="M 714.876298 640.8 
L 719.00985 640.8 
L 719.00985 216.165079 
L 714.876298 216.165079 
z
" clip-path="url(#pa32028251a)" style="fill: #1f77b4; stroke: #ffffff; stroke-width: 0.3; stroke-linejoin: miter"/>
   </g>
   <g id="patch_51">
    <path d="M 719.00985 640.8 
L 723.143402 640.8 
L 723.143402 112.8 
L 719.00985 112.8 
z
" clip-path="url(#pa32028251a)" style="fill: #1f77b4; stroke: #ffffff; stroke-width: 0.3; stroke-linejoin: miter"/>
   </g>
   <g id="patch_52">
    <path d="M 723.143402 640.8 
L 727.276954 640.8 
L 727.276954 158.895238 
L 723.143402 158.895238 
z
" clip-path="url(#pa32028251a)" style="fill: #1f77b4; stroke: #ffffff; stroke-width: 0.3; stroke-linejoin: miter"/>
   </g>
   <g id="patch_53">
    <path d="M 727.276954 640.8 
L 731.410506 640.8 
L 731.410506 184.038095 
L 727.276954 184.038095 
z
" clip-path="url(#pa32028251a)" style="fill: #1f77b4; stroke: #ffffff; stroke-width: 0.3; stroke-linejoin: miter"/>
   </g>
   <g id="patch_54">
    <path d="M 731.410506 640.8 
L 735.544058 640.8 
L 735.544058 170.069841 
L 731.410506 170.069841 
z
" clip-path="url(#pa32028251a)" style="fill: #1f77b4; stroke: #ffffff; stroke-width: 0.3; stroke-linejoin: miter"/>
   </g>
   <g id="patch_55">
    <path d="M 735.544058 640.8 
L 739.677609 640.8 
L 739.677609 179.847619 
L 735.544058 179.847619 
z
" clip-path="url(#pa32028251a)" style="fill: #1f77b4; stroke: #ffffff; stroke-width: 0.3; stroke-linejoin: miter"/>
   </g>
   <g id="patch_56">
    <path d="M 739.677609 640.8 
L 743.811161 640.8 
L 743.811161 203.593651 
L 739.677609 203.593651 
z
" clip-path="url(#pa32028251a)" style="fill: #1f77b4; stroke: #ffffff; stroke-width: 0.3; stroke-linejoin: miter"/>
   </g>
   <g id="patch_57">
    <path d="M 743.811161 640.8 
L 747.944713 640.8 
L 747.944713 207.784127 
L 743.811161 207.784127 
z
" clip-path="url(#pa32028251a)" style="fill: #1f77b4; stroke: #ffffff; stroke-width: 0.3; stroke-linejoin: miter"/>
   </g>
   <g id="patch_58">
    <path d="M 747.944713 640.8 
L 752.078265 640.8 
L 752.078265 260.863492 
L 747.944713 260.863492 
z
" clip-path="url(#pa32028251a)" style="fill: #1f77b4; stroke: #ffffff; stroke-width: 0.3; stroke-linejoin: miter"/>
   </g>
   <g id="patch_59">
    <path d="M 752.078265 640.8 
L 756.211817 640.8 
L 756.211817 265.053968 
L 752.078265 265.053968 
z
" clip-path="url(#pa32028251a)" style="fill: #1f77b4; stroke: #ffffff; stroke-width: 0.3; stroke-linejoin: miter"/>
   </g>
   <g id="patch_60">
    <path d="M 756.211817 640.8 
L 760.345369 640.8 
L 760.345369 263.657143 
L 756.211817 263.657143 
z
" clip-path="url(#pa32028251a)" style="fill: #1f77b4; stroke: #ffffff; stroke-width: 0.3; stroke-linejoin: miter"/>
   </g>
   <g id="patch_61">
    <path d="M 760.345369 640.8 
L 764.47892 640.8 
L 764.47892 284.609524 
L 760.345369 284.609524 
z
" clip-path="url(#pa32028251a)" style="fill: #1f77b4; stroke: #ffffff; stroke-width: 0.3; stroke-linejoin: miter"/>
   </g>
   <g id="patch_62">
    <path d="M 764.47892 640.8 
L 768.612472 640.8 
L 768.612472 322.32381 
L 764.47892 322.32381 
z
" clip-path="url(#pa32028251a)" style="fill: #1f77b4; stroke: #ffffff; stroke-width: 0.3; stroke-linejoin: miter"/>
   </g>
   <g id="patch_63">
    <path d="M 768.612472 640.8 
L 772.746024 640.8 
L 772.746024 326.514286 
L 768.612472 326.514286 
z
" clip-path="url(#pa32028251a)" style="fill: #1f77b4; stroke: #ffffff; stroke-width: 0.3; stroke-linejoin: miter"/>
   </g>
   <g id="patch_64">
    <path d="M 772.746024 640.8 
L 776.879576 640.8 
L 776.879576 346.069841 
L 772.746024 346.069841 
z
" clip-path="url(#pa32028251a)" style="fill: #1f77b4; stroke: #ffffff; stroke-width: 0.3; stroke-linejoin: miter"/>
   </g>
   <g id="patch_65">
    <path d="M 776.879576 640.8 
L 781.013128 640.8 
L 781.013128 425.688889 
L 776.879576 425.688889 
z
" clip-path="url(#pa32028251a)" style="fill: #1f77b4; stroke: #ffffff; stroke-width: 0.3; stroke-linejoin: miter"/>
   </g>
   <g id="patch_66">
    <path d="M 781.013128 640.8 
L 785.146679 640.8 
L 785.146679 406.133333 
L 781.013128 406.133333 
z
" clip-path="url(#pa32028251a)" style="fill: #1f77b4; stroke: #ffffff; stroke-width: 0.3; stroke-linejoin: miter"/>
   </g>
   <g id="patch_67">
    <path d="M 785.146679 640.8 
L 789.280231 640.8 
L 789.280231 448.038095 
L 785.146679 448.038095 
z
" clip-path="url(#pa32028251a)" style="fill: #1f77b4; stroke: #ffffff; stroke-width: 0.3; stroke-linejoin: miter"/>
   </g>
   <g id="patch_68">
    <path d="M 789.280231 640.8 
L 793.413783 640.8 
L 793.413783 460.609524 
L 789.280231 460.609524 
z
" clip-path="url(#pa32028251a)" style="fill: #1f77b4; stroke: #ffffff; stroke-width: 0.3; stroke-linejoin: miter"/>
   </g>
   <g id="patch_69">
    <path d="M 793.413783 640.8 
L 797.547335 640.8 
L 797.547335 459.212698 
L 793.413783 459.212698 
z
" clip-path="url(#pa32028251a)" style="fill: #1f77b4; stroke: #ffffff; stroke-width: 0.3; stroke-linejoin: miter"/>
   </g>
   <g id="patch_70">
    <path d="M 797.547335 640.8 
L 801.680887 640.8 
L 801.680887 485.752381 
L 797.547335 485.752381 
z
" clip-path="url(#pa32028251a)" style="fill: #1f77b4; stroke: #ffffff; stroke-width: 0.3; stroke-linejoin: miter"/>
   </g>
   <g id="patch_71">
    <path d="M 801.680887 640.8 
L 805.814439 640.8 
L 805.814439 509.498413 
L 801.680887 509.498413 
z
" clip-path="url(#pa32028251a)" style="fill: #1f77b4; stroke: #ffffff; stroke-width: 0.3; stroke-linejoin: miter"/>
   </g>
   <g id="patch_72">
    <path d="M 805.814439 640.8 
L 809.94799 640.8 
L 809.94799 527.657143 
L 805.814439 527.657143 
z
" clip-path="url(#pa32028251a)" style="fill: #1f77b4; stroke: #ffffff; stroke-width: 0.3; stroke-linejoin: miter"/>
   </g>
   <g id="patch_73">
    <path d="M 809.94799 640.8 
L 814.081542 640.8 
L 814.081542 550.006349 
L 809.94799 550.006349 
z
" clip-path="url(#pa32028251a)" style="fill: #1f77b4; stroke: #ffffff; stroke-width: 0.3; stroke-linejoin: miter"/>
   </g>
   <g id="patch_74">
    <path d="M 814.081542 640.8 
L 818.215094 640.8 
L 818.215094 562.577778 
L 814.081542 562.577778 
z
" clip-path="url(#pa32028251a)" style="fill: #1f77b4; stroke: #ffffff; stroke-width: 0.3; stroke-linejoin: miter"/>
   </g>
   <g id="patch_75">
    <path d="M 818.215094 640.8 
L 822.348646 640.8 
L 822.348646 584.926984 
L 818.215094 584.926984 
z
" clip-path="url(#pa32028251a)" style="fill: #1f77b4; stroke: #ffffff; stroke-width: 0.3; stroke-linejoin: miter"/>
   </g>
   <g id="patch_76">
    <path d="M 822.348646 640.8 
L 826.482198 640.8 
L 826.482198 587.720635 
L 822.348646 587.720635 
z
" clip-path="url(#pa32028251a)" style="fill: #1f77b4; stroke: #ffffff; stroke-width: 0.3; stroke-linejoin: miter"/>
   </g>
   <g id="patch_77">
    <path d="M 826.482198 640.8 
L 830.61575 640.8 
L 830.61575 586.32381 
L 826.482198 586.32381 
z
" clip-path="url(#pa32028251a)" style="fill: #1f77b4; stroke: #ffffff; stroke-width: 0.3; stroke-linejoin: miter"/>
   </g>
   <g id="patch_78">
    <path d="M 830.61575 640.8 
L 834.749301 640.8 
L 834.749301 607.27619 
L 830.61575 607.27619 
z
" clip-path="url(#pa32028251a)" style="fill: #1f77b4; stroke: #ffffff; stroke-width: 0.3; stroke-linejoin: miter"/>
   </g>
   <g id="patch_79">
    <path d="M 834.749301 640.8 
L 838.882853 640.8 
L 838.882853 618.450794 
L 834.749301 618.450794 
z
" clip-path="url(#pa32028251a)" style="fill: #1f77b4; stroke: #ffffff; stroke-width: 0.3; stroke-linejoin: miter"/>
   </g>
   <g id="patch_80">
    <path d="M 838.882853 640.8 
L 843.016405 640.8 
L 843.016405 607.27619 
L 838.882853 607.27619 
z
" clip-path="url(#pa32028251a)" style="fill: #1f77b4; stroke: #ffffff; stroke-width: 0.3; stroke-linejoin: miter"/>
   </g>
   <g id="patch_81">
    <path d="M 843.016405 640.8 
L 847.149957 640.8 
L 847.149957 628.228571 
L 843.016405 628.228571 
z
" clip-path="url(#pa32028251a)" style="fill: #1f77b4; stroke: #ffffff; stroke-width: 0.3; stroke-linejoin: miter"/>
   </g>
   <g id="patch_82">
    <path d="M 847.149957 640.8 
L 851.283509 640.8 
L 851.283509 615.657143 
L 847.149957 615.657143 
z
" clip-path="url(#pa32028251a)" style="fill: #1f77b4; stroke: #ffffff; stroke-width: 0.3; stroke-linejoin: miter"/>
   </g>
   <g id="patch_83">
    <path d="M 851.283509 640.8 
L 855.417061 640.8 
L 855.417061 619.847619 
L 851.283509 619.847619 
z
" clip-path="url(#pa32028251a)" style="fill: #1f77b4; stroke: #ffffff; stroke-width: 0.3; stroke-linejoin: miter"/>
   </g>
   <g id="patch_84">
    <path d="M 855.417061 640.8 
L 859.550612 640.8 
L 859.550612 629.625397 
L 855.417061 629.625397 
z
" clip-path="url(#pa32028251a)" style="fill: #1f77b4; stroke: #ffffff; stroke-width: 0.3; stroke-linejoin: miter"/>
   </g>
   <g id="patch_85">
    <path d="M 859.550612 640.8 
L 863.684164 640.8 
L 863.684164 628.228571 
L 859.550612 628.228571 
z
" clip-path="url(#pa32028251a)" style="fill: #1f77b4; stroke: #ffffff; stroke-width: 0.3; stroke-linejoin: miter"/>
   </g>
   <g id="patch_86">
    <path d="M 863.684164 640.8 
L 867.817716 640.8 
L 867.817716 632.419048 
L 863.684164 632.419048 
z
" clip-path="url(#pa32028251a)" style="fill: #1f77b4; stroke: #ffffff; stroke-width: 0.3; stroke-linejoin: miter"/>
   </g>
   <g id="patch_87">
    <path d="M 867.817716 640.8 
L 871.951268 640.8 
L 871.951268 636.609524 
L 867.817716 636.609524 
z
" clip-path="url(#pa32028251a)" style="fill: #1f77b4; stroke: #ffffff; stroke-width: 0.3; stroke-linejoin: miter"/>
   </g>
   <g id="patch_88">
    <path d="M 871.951268 640.8 
L 876.08482 640.8 
L 876.08482 635.212698 
L 871.951268 635.212698 
z
" clip-path="url(#pa32028251a)" style="fill: #1f77b4; stroke: #ffffff; stroke-width: 0.3; stroke-linejoin: miter"/>
   </g>
   <g id="patch_89">
    <path d="M 876.08482 640.8 
L 880.218372 640.8 
L 880.218372 640.8 
L 876.08482 640.8 
z
" clip-path="url(#pa32028251a)" style="fill: #1f77b4; stroke: #ffffff; stroke-width: 0.3; stroke-linejoin: miter"/>
   </g>
   <g id="patch_90">
    <path d="M 880.218372 640.8 
L 884.351923 640.8 
L 884.351923 635.212698 
L 880.218372 635.212698 
z
" clip-path="url(#pa32028251a)" style="fill: #1f77b4; stroke: #ffffff; stroke-width: 0.3; stroke-linejoin: miter"/>
   </g>
   <g id="patch_91">
    <path d="M 884.351923 640.8 
L 888.485475 640.8 
L 888.485475 640.8 
L 884.351923 640.8 
z
" clip-path="url(#pa32028251a)" style="fill: #1f77b4; stroke: #ffffff; stroke-width: 0.3; stroke-linejoin: miter"/>
   </g>
   <g id="patch_92">
    <path d="M 888.485475 640.8 
L 892.619027 640.8 
L 892.619027 640.8 
L 888.485475 640.8 
z
" clip-path="url(#pa32028251a)" style="fill: #1f77b4; stroke: #ffffff; stroke-width: 0.3; stroke-linejoin: miter"/>
   </g>
   <g id="patch_93">
    <path d="M 892.619027 640.8 
L 896.752579 640.8 
L 896.752579 640.8 
L 892.619027 640.8 
z
" clip-path="url(#pa32028251a)" style="fill: #1f77b4; stroke: #ffffff; stroke-width: 0.3; stroke-linejoin: miter"/>
   </g>
   <g id="patch_94">
    <path d="M 896.752579 640.8 
L 900.886131 640.8 
L 900.886131 640.8 
L 896.752579 640.8 
z
" clip-path="url(#pa32028251a)" style="fill: #1f77b4; stroke: #ffffff; stroke-width: 0.3; stroke-linejoin: miter"/>
   </g>
   <g id="patch_95">
    <path d="M 900.886131 640.8 
L 905.019683 640.8 
L 905.019683 640.8 
L 900.886131 640.8 
z
" clip-path="url(#pa32028251a)" style="fill: #1f77b4; stroke: #ffffff; stroke-width: 0.3; stroke-linejoin: miter"/>
   </g>
   <g id="patch_96">
    <path d="M 905.019683 640.8 
L 909.153234 640.8 
L 909.153234 639.403175 
L 905.019683 639.403175 
z
" clip-path="url(#pa32028251a)" style="fill: #1f77b4; stroke: #ffffff; stroke-width: 0.3; stroke-linejoin: miter"/>
   </g>
   <g id="patch_97">
    <path d="M 909.153234 640.8 
L 913.286786 640.8 
L 913.286786 639.403175 
L 909.153234 639.403175 
z
" clip-path="url(#pa32028251a)" style="fill: #1f77b4; stroke: #ffffff; stroke-width: 0.3; stroke-linejoin: miter"/>
   </g>
   <g id="patch_98">
    <path d="M 913.286786 640.8 
L 917.420338 640.8 
L 917.420338 640.8 
L 913.286786 640.8 
z
" clip-path="url(#pa32028251a)" style="fill: #1f77b4; stroke: #ffffff; stroke-width: 0.3; stroke-linejoin: miter"/>
   </g>
   <g id="patch_99">
    <path d="M 917.420338 640.8 
L 921.55389 640.8 
L 921.55389 640.8 
L 917.420338 640.8 
z
" clip-path="url(#pa32028251a)" style="fill: #1f77b4; stroke: #ffffff; stroke-width: 0.3; stroke-linejoin: miter"/>
   </g>
   <g id="patch_100">
    <path d="M 921.55389 640.8 
L 925.687442 640.8 
L 925.687442 640.8 
L 921.55389 640.8 
z
" clip-path="url(#pa32028251a)" style="fill: #1f77b4; stroke: #ffffff; stroke-width: 0.3; stroke-linejoin: miter"/>
   </g>
   <g id="patch_101">
    <path d="M 925.687442 640.8 
L 929.820994 640.8 
L 929.820994 640.8 
L 925.687442 640.8 
z
" clip-path="url(#pa32028251a)" style="fill: #1f77b4; stroke: #ffffff; stroke-width: 0.3; stroke-linejoin: miter"/>
   </g>
   <g id="patch_102">
    <path d="M 929.820994 640.8 
L 933.954545 640.8 
L 933.954545 639.403175 
L 929.820994 639.403175 
z
" clip-path="url(#pa32028251a)" style="fill: #1f77b4; stroke: #ffffff; stroke-width: 0.3; stroke-linejoin: miter"/>
   </g>
   <g id="matplotlib.axis_1">
    <g id="xtick_1">
     <g id="line2d_1">
      <defs>
       <path id="medb89a9178" d="M 0 0 
L 0 3.5 
" style="stroke: #000000; stroke-width: 0.8"/>
      </defs>
      <g>
       <use xlink:href="#medb89a9178" x="216.57221" y="640.8" style="stroke: #000000; stroke-width: 0.8"/>
      </g>
     </g>
     <g id="text_1">
      <!-- 100 -->
      <g transform="translate(207.02846 655.398438) scale(0.1 -0.1)">
       <defs>
        <path id="DejaVuSans-31" d="M 794 531 
L 1825 531 
L 1825 4091 
L 703 3866 
L 703 4441 
L 1819 4666 
L 2450 4666 
L 2450 531 
L 3481 531 
L 3481 0 
L 794 0 
L 794 531 
z
" transform="scale(0.015625)"/>
        <path id="DejaVuSans-30" d="M 2034 4250 
Q 1547 4250 1301 3770 
Q 1056 3291 1056 2328 
Q 1056 1369 1301 889 
Q 1547 409 2034 409 
Q 2525 409 2770 889 
Q 3016 1369 3016 2328 
Q 3016 3291 2770 3770 
Q 2525 4250 2034 4250 
z
M 2034 4750 
Q 2819 4750 3233 4129 
Q 3647 3509 3647 2328 
Q 3647 1150 3233 529 
Q 2819 -91 2034 -91 
Q 1250 -91 836 529 
Q 422 1150 422 2328 
Q 422 3509 836 4129 
Q 1250 4750 2034 4750 
z
" transform="scale(0.015625)"/>
       </defs>
       <use xlink:href="#DejaVuSans-31"/>
       <use xlink:href="#DejaVuSans-30" x="63.623047"/>
       <use xlink:href="#DejaVuSans-30" x="127.246094"/>
      </g>
     </g>
    </g>
    <g id="xtick_2">
     <g id="line2d_2">
      <g>
       <use xlink:href="#medb89a9178" x="328.179277" y="640.8" style="stroke: #000000; stroke-width: 0.8"/>
      </g>
     </g>
     <g id="text_2">
      <!-- 200 -->
      <g transform="translate(318.635527 655.398438) scale(0.1 -0.1)">
       <defs>
        <path id="DejaVuSans-32" d="M 1228 531 
L 3431 531 
L 3431 0 
L 469 0 
L 469 531 
Q 828 903 1448 1529 
Q 2069 2156 2228 2338 
Q 2531 2678 2651 2914 
Q 2772 3150 2772 3378 
Q 2772 3750 2511 3984 
Q 2250 4219 1831 4219 
Q 1534 4219 1204 4116 
Q 875 4013 500 3803 
L 500 4441 
Q 881 4594 1212 4672 
Q 1544 4750 1819 4750 
Q 2544 4750 2975 4387 
Q 3406 4025 3406 3419 
Q 3406 3131 3298 2873 
Q 3191 2616 2906 2266 
Q 2828 2175 2409 1742 
Q 1991 1309 1228 531 
z
" transform="scale(0.015625)"/>
       </defs>
       <use xlink:href="#DejaVuSans-32"/>
       <use xlink:href="#DejaVuSans-30" x="63.623047"/>
       <use xlink:href="#DejaVuSans-30" x="127.246094"/>
      </g>
     </g>
    </g>
    <g id="xtick_3">
     <g id="line2d_3">
      <g>
       <use xlink:href="#medb89a9178" x="439.786343" y="640.8" style="stroke: #000000; stroke-width: 0.8"/>
      </g>
     </g>
     <g id="text_3">
      <!-- 300 -->
      <g transform="translate(430.242593 655.398438) scale(0.1 -0.1)">
       <defs>
        <path id="DejaVuSans-33" d="M 2597 2516 
Q 3050 2419 3304 2112 
Q 3559 1806 3559 1356 
Q 3559 666 3084 287 
Q 2609 -91 1734 -91 
Q 1441 -91 1130 -33 
Q 819 25 488 141 
L 488 750 
Q 750 597 1062 519 
Q 1375 441 1716 441 
Q 2309 441 2620 675 
Q 2931 909 2931 1356 
Q 2931 1769 2642 2001 
Q 2353 2234 1838 2234 
L 1294 2234 
L 1294 2753 
L 1863 2753 
Q 2328 2753 2575 2939 
Q 2822 3125 2822 3475 
Q 2822 3834 2567 4026 
Q 2313 4219 1838 4219 
Q 1578 4219 1281 4162 
Q 984 4106 628 3988 
L 628 4550 
Q 988 4650 1302 4700 
Q 1616 4750 1894 4750 
Q 2613 4750 3031 4423 
Q 3450 4097 3450 3541 
Q 3450 3153 3228 2886 
Q 3006 2619 2597 2516 
z
" transform="scale(0.015625)"/>
       </defs>
       <use xlink:href="#DejaVuSans-33"/>
       <use xlink:href="#DejaVuSans-30" x="63.623047"/>
       <use xlink:href="#DejaVuSans-30" x="127.246094"/>
      </g>
     </g>
    </g>
    <g id="xtick_4">
     <g id="line2d_4">
      <g>
       <use xlink:href="#medb89a9178" x="551.393409" y="640.8" style="stroke: #000000; stroke-width: 0.8"/>
      </g>
     </g>
     <g id="text_4">
      <!-- 400 -->
      <g transform="translate(541.849659 655.398438) scale(0.1 -0.1)">
       <defs>
        <path id="DejaVuSans-34" d="M 2419 4116 
L 825 1625 
L 2419 1625 
L 2419 4116 
z
M 2253 4666 
L 3047 4666 
L 3047 1625 
L 3713 1625 
L 3713 1100 
L 3047 1100 
L 3047 0 
L 2419 0 
L 2419 1100 
L 313 1100 
L 313 1709 
L 2253 4666 
z
" transform="scale(0.015625)"/>
       </defs>
       <use xlink:href="#DejaVuSans-34"/>
       <use xlink:href="#DejaVuSans-30" x="63.623047"/>
       <use xlink:href="#DejaVuSans-30" x="127.246094"/>
      </g>
     </g>
    </g>
    <g id="xtick_5">
     <g id="line2d_5">
      <g>
       <use xlink:href="#medb89a9178" x="663.000475" y="640.8" style="stroke: #000000; stroke-width: 0.8"/>
      </g>
     </g>
     <g id="text_5">
      <!-- 500 -->
      <g transform="translate(653.456725 655.398438) scale(0.1 -0.1)">
       <defs>
        <path id="DejaVuSans-35" d="M 691 4666 
L 3169 4666 
L 3169 4134 
L 1269 4134 
L 1269 2991 
Q 1406 3038 1543 3061 
Q 1681 3084 1819 3084 
Q 2600 3084 3056 2656 
Q 3513 2228 3513 1497 
Q 3513 744 3044 326 
Q 2575 -91 1722 -91 
Q 1428 -91 1123 -41 
Q 819 9 494 109 
L 494 744 
Q 775 591 1075 516 
Q 1375 441 1709 441 
Q 2250 441 2565 725 
Q 2881 1009 2881 1497 
Q 2881 1984 2565 2268 
Q 2250 2553 1709 2553 
Q 1456 2553 1204 2497 
Q 953 2441 691 2322 
L 691 4666 
z
" transform="scale(0.015625)"/>
       </defs>
       <use xlink:href="#DejaVuSans-35"/>
       <use xlink:href="#DejaVuSans-30" x="63.623047"/>
       <use xlink:href="#DejaVuSans-30" x="127.246094"/>
      </g>
     </g>
    </g>
    <g id="xtick_6">
     <g id="line2d_6">
      <g>
       <use xlink:href="#medb89a9178" x="774.607542" y="640.8" style="stroke: #000000; stroke-width: 0.8"/>
      </g>
     </g>
     <g id="text_6">
      <!-- 600 -->
      <g transform="translate(765.063792 655.398438) scale(0.1 -0.1)">
       <defs>
        <path id="DejaVuSans-36" d="M 2113 2584 
Q 1688 2584 1439 2293 
Q 1191 2003 1191 1497 
Q 1191 994 1439 701 
Q 1688 409 2113 409 
Q 2538 409 2786 701 
Q 3034 994 3034 1497 
Q 3034 2003 2786 2293 
Q 2538 2584 2113 2584 
z
M 3366 4563 
L 3366 3988 
Q 3128 4100 2886 4159 
Q 2644 4219 2406 4219 
Q 1781 4219 1451 3797 
Q 1122 3375 1075 2522 
Q 1259 2794 1537 2939 
Q 1816 3084 2150 3084 
Q 2853 3084 3261 2657 
Q 3669 2231 3669 1497 
Q 3669 778 3244 343 
Q 2819 -91 2113 -91 
Q 1303 -91 875 529 
Q 447 1150 447 2328 
Q 447 3434 972 4092 
Q 1497 4750 2381 4750 
Q 2619 4750 2861 4703 
Q 3103 4656 3366 4563 
z
" transform="scale(0.015625)"/>
       </defs>
       <use xlink:href="#DejaVuSans-36"/>
       <use xlink:href="#DejaVuSans-30" x="63.623047"/>
       <use xlink:href="#DejaVuSans-30" x="127.246094"/>
      </g>
     </g>
    </g>
    <g id="xtick_7">
     <g id="line2d_7">
      <g>
       <use xlink:href="#medb89a9178" x="886.214608" y="640.8" style="stroke: #000000; stroke-width: 0.8"/>
      </g>
     </g>
     <g id="text_7">
      <!-- 700 -->
      <g transform="translate(876.670858 655.398438) scale(0.1 -0.1)">
       <defs>
        <path id="DejaVuSans-37" d="M 525 4666 
L 3525 4666 
L 3525 4397 
L 1831 0 
L 1172 0 
L 2766 4134 
L 525 4134 
L 525 4666 
z
" transform="scale(0.015625)"/>
       </defs>
       <use xlink:href="#DejaVuSans-37"/>
       <use xlink:href="#DejaVuSans-30" x="63.623047"/>
       <use xlink:href="#DejaVuSans-30" x="127.246094"/>
      </g>
     </g>
    </g>
    <g id="text_8">
     <!-- Code cost -->
     <g transform="translate(528.735937 669.076563) scale(0.1 -0.1)">
      <defs>
       <path id="DejaVuSans-43" d="M 4122 4306 
L 4122 3641 
Q 3803 3938 3442 4084 
Q 3081 4231 2675 4231 
Q 1875 4231 1450 3742 
Q 1025 3253 1025 2328 
Q 1025 1406 1450 917 
Q 1875 428 2675 428 
Q 3081 428 3442 575 
Q 3803 722 4122 1019 
L 4122 359 
Q 3791 134 3420 21 
Q 3050 -91 2638 -91 
Q 1578 -91 968 557 
Q 359 1206 359 2328 
Q 359 3453 968 4101 
Q 1578 4750 2638 4750 
Q 3056 4750 3426 4639 
Q 3797 4528 4122 4306 
z
" transform="scale(0.015625)"/>
       <path id="DejaVuSans-6f" d="M 1959 3097 
Q 1497 3097 1228 2736 
Q 959 2375 959 1747 
Q 959 1119 1226 758 
Q 1494 397 1959 397 
Q 2419 397 2687 759 
Q 2956 1122 2956 1747 
Q 2956 2369 2687 2733 
Q 2419 3097 1959 3097 
z
M 1959 3584 
Q 2709 3584 3137 3096 
Q 3566 2609 3566 1747 
Q 3566 888 3137 398 
Q 2709 -91 1959 -91 
Q 1206 -91 779 398 
Q 353 888 353 1747 
Q 353 2609 779 3096 
Q 1206 3584 1959 3584 
z
" transform="scale(0.015625)"/>
       <path id="DejaVuSans-64" d="M 2906 2969 
L 2906 4863 
L 3481 4863 
L 3481 0 
L 2906 0 
L 2906 525 
Q 2725 213 2448 61 
Q 2172 -91 1784 -91 
Q 1150 -91 751 415 
Q 353 922 353 1747 
Q 353 2572 751 3078 
Q 1150 3584 1784 3584 
Q 2172 3584 2448 3432 
Q 2725 3281 2906 2969 
z
M 947 1747 
Q 947 1113 1208 752 
Q 1469 391 1925 391 
Q 2381 391 2643 752 
Q 2906 1113 2906 1747 
Q 2906 2381 2643 2742 
Q 2381 3103 1925 3103 
Q 1469 3103 1208 2742 
Q 947 2381 947 1747 
z
" transform="scale(0.015625)"/>
       <path id="DejaVuSans-65" d="M 3597 1894 
L 3597 1613 
L 953 1613 
Q 991 1019 1311 708 
Q 1631 397 2203 397 
Q 2534 397 2845 478 
Q 3156 559 3463 722 
L 3463 178 
Q 3153 47 2828 -22 
Q 2503 -91 2169 -91 
Q 1331 -91 842 396 
Q 353 884 353 1716 
Q 353 2575 817 3079 
Q 1281 3584 2069 3584 
Q 2775 3584 3186 3129 
Q 3597 2675 3597 1894 
z
M 3022 2063 
Q 3016 2534 2758 2815 
Q 2500 3097 2075 3097 
Q 1594 3097 1305 2825 
Q 1016 2553 972 2059 
L 3022 2063 
z
" transform="scale(0.015625)"/>
       <path id="DejaVuSans-20" transform="scale(0.015625)"/>
       <path id="DejaVuSans-63" d="M 3122 3366 
L 3122 2828 
Q 2878 2963 2633 3030 
Q 2388 3097 2138 3097 
Q 1578 3097 1268 2742 
Q 959 2388 959 1747 
Q 959 1106 1268 751 
Q 1578 397 2138 397 
Q 2388 397 2633 464 
Q 2878 531 3122 666 
L 3122 134 
Q 2881 22 2623 -34 
Q 2366 -91 2075 -91 
Q 1284 -91 818 406 
Q 353 903 353 1747 
Q 353 2603 823 3093 
Q 1294 3584 2113 3584 
Q 2378 3584 2631 3529 
Q 2884 3475 3122 3366 
z
" transform="scale(0.015625)"/>
       <path id="DejaVuSans-73" d="M 2834 3397 
L 2834 2853 
Q 2591 2978 2328 3040 
Q 2066 3103 1784 3103 
Q 1356 3103 1142 2972 
Q 928 2841 928 2578 
Q 928 2378 1081 2264 
Q 1234 2150 1697 2047 
L 1894 2003 
Q 2506 1872 2764 1633 
Q 3022 1394 3022 966 
Q 3022 478 2636 193 
Q 2250 -91 1575 -91 
Q 1294 -91 989 -36 
Q 684 19 347 128 
L 347 722 
Q 666 556 975 473 
Q 1284 391 1588 391 
Q 1994 391 2212 530 
Q 2431 669 2431 922 
Q 2431 1156 2273 1281 
Q 2116 1406 1581 1522 
L 1381 1569 
Q 847 1681 609 1914 
Q 372 2147 372 2553 
Q 372 3047 722 3315 
Q 1072 3584 1716 3584 
Q 2034 3584 2315 3537 
Q 2597 3491 2834 3397 
z
" transform="scale(0.015625)"/>
       <path id="DejaVuSans-74" d="M 1172 4494 
L 1172 3500 
L 2356 3500 
L 2356 3053 
L 1172 3053 
L 1172 1153 
Q 1172 725 1289 603 
Q 1406 481 1766 481 
L 2356 481 
L 2356 0 
L 1766 0 
Q 1100 0 847 248 
Q 594 497 594 1153 
L 594 3053 
L 172 3053 
L 172 3500 
L 594 3500 
L 594 4494 
L 1172 4494 
z
" transform="scale(0.015625)"/>
      </defs>
      <use xlink:href="#DejaVuSans-43"/>
      <use xlink:href="#DejaVuSans-6f" x="69.824219"/>
      <use xlink:href="#DejaVuSans-64" x="131.005859"/>
      <use xlink:href="#DejaVuSans-65" x="194.482422"/>
      <use xlink:href="#DejaVuSans-20" x="256.005859"/>
      <use xlink:href="#DejaVuSans-63" x="287.792969"/>
      <use xlink:href="#DejaVuSans-6f" x="342.773438"/>
      <use xlink:href="#DejaVuSans-73" x="403.955078"/>
      <use xlink:href="#DejaVuSans-74" x="456.054688"/>
     </g>
    </g>
   </g>
   <g id="matplotlib.axis_2">
    <g id="ytick_1">
     <g id="line2d_8">
      <defs>
       <path id="m732b5fd4f8" d="M 0 0 
L -3.5 0 
" style="stroke: #000000; stroke-width: 0.8"/>
      </defs>
      <g>
       <use xlink:href="#m732b5fd4f8" x="135" y="640.8" style="stroke: #000000; stroke-width: 0.8"/>
      </g>
     </g>
     <g id="text_9">
      <!-- 0 -->
      <g transform="translate(121.6375 644.599219) scale(0.1 -0.1)">
       <use xlink:href="#DejaVuSans-30"/>
      </g>
     </g>
    </g>
    <g id="ytick_2">
     <g id="line2d_9">
      <g>
       <use xlink:href="#m732b5fd4f8" x="135" y="570.95873" style="stroke: #000000; stroke-width: 0.8"/>
      </g>
     </g>
     <g id="text_10">
      <!-- 50 -->
      <g transform="translate(115.275 574.757949) scale(0.1 -0.1)">
       <use xlink:href="#DejaVuSans-35"/>
       <use xlink:href="#DejaVuSans-30" x="63.623047"/>
      </g>
     </g>
    </g>
    <g id="ytick_3">
     <g id="line2d_10">
      <g>
       <use xlink:href="#m732b5fd4f8" x="135" y="501.11746" style="stroke: #000000; stroke-width: 0.8"/>
      </g>
     </g>
     <g id="text_11">
      <!-- 100 -->
      <g transform="translate(108.9125 504.916679) scale(0.1 -0.1)">
       <use xlink:href="#DejaVuSans-31"/>
       <use xlink:href="#DejaVuSans-30" x="63.623047"/>
       <use xlink:href="#DejaVuSans-30" x="127.246094"/>
      </g>
     </g>
    </g>
    <g id="ytick_4">
     <g id="line2d_11">
      <g>
       <use xlink:href="#m732b5fd4f8" x="135" y="431.27619" style="stroke: #000000; stroke-width: 0.8"/>
      </g>
     </g>
     <g id="text_12">
      <!-- 150 -->
      <g transform="translate(108.9125 435.075409) scale(0.1 -0.1)">
       <use xlink:href="#DejaVuSans-31"/>
       <use xlink:href="#DejaVuSans-35" x="63.623047"/>
       <use xlink:href="#DejaVuSans-30" x="127.246094"/>
      </g>
     </g>
    </g>
    <g id="ytick_5">
     <g id="line2d_12">
      <g>
       <use xlink:href="#m732b5fd4f8" x="135" y="361.434921" style="stroke: #000000; stroke-width: 0.8"/>
      </g>
     </g>
     <g id="text_13">
      <!-- 200 -->
      <g transform="translate(108.9125 365.234139) scale(0.1 -0.1)">
       <use xlink:href="#DejaVuSans-32"/>
       <use xlink:href="#DejaVuSans-30" x="63.623047"/>
       <use xlink:href="#DejaVuSans-30" x="127.246094"/>
      </g>
     </g>
    </g>
    <g id="ytick_6">
     <g id="line2d_13">
      <g>
       <use xlink:href="#m732b5fd4f8" x="135" y="291.593651" style="stroke: #000000; stroke-width: 0.8"/>
      </g>
     </g>
     <g id="text_14">
      <!-- 250 -->
      <g transform="translate(108.9125 295.39287) scale(0.1 -0.1)">
       <use xlink:href="#DejaVuSans-32"/>
       <use xlink:href="#DejaVuSans-35" x="63.623047"/>
       <use xlink:href="#DejaVuSans-30" x="127.246094"/>
      </g>
     </g>
    </g>
    <g id="ytick_7">
     <g id="line2d_14">
      <g>
       <use xlink:href="#m732b5fd4f8" x="135" y="221.752381" style="stroke: #000000; stroke-width: 0.8"/>
      </g>
     </g>
     <g id="text_15">
      <!-- 300 -->
      <g transform="translate(108.9125 225.5516) scale(0.1 -0.1)">
       <use xlink:href="#DejaVuSans-33"/>
       <use xlink:href="#DejaVuSans-30" x="63.623047"/>
       <use xlink:href="#DejaVuSans-30" x="127.246094"/>
      </g>
     </g>
    </g>
    <g id="ytick_8">
     <g id="line2d_15">
      <g>
       <use xlink:href="#m732b5fd4f8" x="135" y="151.911111" style="stroke: #000000; stroke-width: 0.8"/>
      </g>
     </g>
     <g id="text_16">
      <!-- 350 -->
      <g transform="translate(108.9125 155.71033) scale(0.1 -0.1)">
       <use xlink:href="#DejaVuSans-33"/>
       <use xlink:href="#DejaVuSans-35" x="63.623047"/>
       <use xlink:href="#DejaVuSans-30" x="127.246094"/>
      </g>
     </g>
    </g>
    <g id="text_17">
     <!-- Number of occurrences -->
     <g transform="translate(102.832812 421.996875) rotate(-90) scale(0.1 -0.1)">
      <defs>
       <path id="DejaVuSans-4e" d="M 628 4666 
L 1478 4666 
L 3547 763 
L 3547 4666 
L 4159 4666 
L 4159 0 
L 3309 0 
L 1241 3903 
L 1241 0 
L 628 0 
L 628 4666 
z
" transform="scale(0.015625)"/>
       <path id="DejaVuSans-75" d="M 544 1381 
L 544 3500 
L 1119 3500 
L 1119 1403 
Q 1119 906 1312 657 
Q 1506 409 1894 409 
Q 2359 409 2629 706 
Q 2900 1003 2900 1516 
L 2900 3500 
L 3475 3500 
L 3475 0 
L 2900 0 
L 2900 538 
Q 2691 219 2414 64 
Q 2138 -91 1772 -91 
Q 1169 -91 856 284 
Q 544 659 544 1381 
z
M 1991 3584 
L 1991 3584 
z
" transform="scale(0.015625)"/>
       <path id="DejaVuSans-6d" d="M 3328 2828 
Q 3544 3216 3844 3400 
Q 4144 3584 4550 3584 
Q 5097 3584 5394 3201 
Q 5691 2819 5691 2113 
L 5691 0 
L 5113 0 
L 5113 2094 
Q 5113 2597 4934 2840 
Q 4756 3084 4391 3084 
Q 3944 3084 3684 2787 
Q 3425 2491 3425 1978 
L 3425 0 
L 2847 0 
L 2847 2094 
Q 2847 2600 2669 2842 
Q 2491 3084 2119 3084 
Q 1678 3084 1418 2786 
Q 1159 2488 1159 1978 
L 1159 0 
L 581 0 
L 581 3500 
L 1159 3500 
L 1159 2956 
Q 1356 3278 1631 3431 
Q 1906 3584 2284 3584 
Q 2666 3584 2933 3390 
Q 3200 3197 3328 2828 
z
" transform="scale(0.015625)"/>
       <path id="DejaVuSans-62" d="M 3116 1747 
Q 3116 2381 2855 2742 
Q 2594 3103 2138 3103 
Q 1681 3103 1420 2742 
Q 1159 2381 1159 1747 
Q 1159 1113 1420 752 
Q 1681 391 2138 391 
Q 2594 391 2855 752 
Q 3116 1113 3116 1747 
z
M 1159 2969 
Q 1341 3281 1617 3432 
Q 1894 3584 2278 3584 
Q 2916 3584 3314 3078 
Q 3713 2572 3713 1747 
Q 3713 922 3314 415 
Q 2916 -91 2278 -91 
Q 1894 -91 1617 61 
Q 1341 213 1159 525 
L 1159 0 
L 581 0 
L 581 4863 
L 1159 4863 
L 1159 2969 
z
" transform="scale(0.015625)"/>
       <path id="DejaVuSans-72" d="M 2631 2963 
Q 2534 3019 2420 3045 
Q 2306 3072 2169 3072 
Q 1681 3072 1420 2755 
Q 1159 2438 1159 1844 
L 1159 0 
L 581 0 
L 581 3500 
L 1159 3500 
L 1159 2956 
Q 1341 3275 1631 3429 
Q 1922 3584 2338 3584 
Q 2397 3584 2469 3576 
Q 2541 3569 2628 3553 
L 2631 2963 
z
" transform="scale(0.015625)"/>
       <path id="DejaVuSans-66" d="M 2375 4863 
L 2375 4384 
L 1825 4384 
Q 1516 4384 1395 4259 
Q 1275 4134 1275 3809 
L 1275 3500 
L 2222 3500 
L 2222 3053 
L 1275 3053 
L 1275 0 
L 697 0 
L 697 3053 
L 147 3053 
L 147 3500 
L 697 3500 
L 697 3744 
Q 697 4328 969 4595 
Q 1241 4863 1831 4863 
L 2375 4863 
z
" transform="scale(0.015625)"/>
       <path id="DejaVuSans-6e" d="M 3513 2113 
L 3513 0 
L 2938 0 
L 2938 2094 
Q 2938 2591 2744 2837 
Q 2550 3084 2163 3084 
Q 1697 3084 1428 2787 
Q 1159 2491 1159 1978 
L 1159 0 
L 581 0 
L 581 3500 
L 1159 3500 
L 1159 2956 
Q 1366 3272 1645 3428 
Q 1925 3584 2291 3584 
Q 2894 3584 3203 3211 
Q 3513 2838 3513 2113 
z
" transform="scale(0.015625)"/>
      </defs>
      <use xlink:href="#DejaVuSans-4e"/>
      <use xlink:href="#DejaVuSans-75" x="74.804688"/>
      <use xlink:href="#DejaVuSans-6d" x="138.183594"/>
      <use xlink:href="#DejaVuSans-62" x="235.595703"/>
      <use xlink:href="#DejaVuSans-65" x="299.072266"/>
      <use xlink:href="#DejaVuSans-72" x="360.595703"/>
      <use xlink:href="#DejaVuSans-20" x="401.708984"/>
      <use xlink:href="#DejaVuSans-6f" x="433.496094"/>
      <use xlink:href="#DejaVuSans-66" x="494.677734"/>
      <use xlink:href="#DejaVuSans-20" x="529.882812"/>
      <use xlink:href="#DejaVuSans-6f" x="561.669922"/>
      <use xlink:href="#DejaVuSans-63" x="622.851562"/>
      <use xlink:href="#DejaVuSans-63" x="677.832031"/>
      <use xlink:href="#DejaVuSans-75" x="732.8125"/>
      <use xlink:href="#DejaVuSans-72" x="796.191406"/>
      <use xlink:href="#DejaVuSans-72" x="835.554688"/>
      <use xlink:href="#DejaVuSans-65" x="874.417969"/>
      <use xlink:href="#DejaVuSans-6e" x="935.941406"/>
      <use xlink:href="#DejaVuSans-63" x="999.320312"/>
      <use xlink:href="#DejaVuSans-65" x="1054.300781"/>
      <use xlink:href="#DejaVuSans-73" x="1115.824219"/>
     </g>
    </g>
   </g>
   <g id="line2d_16">
    <path d="M 463.613067 640.8 
L 463.613067 86.4 
" clip-path="url(#pa32028251a)" style="fill: none; stroke-dasharray: 5.55,2.4; stroke-dashoffset: 0; stroke: #ff0000; stroke-width: 1.5"/>
   </g>
   <g id="line2d_17">
    <path d="M 173.045455 640.8 
L 173.045455 86.4 
" clip-path="url(#pa32028251a)" style="fill: none; stroke-dasharray: 5.55,2.4; stroke-dashoffset: 0; stroke: #008000; stroke-width: 1.5"/>
   </g>
   <g id="patch_103">
    <path d="M 135 640.8 
L 135 86.4 
" style="fill: none; stroke: #000000; stroke-width: 0.8; stroke-linejoin: miter; stroke-linecap: square"/>
   </g>
   <g id="patch_104">
    <path d="M 972 640.8 
L 972 86.4 
" style="fill: none; stroke: #000000; stroke-width: 0.8; stroke-linejoin: miter; stroke-linecap: square"/>
   </g>
   <g id="patch_105">
    <path d="M 135 640.8 
L 972 640.8 
" style="fill: none; stroke: #000000; stroke-width: 0.8; stroke-linejoin: miter; stroke-linecap: square"/>
   </g>
   <g id="patch_106">
    <path d="M 135 86.4 
L 972 86.4 
" style="fill: none; stroke: #000000; stroke-width: 0.8; stroke-linejoin: miter; stroke-linecap: square"/>
   </g>
   <g id="text_18">
    <!-- Koonin standard code cost -->
    <g transform="translate(475.345057 466.879687) rotate(-90) scale(0.1 -0.1)">
     <defs>
      <path id="DejaVuSans-4b" d="M 628 4666 
L 1259 4666 
L 1259 2694 
L 3353 4666 
L 4166 4666 
L 1850 2491 
L 4331 0 
L 3500 0 
L 1259 2247 
L 1259 0 
L 628 0 
L 628 4666 
z
" transform="scale(0.015625)"/>
      <path id="DejaVuSans-69" d="M 603 3500 
L 1178 3500 
L 1178 0 
L 603 0 
L 603 3500 
z
M 603 4863 
L 1178 4863 
L 1178 4134 
L 603 4134 
L 603 4863 
z
" transform="scale(0.015625)"/>
      <path id="DejaVuSans-61" d="M 2194 1759 
Q 1497 1759 1228 1600 
Q 959 1441 959 1056 
Q 959 750 1161 570 
Q 1363 391 1709 391 
Q 2188 391 2477 730 
Q 2766 1069 2766 1631 
L 2766 1759 
L 2194 1759 
z
M 3341 1997 
L 3341 0 
L 2766 0 
L 2766 531 
Q 2569 213 2275 61 
Q 1981 -91 1556 -91 
Q 1019 -91 701 211 
Q 384 513 384 1019 
Q 384 1609 779 1909 
Q 1175 2209 1959 2209 
L 2766 2209 
L 2766 2266 
Q 2766 2663 2505 2880 
Q 2244 3097 1772 3097 
Q 1472 3097 1187 3025 
Q 903 2953 641 2809 
L 641 3341 
Q 956 3463 1253 3523 
Q 1550 3584 1831 3584 
Q 2591 3584 2966 3190 
Q 3341 2797 3341 1997 
z
" transform="scale(0.015625)"/>
     </defs>
     <use xlink:href="#DejaVuSans-4b"/>
     <use xlink:href="#DejaVuSans-6f" x="60.576172"/>
     <use xlink:href="#DejaVuSans-6f" x="121.757812"/>
     <use xlink:href="#DejaVuSans-6e" x="182.939453"/>
     <use xlink:href="#DejaVuSans-69" x="246.318359"/>
     <use xlink:href="#DejaVuSans-6e" x="274.101562"/>
     <use xlink:href="#DejaVuSans-20" x="337.480469"/>
     <use xlink:href="#DejaVuSans-73" x="369.267578"/>
     <use xlink:href="#DejaVuSans-74" x="421.367188"/>
     <use xlink:href="#DejaVuSans-61" x="460.576172"/>
     <use xlink:href="#DejaVuSans-6e" x="521.855469"/>
     <use xlink:href="#DejaVuSans-64" x="585.234375"/>
     <use xlink:href="#DejaVuSans-61" x="648.710938"/>
     <use xlink:href="#DejaVuSans-72" x="709.990234"/>
     <use xlink:href="#DejaVuSans-64" x="749.353516"/>
     <use xlink:href="#DejaVuSans-20" x="812.830078"/>
     <use xlink:href="#DejaVuSans-63" x="844.617188"/>
     <use xlink:href="#DejaVuSans-6f" x="899.597656"/>
     <use xlink:href="#DejaVuSans-64" x="960.779297"/>
     <use xlink:href="#DejaVuSans-65" x="1024.255859"/>
     <use xlink:href="#DejaVuSans-20" x="1085.779297"/>
     <use xlink:href="#DejaVuSans-63" x="1117.566406"/>
     <use xlink:href="#DejaVuSans-6f" x="1172.546875"/>
     <use xlink:href="#DejaVuSans-73" x="1233.728516"/>
     <use xlink:href="#DejaVuSans-74" x="1285.828125"/>
    </g>
   </g>
   <g id="text_19">
    <!-- Neutral substitutions standard code cost -->
    <g transform="translate(184.777444 466.879687) rotate(-90) scale(0.1 -0.1)">
     <defs>
      <path id="DejaVuSans-6c" d="M 603 4863 
L 1178 4863 
L 1178 0 
L 603 0 
L 603 4863 
z
" transform="scale(0.015625)"/>
     </defs>
     <use xlink:href="#DejaVuSans-4e"/>
     <use xlink:href="#DejaVuSans-65" x="74.804688"/>
     <use xlink:href="#DejaVuSans-75" x="136.328125"/>
     <use xlink:href="#DejaVuSans-74" x="199.707031"/>
     <use xlink:href="#DejaVuSans-72" x="238.916016"/>
     <use xlink:href="#DejaVuSans-61" x="280.029297"/>
     <use xlink:href="#DejaVuSans-6c" x="341.308594"/>
     <use xlink:href="#DejaVuSans-20" x="369.091797"/>
     <use xlink:href="#DejaVuSans-73" x="400.878906"/>
     <use xlink:href="#DejaVuSans-75" x="452.978516"/>
     <use xlink:href="#DejaVuSans-62" x="516.357422"/>
     <use xlink:href="#DejaVuSans-73" x="579.833984"/>
     <use xlink:href="#DejaVuSans-74" x="631.933594"/>
     <use xlink:href="#DejaVuSans-69" x="671.142578"/>
     <use xlink:href="#DejaVuSans-74" x="698.925781"/>
     <use xlink:href="#DejaVuSans-75" x="738.134766"/>
     <use xlink:href="#DejaVuSans-74" x="801.513672"/>
     <use xlink:href="#DejaVuSans-69" x="840.722656"/>
     <use xlink:href="#DejaVuSans-6f" x="868.505859"/>
     <use xlink:href="#DejaVuSans-6e" x="929.6875"/>
     <use xlink:href="#DejaVuSans-73" x="993.066406"/>
     <use xlink:href="#DejaVuSans-20" x="1045.166016"/>
     <use xlink:href="#DejaVuSans-73" x="1076.953125"/>
     <use xlink:href="#DejaVuSans-74" x="1129.052734"/>
     <use xlink:href="#DejaVuSans-61" x="1168.261719"/>
     <use xlink:href="#DejaVuSans-6e" x="1229.541016"/>
     <use xlink:href="#DejaVuSans-64" x="1292.919922"/>
     <use xlink:href="#DejaVuSans-61" x="1356.396484"/>
     <use xlink:href="#DejaVuSans-72" x="1417.675781"/>
     <use xlink:href="#DejaVuSans-64" x="1457.039062"/>
     <use xlink:href="#DejaVuSans-20" x="1520.515625"/>
     <use xlink:href="#DejaVuSans-63" x="1552.302734"/>
     <use xlink:href="#DejaVuSans-6f" x="1607.283203"/>
     <use xlink:href="#DejaVuSans-64" x="1668.464844"/>
     <use xlink:href="#DejaVuSans-65" x="1731.941406"/>
     <use xlink:href="#DejaVuSans-20" x="1793.464844"/>
     <use xlink:href="#DejaVuSans-63" x="1825.251953"/>
     <use xlink:href="#DejaVuSans-6f" x="1880.232422"/>
     <use xlink:href="#DejaVuSans-73" x="1941.414062"/>
     <use xlink:href="#DejaVuSans-74" x="1993.513672"/>
    </g>
   </g>
   <g id="text_20">
    <!-- Number of occurrences of randomly simulated code costs per bracket for models generated using the Koonin method -->
    <g transform="translate(199.729688 66.962625) scale(0.12 -0.12)">
     <defs>
      <path id="DejaVuSans-79" d="M 2059 -325 
Q 1816 -950 1584 -1140 
Q 1353 -1331 966 -1331 
L 506 -1331 
L 506 -850 
L 844 -850 
Q 1081 -850 1212 -737 
Q 1344 -625 1503 -206 
L 1606 56 
L 191 3500 
L 800 3500 
L 1894 763 
L 2988 3500 
L 3597 3500 
L 2059 -325 
z
" transform="scale(0.015625)"/>
      <path id="DejaVuSans-70" d="M 1159 525 
L 1159 -1331 
L 581 -1331 
L 581 3500 
L 1159 3500 
L 1159 2969 
Q 1341 3281 1617 3432 
Q 1894 3584 2278 3584 
Q 2916 3584 3314 3078 
Q 3713 2572 3713 1747 
Q 3713 922 3314 415 
Q 2916 -91 2278 -91 
Q 1894 -91 1617 61 
Q 1341 213 1159 525 
z
M 3116 1747 
Q 3116 2381 2855 2742 
Q 2594 3103 2138 3103 
Q 1681 3103 1420 2742 
Q 1159 2381 1159 1747 
Q 1159 1113 1420 752 
Q 1681 391 2138 391 
Q 2594 391 2855 752 
Q 3116 1113 3116 1747 
z
" transform="scale(0.015625)"/>
      <path id="DejaVuSans-6b" d="M 581 4863 
L 1159 4863 
L 1159 1991 
L 2875 3500 
L 3609 3500 
L 1753 1863 
L 3688 0 
L 2938 0 
L 1159 1709 
L 1159 0 
L 581 0 
L 581 4863 
z
" transform="scale(0.015625)"/>
      <path id="DejaVuSans-67" d="M 2906 1791 
Q 2906 2416 2648 2759 
Q 2391 3103 1925 3103 
Q 1463 3103 1205 2759 
Q 947 2416 947 1791 
Q 947 1169 1205 825 
Q 1463 481 1925 481 
Q 2391 481 2648 825 
Q 2906 1169 2906 1791 
z
M 3481 434 
Q 3481 -459 3084 -895 
Q 2688 -1331 1869 -1331 
Q 1566 -1331 1297 -1286 
Q 1028 -1241 775 -1147 
L 775 -588 
Q 1028 -725 1275 -790 
Q 1522 -856 1778 -856 
Q 2344 -856 2625 -561 
Q 2906 -266 2906 331 
L 2906 616 
Q 2728 306 2450 153 
Q 2172 0 1784 0 
Q 1141 0 747 490 
Q 353 981 353 1791 
Q 353 2603 747 3093 
Q 1141 3584 1784 3584 
Q 2172 3584 2450 3431 
Q 2728 3278 2906 2969 
L 2906 3500 
L 3481 3500 
L 3481 434 
z
" transform="scale(0.015625)"/>
      <path id="DejaVuSans-68" d="M 3513 2113 
L 3513 0 
L 2938 0 
L 2938 2094 
Q 2938 2591 2744 2837 
Q 2550 3084 2163 3084 
Q 1697 3084 1428 2787 
Q 1159 2491 1159 1978 
L 1159 0 
L 581 0 
L 581 4863 
L 1159 4863 
L 1159 2956 
Q 1366 3272 1645 3428 
Q 1925 3584 2291 3584 
Q 2894 3584 3203 3211 
Q 3513 2838 3513 2113 
z
" transform="scale(0.015625)"/>
     </defs>
     <use xlink:href="#DejaVuSans-4e"/>
     <use xlink:href="#DejaVuSans-75" x="74.804688"/>
     <use xlink:href="#DejaVuSans-6d" x="138.183594"/>
     <use xlink:href="#DejaVuSans-62" x="235.595703"/>
     <use xlink:href="#DejaVuSans-65" x="299.072266"/>
     <use xlink:href="#DejaVuSans-72" x="360.595703"/>
     <use xlink:href="#DejaVuSans-20" x="401.708984"/>
     <use xlink:href="#DejaVuSans-6f" x="433.496094"/>
     <use xlink:href="#DejaVuSans-66" x="494.677734"/>
     <use xlink:href="#DejaVuSans-20" x="529.882812"/>
     <use xlink:href="#DejaVuSans-6f" x="561.669922"/>
     <use xlink:href="#DejaVuSans-63" x="622.851562"/>
     <use xlink:href="#DejaVuSans-63" x="677.832031"/>
     <use xlink:href="#DejaVuSans-75" x="732.8125"/>
     <use xlink:href="#DejaVuSans-72" x="796.191406"/>
     <use xlink:href="#DejaVuSans-72" x="835.554688"/>
     <use xlink:href="#DejaVuSans-65" x="874.417969"/>
     <use xlink:href="#DejaVuSans-6e" x="935.941406"/>
     <use xlink:href="#DejaVuSans-63" x="999.320312"/>
     <use xlink:href="#DejaVuSans-65" x="1054.300781"/>
     <use xlink:href="#DejaVuSans-73" x="1115.824219"/>
     <use xlink:href="#DejaVuSans-20" x="1167.923828"/>
     <use xlink:href="#DejaVuSans-6f" x="1199.710938"/>
     <use xlink:href="#DejaVuSans-66" x="1260.892578"/>
     <use xlink:href="#DejaVuSans-20" x="1296.097656"/>
     <use xlink:href="#DejaVuSans-72" x="1327.884766"/>
     <use xlink:href="#DejaVuSans-61" x="1368.998047"/>
     <use xlink:href="#DejaVuSans-6e" x="1430.277344"/>
     <use xlink:href="#DejaVuSans-64" x="1493.65625"/>
     <use xlink:href="#DejaVuSans-6f" x="1557.132812"/>
     <use xlink:href="#DejaVuSans-6d" x="1618.314453"/>
     <use xlink:href="#DejaVuSans-6c" x="1715.726562"/>
     <use xlink:href="#DejaVuSans-79" x="1743.509766"/>
     <use xlink:href="#DejaVuSans-20" x="1802.689453"/>
     <use xlink:href="#DejaVuSans-73" x="1834.476562"/>
     <use xlink:href="#DejaVuSans-69" x="1886.576172"/>
     <use xlink:href="#DejaVuSans-6d" x="1914.359375"/>
     <use xlink:href="#DejaVuSans-75" x="2011.771484"/>
     <use xlink:href="#DejaVuSans-6c" x="2075.150391"/>
     <use xlink:href="#DejaVuSans-61" x="2102.933594"/>
     <use xlink:href="#DejaVuSans-74" x="2164.212891"/>
     <use xlink:href="#DejaVuSans-65" x="2203.421875"/>
     <use xlink:href="#DejaVuSans-64" x="2264.945312"/>
     <use xlink:href="#DejaVuSans-20" x="2328.421875"/>
     <use xlink:href="#DejaVuSans-63" x="2360.208984"/>
     <use xlink:href="#DejaVuSans-6f" x="2415.189453"/>
     <use xlink:href="#DejaVuSans-64" x="2476.371094"/>
     <use xlink:href="#DejaVuSans-65" x="2539.847656"/>
     <use xlink:href="#DejaVuSans-20" x="2601.371094"/>
     <use xlink:href="#DejaVuSans-63" x="2633.158203"/>
     <use xlink:href="#DejaVuSans-6f" x="2688.138672"/>
     <use xlink:href="#DejaVuSans-73" x="2749.320312"/>
     <use xlink:href="#DejaVuSans-74" x="2801.419922"/>
     <use xlink:href="#DejaVuSans-73" x="2840.628906"/>
     <use xlink:href="#DejaVuSans-20" x="2892.728516"/>
     <use xlink:href="#DejaVuSans-70" x="2924.515625"/>
     <use xlink:href="#DejaVuSans-65" x="2987.992188"/>
     <use xlink:href="#DejaVuSans-72" x="3049.515625"/>
     <use xlink:href="#DejaVuSans-20" x="3090.628906"/>
     <use xlink:href="#DejaVuSans-62" x="3122.416016"/>
     <use xlink:href="#DejaVuSans-72" x="3185.892578"/>
     <use xlink:href="#DejaVuSans-61" x="3227.005859"/>
     <use xlink:href="#DejaVuSans-63" x="3288.285156"/>
     <use xlink:href="#DejaVuSans-6b" x="3343.265625"/>
     <use xlink:href="#DejaVuSans-65" x="3397.550781"/>
     <use xlink:href="#DejaVuSans-74" x="3459.074219"/>
     <use xlink:href="#DejaVuSans-20" x="3498.283203"/>
     <use xlink:href="#DejaVuSans-66" x="3530.070312"/>
     <use xlink:href="#DejaVuSans-6f" x="3565.275391"/>
     <use xlink:href="#DejaVuSans-72" x="3626.457031"/>
     <use xlink:href="#DejaVuSans-20" x="3667.570312"/>
     <use xlink:href="#DejaVuSans-6d" x="3699.357422"/>
     <use xlink:href="#DejaVuSans-6f" x="3796.769531"/>
     <use xlink:href="#DejaVuSans-64" x="3857.951172"/>
     <use xlink:href="#DejaVuSans-65" x="3921.427734"/>
     <use xlink:href="#DejaVuSans-6c" x="3982.951172"/>
     <use xlink:href="#DejaVuSans-73" x="4010.734375"/>
     <use xlink:href="#DejaVuSans-20" x="4062.833984"/>
     <use xlink:href="#DejaVuSans-67" x="4094.621094"/>
     <use xlink:href="#DejaVuSans-65" x="4158.097656"/>
     <use xlink:href="#DejaVuSans-6e" x="4219.621094"/>
     <use xlink:href="#DejaVuSans-65" x="4283"/>
     <use xlink:href="#DejaVuSans-72" x="4344.523438"/>
     <use xlink:href="#DejaVuSans-61" x="4385.636719"/>
     <use xlink:href="#DejaVuSans-74" x="4446.916016"/>
     <use xlink:href="#DejaVuSans-65" x="4486.125"/>
     <use xlink:href="#DejaVuSans-64" x="4547.648438"/>
     <use xlink:href="#DejaVuSans-20" x="4611.125"/>
     <use xlink:href="#DejaVuSans-75" x="4642.912109"/>
     <use xlink:href="#DejaVuSans-73" x="4706.291016"/>
     <use xlink:href="#DejaVuSans-69" x="4758.390625"/>
     <use xlink:href="#DejaVuSans-6e" x="4786.173828"/>
     <use xlink:href="#DejaVuSans-67" x="4849.552734"/>
     <use xlink:href="#DejaVuSans-20" x="4913.029297"/>
     <use xlink:href="#DejaVuSans-74" x="4944.816406"/>
     <use xlink:href="#DejaVuSans-68" x="4984.025391"/>
     <use xlink:href="#DejaVuSans-65" x="5047.404297"/>
     <use xlink:href="#DejaVuSans-20" x="5108.927734"/>
     <use xlink:href="#DejaVuSans-4b" x="5140.714844"/>
     <use xlink:href="#DejaVuSans-6f" x="5201.291016"/>
     <use xlink:href="#DejaVuSans-6f" x="5262.472656"/>
     <use xlink:href="#DejaVuSans-6e" x="5323.654297"/>
     <use xlink:href="#DejaVuSans-69" x="5387.033203"/>
     <use xlink:href="#DejaVuSans-6e" x="5414.816406"/>
     <use xlink:href="#DejaVuSans-20" x="5478.195312"/>
     <use xlink:href="#DejaVuSans-6d" x="5509.982422"/>
     <use xlink:href="#DejaVuSans-65" x="5607.394531"/>
     <use xlink:href="#DejaVuSans-74" x="5668.917969"/>
     <use xlink:href="#DejaVuSans-68" x="5708.126953"/>
     <use xlink:href="#DejaVuSans-6f" x="5771.505859"/>
     <use xlink:href="#DejaVuSans-64" x="5832.6875"/>
    </g>
    <!--  Sample size = 10000 -->
    <g transform="translate(487.625625 80.4) scale(0.12 -0.12)">
     <defs>
      <path id="DejaVuSans-53" d="M 3425 4513 
L 3425 3897 
Q 3066 4069 2747 4153 
Q 2428 4238 2131 4238 
Q 1616 4238 1336 4038 
Q 1056 3838 1056 3469 
Q 1056 3159 1242 3001 
Q 1428 2844 1947 2747 
L 2328 2669 
Q 3034 2534 3370 2195 
Q 3706 1856 3706 1288 
Q 3706 609 3251 259 
Q 2797 -91 1919 -91 
Q 1588 -91 1214 -16 
Q 841 59 441 206 
L 441 856 
Q 825 641 1194 531 
Q 1563 422 1919 422 
Q 2459 422 2753 634 
Q 3047 847 3047 1241 
Q 3047 1584 2836 1778 
Q 2625 1972 2144 2069 
L 1759 2144 
Q 1053 2284 737 2584 
Q 422 2884 422 3419 
Q 422 4038 858 4394 
Q 1294 4750 2059 4750 
Q 2388 4750 2728 4690 
Q 3069 4631 3425 4513 
z
" transform="scale(0.015625)"/>
      <path id="DejaVuSans-7a" d="M 353 3500 
L 3084 3500 
L 3084 2975 
L 922 459 
L 3084 459 
L 3084 0 
L 275 0 
L 275 525 
L 2438 3041 
L 353 3041 
L 353 3500 
z
" transform="scale(0.015625)"/>
      <path id="DejaVuSans-3d" d="M 678 2906 
L 4684 2906 
L 4684 2381 
L 678 2381 
L 678 2906 
z
M 678 1631 
L 4684 1631 
L 4684 1100 
L 678 1100 
L 678 1631 
z
" transform="scale(0.015625)"/>
     </defs>
     <use xlink:href="#DejaVuSans-20"/>
     <use xlink:href="#DejaVuSans-53" x="31.787109"/>
     <use xlink:href="#DejaVuSans-61" x="95.263672"/>
     <use xlink:href="#DejaVuSans-6d" x="156.542969"/>
     <use xlink:href="#DejaVuSans-70" x="253.955078"/>
     <use xlink:href="#DejaVuSans-6c" x="317.431641"/>
     <use xlink:href="#DejaVuSans-65" x="345.214844"/>
     <use xlink:href="#DejaVuSans-20" x="406.738281"/>
     <use xlink:href="#DejaVuSans-73" x="438.525391"/>
     <use xlink:href="#DejaVuSans-69" x="490.625"/>
     <use xlink:href="#DejaVuSans-7a" x="518.408203"/>
     <use xlink:href="#DejaVuSans-65" x="570.898438"/>
     <use xlink:href="#DejaVuSans-20" x="632.421875"/>
     <use xlink:href="#DejaVuSans-3d" x="664.208984"/>
     <use xlink:href="#DejaVuSans-20" x="747.998047"/>
     <use xlink:href="#DejaVuSans-31" x="779.785156"/>
     <use xlink:href="#DejaVuSans-30" x="843.408203"/>
     <use xlink:href="#DejaVuSans-30" x="907.03125"/>
     <use xlink:href="#DejaVuSans-30" x="970.654297"/>
     <use xlink:href="#DejaVuSans-30" x="1034.277344"/>
    </g>
   </g>
  </g>
 </g>
 <defs>
  <clipPath id="pa32028251a">
   <rect x="135" y="86.4" width="837" height="554.4"/>
  </clipPath>
 </defs>
</svg>
